<svg width="136" height="110" viewBox="0 0 136 110" fill="none" xmlns="http://www.w3.org/2000/svg">
<g clip-path="url(#clip0_590_12515)">
<path d="M0.5 39C4.82065 39 4.82065 43.0435 9.1413 43.0435C13.4587 43.0435 13.4587 39 17.7794 39C22.1 39 22.1 43.0435 26.4207 43.0435C30.7413 43.0435 30.7413 39 35.0587 39C39.3794 39 39.3794 43.0435 43.7 43.0435M0.5 52.4783C4.82065 52.4783 4.82065 56.5217 9.1413 56.5217C13.4587 56.5217 13.4587 52.4783 17.7794 52.4783C22.1 52.4783 22.1 56.5217 26.4207 56.5217C30.7413 56.5217 30.7413 52.4783 35.0587 52.4783C39.3794 52.4783 39.3794 56.5217 43.7 56.5217M0.5 65.9565C4.82065 65.9565 4.82065 70 9.1413 70C13.4587 70 13.4587 65.9565 17.7794 65.9565C22.1 65.9565 22.1 70 26.4207 70C30.7413 70 30.7413 65.9565 35.0587 65.9565C39.3794 65.9565 39.3794 70 43.7 70" stroke="#DDBC97" stroke-width="2" stroke-miterlimit="10" stroke-linecap="round" stroke-linejoin="round"/>
<path d="M122.794 15.8717C134.566 28.1634 138.705 49.022 133.03 65.1378C127.379 81.2784 111.939 92.6761 95.0367 100.697C78.1345 108.693 59.7701 113.336 46.1889 107.128C32.6324 100.92 23.8344 83.8857 19.4725 65.5847C15.1107 47.3086 15.2098 27.7661 24.7761 15.971C34.3177 4.20082 53.3017 0.153255 72.484 0.00426499C91.6662 -0.144725 111.047 3.58002 122.794 15.8717Z" fill="#FBFBFB"/>
<g clip-path="url(#clip1_590_12515)">
<path d="M77.1499 33.4752L53.423 24.8281C50.615 23.8048 47.5102 25.2545 46.4882 28.0661L41.222 42.5534C39.6291 46.9353 40.1119 51.8045 42.5341 55.7872L47.7131 64.3026C49.4681 67.1882 52.9862 68.4702 56.1828 67.3893L65.6167 64.1995C70.029 62.7075 73.5247 59.2881 75.1175 54.9063L80.3837 40.419C81.4057 37.6075 79.9579 34.4985 77.1499 33.4752Z" stroke="#D6373E" stroke-width="2" stroke-miterlimit="10" stroke-linecap="round" stroke-linejoin="round"/>
<path d="M56.6506 52.9094C53.772 51.8602 51.3607 50.2748 49.6831 48.4894C48.7403 52.4492 50.8875 56.5743 54.8001 58.0003C58.7128 59.4262 63.0057 57.6481 64.8257 54.008C62.3944 54.2959 59.5294 53.9585 56.6506 52.9094Z" stroke="#D6373E" stroke-width="2" stroke-miterlimit="10" stroke-linecap="round" stroke-linejoin="round"/>
<path d="M56.3451 43.1892C56.0306 41.9306 55.0253 40.7864 53.5724 40.257C52.1195 39.7274 50.6149 39.9569 49.5659 40.7187" stroke="#D6373E" stroke-width="2" stroke-miterlimit="10" stroke-linecap="round" stroke-linejoin="round"/>
<path d="M69.9034 48.1304C69.589 46.8717 68.5837 45.7276 67.1308 45.1982C65.6778 44.6686 64.1733 44.898 63.1243 45.6597" stroke="#D6373E" stroke-width="2" stroke-miterlimit="10" stroke-linecap="round" stroke-linejoin="round"/>
<path d="M49.9524 37.0156C49.9524 37.0156 53.4199 35.3966 58.5042 37.2495" stroke="#D6373E" stroke-width="2" stroke-miterlimit="10" stroke-linecap="round" stroke-linejoin="round"/>
<path d="M71.9845 45.0452C71.9845 45.0452 70.3676 41.5733 65.2832 39.7203" stroke="#D6373E" stroke-width="2" stroke-miterlimit="10" stroke-linecap="round" stroke-linejoin="round"/>
<path d="M63.73 69.0427L65.3998 73.6366C66.9927 78.0184 70.4884 81.4376 74.9006 82.9296L84.3345 86.1195C87.5313 87.2005 91.0493 85.9183 92.8042 83.0328L97.9832 74.5174C100.405 70.5347 100.888 65.6654 99.2955 61.2836L94.0293 46.7962C93.0073 43.9846 89.9025 42.5349 87.0944 43.5582L82.9089 45.0836" stroke="#D6373E" stroke-width="2" stroke-miterlimit="10" stroke-linecap="round" stroke-linejoin="round"/>
<path d="M84.5619 71.2767C88.3773 69.532 91.476 67.0962 93.5379 64.461C95.3799 69.8222 92.9945 75.7317 87.8087 78.1031C82.6228 80.4745 76.4725 78.4683 73.4679 73.6387C76.8519 73.7837 80.7465 73.0213 84.5619 71.2767Z" stroke="#D6373E" stroke-width="2" stroke-miterlimit="10" stroke-linecap="round" stroke-linejoin="round"/>
<path d="M70.563 65.9948C71.7736 66.4574 73.286 66.2872 74.5515 65.3978C75.817 64.5082 76.4906 63.1418 76.4676 61.8446" stroke="#D6373E" stroke-width="2" stroke-miterlimit="10" stroke-linecap="round" stroke-linejoin="round"/>
<path d="M90.4343 58.7528C89.8037 59.8863 88.5361 60.7294 86.9955 60.8626C85.4551 60.9957 84.0619 60.3824 83.2468 59.3738" stroke="#D6373E" stroke-width="2" stroke-miterlimit="10" stroke-linecap="round" stroke-linejoin="round"/>
<path d="M90.565 55.7458C90.565 55.7458 87.0975 54.1268 82.0132 55.9797" stroke="#D6373E" stroke-width="2" stroke-miterlimit="10" stroke-linecap="round" stroke-linejoin="round"/>
</g>
</g>
<defs>
<clipPath id="clip0_590_12515">
<rect width="135" height="110" fill="white" transform="translate(0.5)"/>
</clipPath>
<clipPath id="clip1_590_12515">
<rect width="63.9174" height="64" fill="white" transform="translate(38.3 23.5)"/>
</clipPath>
</defs>
</svg>
