<svg width="126" height="111" viewBox="0 0 126 111" fill="none" xmlns="http://www.w3.org/2000/svg">
<path d="M1 39.5C5.0006 39.5 5.0006 43.5435 9.0012 43.5435C12.9988 43.5435 12.9988 39.5 16.9994 39.5C21 39.5 21 43.5435 25.0006 43.5435C29.0012 43.5435 29.0012 39.5 32.9988 39.5C36.9994 39.5 36.9994 43.5435 41 43.5435M1 52.9783C5.0006 52.9783 5.0006 57.0217 9.0012 57.0217C12.9988 57.0217 12.9988 52.9783 16.9994 52.9783C21 52.9783 21 57.0217 25.0006 57.0217C29.0012 57.0217 29.0012 52.9783 32.9988 52.9783C36.9994 52.9783 36.9994 57.0217 41 57.0217M1 66.4565C5.0006 66.4565 5.0006 70.5 9.0012 70.5C12.9988 70.5 12.9988 66.4565 16.9994 66.4565C21 66.4565 21 70.5 25.0006 70.5C29.0012 70.5 29.0012 66.4565 32.9988 66.4565C36.9994 66.4565 36.9994 70.5 41 70.5" stroke="#DDBC97" stroke-width="2" stroke-miterlimit="10" stroke-linecap="round" stroke-linejoin="round"/>
<path d="M114.197 16.3717C125.093 28.6634 128.923 49.522 123.67 65.6378C118.44 81.7784 104.15 93.1761 88.5057 101.197C72.8616 109.193 55.8642 113.836 43.2939 107.628C30.7465 101.42 22.6034 84.3857 18.5662 66.0847C14.529 47.8086 14.6208 28.2661 23.475 16.471C32.3064 4.70082 49.8773 0.653255 67.6317 0.504265C85.3861 0.355275 103.324 4.08002 114.197 16.3717Z" fill="#FBFBFB"/>
<path d="M101.034 51.4883C100.501 51.4883 100.068 51.9151 100.068 52.4415V58.5584C100.068 59.7514 102 59.8057 102 58.5584V52.4415C102 51.9151 101.568 51.4883 101.034 51.4883Z" fill="#D6373E"/>
<path d="M97.034 45.2702C96.5004 45.2702 96.0681 45.697 96.0681 46.2235V64.7767C96.0681 65.9696 97.9998 66.0239 97.9998 64.7767V46.2235C97.9998 45.697 97.5674 45.2702 97.034 45.2702Z" fill="#D6373E"/>
<path d="M93.0337 47.3462C92.5001 47.3462 92.0678 47.773 92.0678 48.2994V62.7006C92.0678 63.8936 93.9995 63.9478 93.9995 62.7006V48.2994C93.9995 47.773 93.5672 47.3462 93.0337 47.3462Z" fill="#D6373E"/>
<path d="M89.0335 40.9458C88.4999 40.9458 88.0676 41.3726 88.0676 41.8991V69.101C88.0676 70.294 89.9993 70.3483 89.9993 69.101V41.8991C89.9993 41.3726 89.5669 40.9458 89.0335 40.9458Z" fill="#D6373E"/>
<path d="M36.9659 51.4883C36.4323 51.4883 36 51.9151 36 52.4415V58.5584C36 59.7514 37.9317 59.8057 37.9317 58.5584V52.4415C37.9317 51.9151 37.4994 51.4883 36.9659 51.4883Z" fill="#D6373E"/>
<path d="M40.9662 45.2702C40.4326 45.2702 40.0003 45.697 40.0003 46.2235V64.7767C40.0003 65.9696 41.932 66.0239 41.932 64.7767V46.2235C41.932 45.697 41.4996 45.2702 40.9662 45.2702Z" fill="#D6373E"/>
<path d="M44.9663 47.3462C44.4328 47.3462 44.0005 47.773 44.0005 48.2994V62.7006C44.0005 63.8936 45.9322 63.9478 45.9322 62.7006V48.2994C45.9322 47.773 45.4999 47.3462 44.9663 47.3462Z" fill="#D6373E"/>
<path d="M48.9667 40.9458C48.4331 40.9458 48.0008 41.3726 48.0008 41.8991V69.101C48.0008 70.294 49.9325 70.3483 49.9325 69.101V41.8991C49.9325 41.3726 49.5001 40.9458 48.9667 40.9458Z" fill="#D6373E"/>
<path d="M85.9712 48.523C85.9887 48.4512 85.999 48.3766 85.999 48.2994V38.0407C85.999 36.8477 84.0673 36.7934 84.0673 38.0407V45.12C83.4497 44.2511 82.7575 43.4374 81.9987 42.6893V29.6983C81.9987 28.5054 80.067 28.4511 80.067 29.6983V41.0324C79.4104 40.5433 78.7193 40.0972 77.9984 39.6972V32.3039C77.9984 31.1109 76.0667 31.0567 76.0667 32.3039V38.7678C75.3961 38.4921 74.7059 38.2543 73.9981 38.0578V26.9021C73.9981 25.7091 72.0664 25.6548 72.0664 26.9021V37.6327C71.3678 37.5175 70.6562 37.4405 69.9334 37.4058V23.9152C69.9334 22.7222 68.0017 22.6679 68.0017 23.9152V37.4128C67.301 37.4513 66.6109 37.5289 65.9331 37.6432V26.9021C65.9331 25.7091 64.0014 25.6548 64.0014 26.9021V38.0754C63.2936 38.2747 62.6032 38.5153 61.9328 38.7939V32.3039C61.9328 31.1109 60.0011 31.0567 60.0011 32.3039V39.7329C59.2798 40.1369 58.589 40.5878 57.9325 41.0812V29.6983C57.9325 28.5054 56.0008 28.4511 56.0008 29.6983V42.7541C55.241 43.5107 54.5485 44.3332 53.9322 45.2116V38.0407C53.9322 36.8477 52.0005 36.7934 52.0005 38.0407V48.573C52.0005 48.6218 52.0054 48.6693 52.0126 48.7162C51.1515 50.8126 50.6761 53.1024 50.6761 55.5C50.6761 57.8413 51.1222 60.1154 52.0005 62.2655V72.9593C52.0005 74.1523 53.9322 74.2066 53.9322 72.9593V62.4587C53.9322 60.1274 52.6078 59.186 52.6078 55.5C52.6078 46.5619 59.9756 39.2902 69.0317 39.2902C78.0878 39.2902 85.4556 46.5618 85.4556 55.5C85.4556 64.4382 78.0883 71.7098 69.0322 71.7098C64.8139 71.7098 60.8044 70.1342 57.7427 67.2732C57.1352 66.7054 56.0013 67.1343 56.0013 67.9654V81.3017C56.0013 82.4946 57.933 82.5489 57.933 81.3017V69.9295C58.5941 70.4261 59.2851 70.8758 60.0016 71.2763V78.6962C60.0016 79.8892 61.9333 79.9435 61.9333 78.6962V72.212C62.6071 72.4908 63.2977 72.7294 64.0019 72.9268V84.098C64.0019 85.291 65.9336 85.3453 65.9336 84.098V73.3587C66.6147 73.473 67.3052 73.549 68.0022 73.5872V87.0848C68.0022 88.2778 69.9339 88.332 69.9339 87.0848V73.5942C70.6566 73.5595 71.3681 73.4825 72.0669 73.3673V84.0979C72.0669 85.2909 73.9986 85.3452 73.9986 84.0979V72.9422C74.7063 72.7457 75.3967 72.5079 76.0672 72.2322V78.6961C76.0672 79.8891 77.9989 79.9433 77.9989 78.6961V71.3027C78.7197 70.9027 79.4109 70.4566 80.0675 69.9675V81.3015C80.0675 82.4945 81.9992 82.5488 81.9992 81.3015V68.3106C82.758 67.5625 83.4501 66.7488 84.0678 65.8799V72.9592C84.0678 74.1522 85.9995 74.2065 85.9995 72.9592V62.7004C85.9995 62.6233 85.9892 62.5487 85.9717 62.4769C86.8836 60.3283 87.3883 57.9712 87.3883 55.4999C87.3883 53.0285 86.8831 50.6715 85.9712 48.523Z" fill="#D6373E"/>
<path d="M72.5523 48.0522C73.6906 47.6511 73.0926 45.8372 71.9026 46.2568L64.9757 48.6984C64.5949 48.8325 64.3347 49.1991 64.3347 49.5961V58.7204C63.8467 58.4716 63.2939 58.3303 62.7078 58.3303C60.7457 58.3303 59.1492 59.9059 59.1492 61.8425C59.1492 63.7792 60.7456 65.3547 62.7078 65.3547C64.67 65.3547 66.2664 63.7792 66.2664 61.8425V53.558L74.7055 50.5833V55.0649C74.2175 54.8162 73.6647 54.6749 73.0786 54.6749C71.1165 54.6749 69.52 56.2504 69.52 58.1871C69.52 60.1237 71.1164 61.6993 73.0786 61.6993C75.0408 61.6993 76.6372 60.1237 76.6372 58.1871V45.9408C76.6372 44.7478 74.7055 44.6935 74.7055 45.9408V48.5591L66.2664 51.5338V50.2682L72.5523 48.0522ZM73.0787 59.7925C72.1816 59.7925 71.4519 59.0722 71.4519 58.1868C71.4519 57.3014 72.1816 56.5811 73.0787 56.5811C73.9758 56.5811 74.7056 57.3014 74.7056 58.1868C74.7056 59.0722 73.9758 59.7925 73.0787 59.7925ZM62.7079 63.4482C61.8108 63.4482 61.081 62.7279 61.081 61.8425C61.081 60.9571 61.8108 60.2368 62.7079 60.2368C63.605 60.2368 64.3348 60.9571 64.3348 61.8425C64.3348 62.7279 63.6049 63.4482 62.7079 63.4482Z" fill="#D6373E"/>
</svg>
