<svg width="136" height="110" viewBox="0 0 136 110" fill="none" xmlns="http://www.w3.org/2000/svg">
<g clip-path="url(#clip0_590_12547)">
<path d="M0.5 39C4.82065 39 4.82065 43.0435 9.1413 43.0435C13.4587 43.0435 13.4587 39 17.7794 39C22.1 39 22.1 43.0435 26.4207 43.0435C30.7413 43.0435 30.7413 39 35.0587 39C39.3794 39 39.3794 43.0435 43.7 43.0435M0.5 52.4783C4.82065 52.4783 4.82065 56.5217 9.1413 56.5217C13.4587 56.5217 13.4587 52.4783 17.7794 52.4783C22.1 52.4783 22.1 56.5217 26.4207 56.5217C30.7413 56.5217 30.7413 52.4783 35.0587 52.4783C39.3794 52.4783 39.3794 56.5217 43.7 56.5217M0.5 65.9565C4.82065 65.9565 4.82065 70 9.1413 70C13.4587 70 13.4587 65.9565 17.7794 65.9565C22.1 65.9565 22.1 70 26.4207 70C30.7413 70 30.7413 65.9565 35.0587 65.9565C39.3794 65.9565 39.3794 70 43.7 70" stroke="#DDBC97" stroke-width="2" stroke-miterlimit="10" stroke-linecap="round" stroke-linejoin="round"/>
<path d="M122.794 15.8717C134.566 28.1634 138.705 49.022 133.03 65.1378C127.379 81.2784 111.939 92.6761 95.0367 100.697C78.1345 108.693 59.7701 113.336 46.1889 107.128C32.6324 100.92 23.8344 83.8857 19.4725 65.5847C15.1107 47.3086 15.2098 27.7661 24.7761 15.971C34.3177 4.20082 53.3017 0.153255 72.484 0.00426499C91.6662 -0.144725 111.047 3.58002 122.794 15.8717Z" fill="#FBFBFB"/>
<path d="M70.568 52.3622L70.5589 52.3529C70.1667 51.9564 69.531 51.9564 69.1386 52.3529C68.7465 52.7495 68.7465 53.3927 69.1386 53.7894L69.1479 53.7987C69.344 53.997 69.6009 54.0962 69.858 54.0962C70.1151 54.0962 70.372 53.997 70.5681 53.7987C70.9602 53.4021 70.9602 52.7589 70.568 52.3622Z" fill="#D6373E"/>
<path d="M66.4943 38.1507L66.4839 38.1401C66.0917 37.7436 65.456 37.7436 65.0636 38.1401C64.6715 38.5367 64.6715 39.1799 65.0636 39.5766L65.0741 39.5872C65.2702 39.7854 65.5271 39.8847 65.7842 39.8847C66.0413 39.8847 66.2982 39.7854 66.4943 39.5872C66.8865 39.1905 66.8865 38.5473 66.4943 38.1507Z" fill="#D6373E"/>
<path d="M74.634 38.1507L74.6236 38.1401C74.2313 37.7436 73.5956 37.7436 73.2033 38.1401C72.8112 38.5367 72.8112 39.1799 73.2033 39.5766L73.2138 39.5872C73.4099 39.7854 73.6668 39.8847 73.9239 39.8847C74.1809 39.8847 74.4379 39.7854 74.634 39.5872C75.0263 39.1905 75.0263 38.5473 74.634 38.1507Z" fill="#D6373E"/>
<path d="M70.568 56.8827L70.5589 56.8733C70.1667 56.4768 69.531 56.4768 69.1386 56.8733C68.7465 57.2699 68.7465 57.9131 69.1386 58.3098L69.1479 58.3192C69.344 58.5174 69.6009 58.6166 69.858 58.6166C70.1151 58.6166 70.372 58.5174 70.5681 58.3192C70.9602 57.9226 70.9602 57.2794 70.568 56.8827Z" fill="#D6373E"/>
<path d="M70.568 61.4031L70.5589 61.3938C70.1667 60.9973 69.531 60.9973 69.1386 61.3938C68.7465 61.7904 68.7465 62.4336 69.1386 62.8303L69.1479 62.8396C69.344 63.0379 69.6009 63.1371 69.858 63.1371C70.1151 63.1371 70.372 63.0379 70.5681 62.8396C70.9602 62.4431 70.9602 61.7999 70.568 61.4031Z" fill="#D6373E"/>
<path d="M72.8981 42.1627C72.3963 41.9227 71.7979 42.1395 71.5609 42.6465C71.2492 43.3134 70.5771 43.7442 69.8489 43.7442C69.1207 43.7442 68.4487 43.3135 68.1368 42.6465C67.8997 42.1396 67.3013 41.9228 66.7996 42.1627C66.2983 42.4025 66.0841 43.0081 66.3213 43.5152C66.9635 44.8883 68.3482 45.7756 69.8489 45.7756C71.3495 45.7756 72.7343 44.8883 73.3765 43.5152C73.6135 43.008 73.3995 42.4025 72.8981 42.1627Z" fill="#D6373E"/>
<path d="M84.9554 57.625C86.4967 57.2066 87.7802 56.2036 88.5697 54.8009C89.3592 53.3981 89.5566 51.7698 89.1259 50.2166C89.1258 50.2163 89.1232 50.2067 89.1231 50.2064C88.2506 47.0601 85.0023 45.1901 81.8824 46.0372L78.6608 46.9118C80.1104 44.9835 80.8935 42.644 80.8935 40.1723C80.8935 37.2162 79.7632 34.4297 77.7108 32.3257C75.6674 30.2309 72.9434 29.0511 70.0377 29.0014C70.0293 29.001 70.0208 29.0007 70.0124 29.0006L69.9917 29.0005C69.9584 29 69.9251 28.9999 69.8919 29.0002L69.8145 29.0001C69.7822 29.0001 69.7498 29.0001 69.7144 29.0004C69.7129 29.0004 69.7113 29.0004 69.7097 29.0004C69.6896 29.0004 69.6744 29.0008 69.6601 29.0014C66.7541 29.0511 64.0301 30.2309 61.9868 32.3257C59.9344 34.4297 58.8042 37.2162 58.8042 40.1723C58.8042 42.6439 59.5874 44.9834 61.0368 46.9118L57.8153 46.0372C54.695 45.1899 51.4471 47.0603 50.572 50.2157C50.1411 51.7698 50.3385 53.398 51.1279 54.8008C51.9175 56.2034 53.201 57.2064 54.7423 57.6249L59.3627 58.8796V61.4947C59.3627 63.1554 58.7239 64.7171 57.5642 65.8924L53.7936 69.7133C51.2469 72.2941 51.2488 76.4915 53.7987 79.0704C56.3484 81.6446 60.4951 81.6429 63.0423 79.0665L68.4195 73.6313C69.2089 72.8335 70.4929 72.8338 71.2818 73.6318L76.6549 79.0663C77.9293 80.3553 79.6041 81 81.279 81C82.9519 80.9999 84.6247 80.3568 85.8989 79.0704C88.4507 76.494 88.4546 72.298 85.9075 69.7169L82.1334 65.8924C80.9736 64.7171 80.3349 63.1553 80.3349 61.4947V58.8796L84.9554 57.625ZM81.5975 48.2181L82.4031 47.9994C84.4652 47.4396 86.6124 48.6757 87.1891 50.7544C87.1892 50.7547 87.1918 50.7643 87.1919 50.7646C87.4767 51.792 87.3462 52.8686 86.8244 53.7959C86.3319 54.6707 85.549 55.3098 84.6067 55.6118C84.0897 55.2767 83.866 54.603 84.1065 54.012C84.1077 54.0093 84.1088 54.0065 84.11 54.0037C84.8076 52.3206 84.0268 50.3644 82.361 49.6398C81.8041 49.3974 81.501 48.7994 81.5975 48.2181ZM55.5876 54.0035C55.5888 54.0063 55.5899 54.0091 55.5911 54.0118C55.8315 54.6028 55.6078 55.2764 55.0909 55.6116C54.1485 55.3098 53.3655 54.6706 52.8732 53.7958C52.3513 52.8685 52.2207 51.7919 52.5082 50.7553C52.991 49.0143 54.5741 47.8645 56.2869 47.8645C56.6202 47.8645 56.9586 47.9081 57.2945 47.9993L58.1 48.2179C58.1966 48.7993 57.8935 49.3972 57.3378 49.6389C57.3374 49.6391 57.3288 49.6428 57.3283 49.643C55.6708 50.3643 54.8901 52.3204 55.5876 54.0035ZM61.6227 77.6294C61.6225 77.6296 61.6228 77.6294 61.6227 77.6294C59.8579 79.4147 56.9842 79.4165 55.2183 77.6332C53.4515 75.8461 53.4502 72.937 55.2153 71.1483L55.7296 70.627C56.4714 70.718 57.052 71.3581 57.0563 72.1259C57.0563 72.1279 57.0563 72.1395 57.0563 72.1415C57.067 74.0844 58.6388 75.6708 60.5599 75.6781C61.3805 75.6812 62.052 76.3565 62.0618 77.1853L61.6227 77.6294ZM83.9677 70.6269L84.486 71.152C86.2507 72.9403 86.248 75.8477 84.4799 77.6328C82.7132 79.4163 79.8401 79.4152 78.0752 77.6299L77.6359 77.1855C77.6459 76.3568 78.3172 75.6817 79.138 75.6785C81.0589 75.6713 82.6304 74.0848 82.6413 72.132C82.6455 71.3579 83.2276 70.7169 83.9677 70.6269ZM80.7118 67.3274L82.4134 69.0518C81.3579 69.6636 80.6401 70.8131 80.6328 72.1302C80.6282 72.9635 79.9542 73.6439 79.1301 73.647C77.7874 73.6522 76.6163 74.4294 76.0287 75.5599L72.7023 72.1954C71.1305 70.6056 68.5724 70.605 67 72.1945L63.6696 75.5609C63.082 74.4298 61.9105 73.6521 60.5672 73.647C59.7434 73.644 59.0696 72.9635 59.0649 72.136C59.0649 72.134 59.0649 72.1224 59.0649 72.1204C59.0577 70.8105 58.3403 69.6633 57.284 69.0522L58.986 67.3274C60.5242 65.7685 61.3713 63.697 61.3713 61.4946V58.1005C61.3713 57.6411 61.0663 57.2387 60.6275 57.1195L57.2392 56.1996C57.7465 55.3217 57.8562 54.2217 57.4404 53.2185C57.4392 53.2158 57.4381 53.213 57.4368 53.2102C57.1692 52.5523 57.4754 51.7908 58.1211 51.5099C58.1215 51.5097 58.1302 51.5059 58.1306 51.5057C59.2679 51.0108 59.9923 49.9342 60.1097 48.7636L62.1274 49.3114C62.8019 49.4944 63.4854 49.2054 63.8291 48.592C64.1739 47.9767 64.0676 47.2326 63.5646 46.74C61.79 45.0023 60.8128 42.6699 60.8128 40.1726C60.8128 35.2038 64.8078 31.1035 69.7186 31.0324C69.7246 31.0323 69.7307 31.0322 69.7368 31.032C69.7612 31.0317 69.7854 31.0318 69.8097 31.0318L69.8973 31.0319C69.9196 31.0318 69.9421 31.0318 69.9597 31.0319C69.9661 31.0321 69.9732 31.0323 69.9797 31.0324C74.8903 31.1035 78.8855 35.2038 78.8855 40.1726C78.8855 42.6699 77.9082 45.0024 76.1338 46.74C75.6307 47.2327 75.5243 47.9768 75.8692 48.592C76.213 49.2054 76.897 49.4946 77.5709 49.3114L79.5887 48.7635C79.7066 49.9344 80.4329 51.0117 81.5759 51.5093C82.2229 51.7907 82.529 52.5524 82.2614 53.2102C82.2602 53.213 82.2591 53.2158 82.2579 53.2185C81.8422 54.2217 81.9519 55.3217 82.459 56.1996L79.0708 57.1195C78.6321 57.2387 78.327 57.641 78.327 58.1005V61.4946C78.3265 63.697 79.1736 65.7685 80.7118 67.3274Z" fill="#D6373E"/>
<path d="M79.1085 67.6684L79.0785 67.6379C78.6881 67.2394 78.0522 67.2367 77.6583 67.6314C77.2646 68.0264 77.2617 68.6696 77.6521 69.0681L77.6884 69.1049C77.8845 69.3032 78.1414 69.4024 78.3985 69.4024C78.6555 69.4024 78.9125 69.3032 79.1086 69.1049C79.5006 68.7083 79.5006 68.0651 79.1085 67.6684Z" fill="#D6373E"/>
<path d="M77.4084 65.0446C77.0538 64.136 76.8739 63.1801 76.8739 62.2033V58.1003C76.8739 57.5394 76.4242 57.0846 75.8696 57.0846C75.315 57.0846 74.8654 57.5394 74.8654 58.1003V62.2033C74.8654 63.4365 75.0924 64.6432 75.5402 65.7905C75.6961 66.1898 76.0744 66.4336 76.4746 66.4336C76.5973 66.4336 76.722 66.4106 76.843 66.3624C77.3589 66.1563 77.612 65.5665 77.4084 65.0446Z" fill="#D6373E"/>
</g>
<defs>
<clipPath id="clip0_590_12547">
<rect width="135" height="110" fill="white" transform="translate(0.5)"/>
</clipPath>
</defs>
</svg>
