<svg width="136" height="110" viewBox="0 0 136 110" fill="none" xmlns="http://www.w3.org/2000/svg">
<g clip-path="url(#clip0_590_12555)">
<path d="M0.5 39C4.82065 39 4.82065 43.0435 9.1413 43.0435C13.4587 43.0435 13.4587 39 17.7794 39C22.1 39 22.1 43.0435 26.4207 43.0435C30.7413 43.0435 30.7413 39 35.0587 39C39.3794 39 39.3794 43.0435 43.7 43.0435M0.5 52.4783C4.82065 52.4783 4.82065 56.5217 9.1413 56.5217C13.4587 56.5217 13.4587 52.4783 17.7794 52.4783C22.1 52.4783 22.1 56.5217 26.4207 56.5217C30.7413 56.5217 30.7413 52.4783 35.0587 52.4783C39.3794 52.4783 39.3794 56.5217 43.7 56.5217M0.5 65.9565C4.82065 65.9565 4.82065 70 9.1413 70C13.4587 70 13.4587 65.9565 17.7794 65.9565C22.1 65.9565 22.1 70 26.4207 70C30.7413 70 30.7413 65.9565 35.0587 65.9565C39.3794 65.9565 39.3794 70 43.7 70" stroke="#DDBC97" stroke-width="2" stroke-miterlimit="10" stroke-linecap="round" stroke-linejoin="round"/>
<path d="M122.794 15.8717C134.566 28.1634 138.705 49.022 133.03 65.1378C127.379 81.2784 111.939 92.6761 95.0367 100.697C78.1345 108.693 59.7701 113.336 46.1889 107.128C32.6324 100.92 23.8344 83.8857 19.4725 65.5847C15.1107 47.3086 15.2098 27.7661 24.7761 15.971C34.3177 4.20082 53.3017 0.153255 72.484 0.00426499C91.6662 -0.144725 111.047 3.58002 122.794 15.8717Z" fill="#FBFBFB"/>
<path d="M100.014 76.4354L94.1531 66.4578C94.6982 66.1466 95.1244 65.6653 95.3654 65.0887C95.6063 64.5121 95.6485 63.8726 95.4854 63.2698C95.3223 62.6669 94.963 62.1345 94.4635 61.7554C93.9639 61.3763 93.3522 61.1718 92.7234 61.1737H90.7219C90.5022 60.1399 89.9389 59.2094 89.1225 58.5317C90.3766 57.8876 91.3922 56.8645 92.0226 55.6102C92.6531 54.3558 92.8659 52.9351 92.6302 51.5529C92.3946 50.1707 91.7227 48.8986 90.7116 47.9201C89.7005 46.9416 88.4025 46.3073 87.0047 46.1088V38.2887C87.6401 38.0665 88.1758 37.6282 88.517 37.0514C88.8581 36.4747 88.9826 35.7966 88.8684 35.1374C88.7543 34.4783 88.4088 33.8804 87.8932 33.4499C87.3777 33.0194 86.7253 32.7839 86.0516 32.7851H80.3329C79.6592 32.7839 79.0068 33.0194 78.4912 33.4499C77.9756 33.8804 77.6302 34.4783 77.516 35.1374C77.4019 35.7966 77.5264 36.4747 77.8675 37.0514C78.2086 37.6282 78.7443 38.0665 79.3797 38.2887V46.0331H67.9423V36.4359C68.8398 36.2066 69.6221 35.6599 70.1424 34.8985C70.6628 34.1372 70.8853 33.2134 70.7683 32.3007C70.6513 31.388 70.2028 30.549 69.507 29.9413C68.8112 29.3336 67.9159 28.9989 66.9892 29H44.1142C43.1875 28.9989 42.2922 29.3336 41.5964 29.9413C40.9006 30.549 40.4521 31.388 40.3351 32.3007C40.2181 33.2134 40.4406 34.1372 40.961 34.8985C41.4813 35.6599 42.2636 36.2066 43.1611 36.4359V61.1737H42.208C41.4496 61.1737 40.7224 61.4728 40.1861 62.0052C39.6499 62.5376 39.3486 63.2597 39.3486 64.0126V73.4754C39.3486 74.2283 39.6499 74.9504 40.1861 75.4828C40.7224 76.0152 41.4496 76.3143 42.208 76.3143H43.2355C43.4347 77.7223 44.0865 79.0288 45.0938 80.0394C46.1011 81.0501 47.4101 81.7109 48.8261 81.9235C50.2421 82.1362 51.6894 81.8893 52.9527 81.2197C54.216 80.55 55.2278 79.4933 55.8376 78.2068H59.0782C59.6123 79.3405 60.4608 80.2995 61.5244 80.9713C62.5879 81.6432 63.8223 82 65.0829 82C66.3435 82 67.5779 81.6432 68.6414 80.9713C69.705 80.2995 70.5535 79.3405 71.0876 78.2068H74.3282C74.9389 79.4917 75.9507 80.5467 77.2133 81.2151C78.476 81.8836 79.9222 82.1298 81.3371 81.9173C82.7519 81.7048 84.06 81.0448 85.067 80.0353C86.0739 79.0259 86.7261 77.721 86.9266 76.3143H89.0063C89.2275 77.3822 89.8128 78.3418 90.6635 79.0313C91.5142 79.7208 92.5784 80.098 93.6766 80.0994H97.8951C98.3268 80.0995 98.7508 79.9864 99.1244 79.7717C99.4981 79.5569 99.808 79.2481 100.023 78.8764C100.238 78.5047 100.35 78.0833 100.349 77.6547C100.347 77.2261 100.232 76.8055 100.014 76.4354ZM80.3329 34.6777H86.0516C86.3044 34.6777 86.5468 34.7774 86.7255 34.9549C86.9043 35.1323 87.0047 35.373 87.0047 35.624C87.0047 35.875 86.9043 36.1157 86.7255 36.2931C86.5468 36.4706 86.3044 36.5703 86.0516 36.5703H80.3329C80.0801 36.5703 79.8376 36.4706 79.6589 36.2931C79.4802 36.1157 79.3797 35.875 79.3797 35.624C79.3797 35.373 79.4802 35.1323 79.6589 34.9549C79.8376 34.7774 80.0801 34.6777 80.3329 34.6777ZM85.0985 38.4629V46.0331H81.286V38.4629H85.0985ZM86.0516 47.9257C87.3155 47.9257 88.5277 48.4242 89.4214 49.3115C90.3151 50.1988 90.8172 51.4023 90.8172 52.6571C90.8172 53.912 90.3151 55.1154 89.4214 56.0028C88.5277 56.8901 87.3155 57.3886 86.0516 57.3886H67.9423V47.9257H86.0516ZM86.0516 59.2811C86.6409 59.2836 87.215 59.4667 87.6954 59.8055C88.1759 60.1442 88.5392 60.6221 88.7356 61.1737H45.0674V59.2811H86.0516ZM45.0674 57.3886V36.5703H66.036V57.3886H45.0674ZM42.208 32.7851C42.208 32.2832 42.4088 31.8018 42.7663 31.4469C43.1238 31.092 43.6087 30.8926 44.1142 30.8926H66.9892C67.4947 30.8926 67.9796 31.092 68.3371 31.4469C68.6946 31.8018 68.8954 32.2832 68.8954 32.7851C68.8954 33.2871 68.6946 33.7685 68.3371 34.1234C67.9796 34.4783 67.4947 34.6777 66.9892 34.6777H44.1142C43.6087 34.6777 43.1238 34.4783 42.7663 34.1234C42.4088 33.7685 42.208 33.2871 42.208 32.7851ZM49.833 80.0994C49.0202 80.101 48.2206 79.8963 47.51 79.5046C46.7995 79.1129 46.2017 78.5472 45.7733 77.8615C45.345 77.1757 45.1005 76.3926 45.0629 75.5866C45.0254 74.7805 45.1961 73.9783 45.5588 73.2563C45.9216 72.5342 46.4643 71.9162 47.1354 71.4611C47.8065 71.0059 48.5837 70.7288 49.3931 70.6559C50.2025 70.583 51.0172 70.7169 51.7598 71.0448C52.5025 71.3726 53.1483 71.8836 53.6359 72.5291H49.833C49.0746 72.5291 48.3473 72.8282 47.8111 73.3606C47.2749 73.893 46.9736 74.6151 46.9736 75.368C46.9736 76.1209 47.2749 76.843 47.8111 77.3754C48.3473 77.9077 49.0746 78.2068 49.833 78.2068H53.634C53.1913 78.7929 52.6175 79.2689 51.9579 79.5974C51.2983 79.9258 50.5709 80.0977 49.833 80.0994ZM65.0829 80.0994C64.345 80.0977 63.6176 79.9258 62.958 79.5974C62.2984 79.2689 61.7246 78.7929 61.2819 78.2068H68.884C68.4412 78.7929 67.8674 79.2689 67.2078 79.5974C66.5482 79.9258 65.8208 80.0977 65.0829 80.0994ZM49.833 76.3143C49.5802 76.3143 49.3378 76.2146 49.159 76.0371C48.9803 75.8596 48.8798 75.619 48.8798 75.368C48.8798 75.117 48.9803 74.8763 49.159 74.6989C49.3378 74.5214 49.5802 74.4217 49.833 74.4217H80.3329C80.5856 74.4217 80.8281 74.5214 81.0068 74.6989C81.1856 74.8763 81.286 75.117 81.286 75.368C81.286 75.619 81.1856 75.8596 81.0068 76.0371C80.8281 76.2146 80.5856 76.3143 80.3329 76.3143H49.833ZM61.2809 72.5291C61.7225 71.9415 62.2962 71.4644 62.9562 71.1357C63.6163 70.8071 64.3445 70.6359 65.0829 70.6359C65.8213 70.6359 66.5496 70.8071 67.2096 71.1357C67.8697 71.4644 68.4433 71.9415 68.8849 72.5291H61.2809ZM80.3329 80.0994C79.595 80.0977 78.8675 79.9258 78.2079 79.5974C77.5483 79.2689 76.9746 78.7929 76.5318 78.2068H80.3329C81.0912 78.2068 81.8185 77.9077 82.3547 77.3754C82.891 76.843 83.1922 76.1209 83.1922 75.368C83.1922 74.6151 82.891 73.893 82.3547 73.3606C81.8185 72.8282 81.0912 72.5291 80.3329 72.5291H76.5299C77.0175 71.8836 77.6634 71.3726 78.406 71.0448C79.1486 70.7169 79.9633 70.583 80.7727 70.6559C81.5821 70.7288 82.3593 71.0059 83.0304 71.4611C83.7015 71.9162 84.2443 72.5342 84.607 73.2563C84.9697 73.9783 85.1404 74.7805 85.1029 75.5866C85.0654 76.3926 84.8208 77.1757 84.3925 77.8615C83.9642 78.5472 83.3663 79.1129 82.6558 79.5046C81.9452 79.8963 81.1456 80.101 80.3329 80.0994ZM88.9109 74.4217H86.9304C86.7311 73.0137 86.0793 71.7072 85.072 70.6966C84.0647 69.6859 82.7557 69.0251 81.3397 68.8125C79.9237 68.5998 78.4764 68.8467 77.2131 69.5163C75.9498 70.186 74.938 71.2426 74.3282 72.5291H71.0876C70.5533 71.3958 69.7046 70.4371 68.6411 69.7655C67.5776 69.094 66.3433 68.7373 65.0829 68.7373C63.8225 68.7373 62.5882 69.094 61.5247 69.7655C60.4612 70.4371 59.6126 71.3958 59.0782 72.5291H55.8376C55.2274 71.2435 54.2156 70.1876 52.9526 69.5186C51.6896 68.8495 50.2429 68.603 48.8274 68.8156C47.412 69.0282 46.1035 69.6886 45.0963 70.6986C44.0892 71.7086 43.4372 73.0144 43.2374 74.4217H42.208C41.9552 74.4217 41.7128 74.322 41.534 74.1445C41.3553 73.9671 41.2549 73.7264 41.2549 73.4754V64.0126C41.2549 63.7616 41.3553 63.5209 41.534 63.3434C41.7128 63.166 41.9552 63.0663 42.208 63.0663H84.3207C84.2078 63.3693 84.1485 63.6895 84.1453 64.0126C84.1453 64.7655 84.4466 65.4875 84.9828 66.0199C85.5191 66.5523 86.2464 66.8514 87.0047 66.8514H88.9109V74.4217ZM87.0047 64.9588C86.7519 64.9588 86.5095 64.8591 86.3307 64.6817C86.152 64.5042 86.0516 64.2635 86.0516 64.0126C86.0516 63.7616 86.152 63.5209 86.3307 63.3434C86.5095 63.166 86.7519 63.0663 87.0047 63.0663H92.7234C92.9762 63.0663 93.2187 63.166 93.3974 63.3434C93.5761 63.5209 93.6766 63.7616 93.6766 64.0126C93.6766 64.2635 93.5761 64.5042 93.3974 64.6817C93.2187 64.8591 92.9762 64.9588 92.7234 64.9588H87.0047ZM97.8951 78.2068H93.6766C92.9182 78.2068 92.1909 77.9077 91.6547 77.3754C91.1184 76.843 90.8172 76.1209 90.8172 75.368V66.8514H92.1754L98.3707 77.3902C98.4193 77.473 98.445 77.5671 98.4451 77.663C98.4452 77.7589 98.4198 77.853 98.3714 77.936C98.323 78.0189 98.2533 78.0877 98.1695 78.1353C98.0857 78.1828 97.9916 78.2075 97.8951 78.2068Z" fill="#D6373E"/>
<path d="M63.1767 38.4629H47.9267C47.6739 38.4629 47.4315 38.5626 47.2528 38.74C47.074 38.9175 46.9736 39.1582 46.9736 39.4091V54.5497C46.9736 54.8007 47.074 55.0414 47.2528 55.2188C47.4315 55.3963 47.6739 55.496 47.9267 55.496H63.1767C63.4295 55.496 63.6719 55.3963 63.8506 55.2188C64.0294 55.0414 64.1298 54.8007 64.1298 54.5497V39.4091C64.1298 39.1582 64.0294 38.9175 63.8506 38.74C63.6719 38.5626 63.4295 38.4629 63.1767 38.4629ZM54.5986 53.6034H48.8798V47.9257H54.5986V53.6034ZM54.5986 46.0331H48.8798V40.3554H54.5986V46.0331ZM62.2235 53.6034H56.5048V47.9257H62.2235V53.6034ZM62.2235 46.0331H56.5048V40.3554H62.2235V46.0331ZM70.8016 55.496H74.6141C74.8669 55.496 75.1093 55.3963 75.2881 55.2188C75.4668 55.0414 75.5672 54.8007 75.5672 54.5497V50.7646C75.5672 50.5136 75.4668 50.2729 75.2881 50.0954C75.1093 49.918 74.8669 49.8183 74.6141 49.8183H70.8016C70.5489 49.8183 70.3064 49.918 70.1277 50.0954C69.9489 50.2729 69.8485 50.5136 69.8485 50.7646V54.5497C69.8485 54.8007 69.9489 55.0414 70.1277 55.2188C70.3064 55.3963 70.5489 55.496 70.8016 55.496ZM71.7548 51.7109H73.661V53.6034H71.7548V51.7109ZM78.4266 55.496H82.2391C82.4919 55.496 82.7343 55.3963 82.9131 55.2188C83.0918 55.0414 83.1922 54.8007 83.1922 54.5497V50.7646C83.1922 50.5136 83.0918 50.2729 82.9131 50.0954C82.7343 49.918 82.4919 49.8183 82.2391 49.8183H78.4266C78.1738 49.8183 77.9314 49.918 77.7527 50.0954C77.5739 50.2729 77.4735 50.5136 77.4735 50.7646V54.5497C77.4735 54.8007 77.5739 55.0414 77.7527 55.2188C77.9314 55.3963 78.1738 55.496 78.4266 55.496ZM79.3797 51.7109H81.286V53.6034H79.3797V51.7109Z" fill="#D6373E"/>
</g>
<defs>
<clipPath id="clip0_590_12555">
<rect width="135" height="110" fill="white" transform="translate(0.5)"/>
</clipPath>
</defs>
</svg>
