<svg width="136" height="110" viewBox="0 0 136 110" fill="none" xmlns="http://www.w3.org/2000/svg">
<g clip-path="url(#clip0_590_12562)">
<path d="M0.5 39C4.82065 39 4.82065 43.0435 9.1413 43.0435C13.4587 43.0435 13.4587 39 17.7794 39C22.1 39 22.1 43.0435 26.4207 43.0435C30.7413 43.0435 30.7413 39 35.0587 39C39.3794 39 39.3794 43.0435 43.7 43.0435M0.5 52.4783C4.82065 52.4783 4.82065 56.5217 9.1413 56.5217C13.4587 56.5217 13.4587 52.4783 17.7794 52.4783C22.1 52.4783 22.1 56.5217 26.4207 56.5217C30.7413 56.5217 30.7413 52.4783 35.0587 52.4783C39.3794 52.4783 39.3794 56.5217 43.7 56.5217M0.5 65.9565C4.82065 65.9565 4.82065 70 9.1413 70C13.4587 70 13.4587 65.9565 17.7794 65.9565C22.1 65.9565 22.1 70 26.4207 70C30.7413 70 30.7413 65.9565 35.0587 65.9565C39.3794 65.9565 39.3794 70 43.7 70" stroke="#DDBC97" stroke-width="2" stroke-miterlimit="10" stroke-linecap="round" stroke-linejoin="round"/>
<path d="M122.794 15.8717C134.566 28.1634 138.705 49.022 133.03 65.1378C127.379 81.2784 111.939 92.6761 95.0367 100.697C78.1345 108.693 59.7701 113.336 46.1889 107.128C32.6324 100.92 23.8344 83.8857 19.4725 65.5847C15.1107 47.3086 15.2098 27.7661 24.7761 15.971C34.3177 4.20082 53.3017 0.153255 72.484 0.00426499C91.6662 -0.144725 111.047 3.58002 122.794 15.8717Z" fill="#FBFBFB"/>
<path d="M100.277 45.6286L98.2773 40.6286C98.2286 40.5067 98.1562 40.3955 98.0645 40.3015C97.9728 40.2075 97.8634 40.1325 97.7427 40.0808C97.622 40.0291 97.4923 40.0016 97.361 40C97.2296 39.9984 97.0993 40.0227 96.9773 40.0715L92.8386 41.727C92.3868 40.9874 91.7212 40.4024 90.9297 40.0492C90.7413 39.9655 90.5472 39.8951 90.3489 39.8386V37H94.3488C94.5135 37 94.6755 36.9594 94.8207 36.8817C94.9658 36.804 95.0895 36.6917 95.1808 36.5548L98.8839 31H99.3488C99.614 31 99.8684 30.8946 100.056 30.7071C100.243 30.5196 100.349 30.2652 100.349 30V26C100.349 25.7348 100.243 25.4804 100.056 25.2929C99.8684 25.1054 99.614 25 99.3488 25H41.3491C41.0838 25 40.8295 25.1054 40.642 25.2929C40.4544 25.4804 40.3491 25.7348 40.3491 26V30C40.3491 30.2652 40.4544 30.5196 40.642 30.7071C40.8295 30.8946 41.0838 31 41.3491 31H41.8139L45.517 36.5548C45.6084 36.6917 45.7321 36.804 45.8772 36.8817C46.0224 36.9594 46.1844 37 46.349 37H50.349V39.8386C50.1507 39.8951 49.9565 39.9655 49.768 40.0492C48.9766 40.4024 48.311 40.9874 47.8592 41.727L43.7204 40.0715C43.5985 40.0227 43.4681 39.9984 43.3368 40C43.2055 40.0016 43.0757 40.0291 42.955 40.0808C42.8343 40.1325 42.725 40.2075 42.6332 40.3015C42.5415 40.3955 42.4692 40.5067 42.4204 40.6286L40.4204 45.6286C40.3716 45.7506 40.3474 45.8809 40.349 46.0122C40.3505 46.1436 40.378 46.2733 40.4297 46.394C40.4815 46.5147 40.5565 46.6241 40.6505 46.7158C40.7445 46.8075 40.8556 46.8799 40.9776 46.9286L45.071 48.5661C45.0649 49.7769 45.5222 50.9442 46.349 51.8286V78.8442L40.7352 83.2108C40.5707 83.3387 40.4504 83.5148 40.3909 83.7145C40.3314 83.9142 40.3358 84.1274 40.4034 84.3245C40.471 84.5216 40.5985 84.6926 40.768 84.8137C40.9376 84.9348 41.1407 85 41.3491 85H99.3488C99.5572 85 99.7603 84.9348 99.9299 84.8137C100.099 84.6926 100.227 84.5216 100.294 84.3245C100.362 84.1274 100.366 83.9142 100.307 83.7145C100.248 83.5148 100.127 83.3387 99.9627 83.2108L94.3488 78.8442V52H94.1773C94.6394 51.5559 95.0063 51.0225 95.2556 50.4321C95.5048 49.8417 95.6313 49.2067 95.6273 48.5659L99.7208 46.9284C99.9669 46.8298 100.164 46.6374 100.268 46.3937C100.373 46.15 100.376 45.8748 100.277 45.6286ZM91.409 43.3417C91.4221 43.3777 91.4373 43.413 91.4545 43.4473L93.4273 47.3931C94.0503 49.1784 93.1755 50.5923 91.9774 51.0715C91.9517 51.0818 91.9263 51.0931 91.9016 51.1056L88.8299 52.6415L84.658 43.4635L87.757 41.9135C88.6002 41.5851 89.4354 41.5711 90.113 41.8743C90.7089 42.1414 91.1571 42.6486 91.409 43.3417ZM52.4805 35H48.218L50.349 31.8027L52.4805 35ZM52.218 31H56.4805L54.349 34.1973L52.218 31ZM58.349 31.8027L60.4805 35H56.218L58.349 31.8027ZM60.2175 31H64.48L62.349 34.1973L60.2175 31ZM66.349 31.8027L68.4804 35H64.218L66.349 31.8027ZM68.2174 31H72.4799L70.3489 34.1973L68.2174 31ZM74.3489 31.8027L76.4804 35H72.2179L74.3489 31.8027ZM76.2174 31H80.4799L78.3489 34.1973L76.2174 31ZM82.3489 31.8027L84.4804 35H80.2179L82.3489 31.8027ZM84.2174 31H88.4799L86.3489 34.1973L84.2174 31ZM90.3489 31.8027L92.4803 35H88.2179L90.3489 31.8027ZM94.3488 34.1973L92.2173 31H96.4798L94.3488 34.1973ZM42.3491 27H98.3488V29H42.3491V27ZM44.2175 31H48.48L46.349 34.1973L44.2175 31ZM88.3489 37V39.7064C87.8785 39.7716 87.418 39.8942 86.9775 40.0715C86.9517 40.0818 86.9265 40.0931 86.9016 40.1056L82.9016 42.1056C82.6702 42.2214 82.4926 42.4224 82.4062 42.6663C82.3198 42.9103 82.3314 43.1783 82.4385 43.4139L87.4385 54.4139C87.518 54.5887 87.6461 54.7369 87.8075 54.8408C87.9689 54.9447 88.1569 55 88.3489 55V74.0775C88.3489 75.2373 88.3489 76.6806 89.7239 77.7809C89.7274 77.7838 89.731 77.7865 89.7346 77.7892L91.5471 79.1992L86.9864 83H53.7115L49.1502 79.1992L50.9626 77.7892C50.9663 77.7865 50.9699 77.7838 50.9734 77.7809C52.3484 76.6809 52.3484 75.2373 52.3484 74.0775V55C52.5404 55 52.7283 54.9447 52.8898 54.8408C53.0512 54.7369 53.1793 54.5887 53.2588 54.4139L58.2587 43.4139C58.3659 43.1783 58.3776 42.9104 58.2913 42.6665C58.2051 42.4225 58.0276 42.2215 57.7962 42.1056L53.7963 40.1056C53.7713 40.0931 53.746 40.0818 53.7204 40.0715C53.2799 39.8942 52.8193 39.7716 52.349 39.7064V37H88.3489ZM92.3488 81.135V83H90.1114L92.3488 81.135ZM50.5865 83H48.349V81.135L50.5865 83ZM49.2889 43.3417C49.5408 42.6486 49.9889 42.1418 50.5849 41.8748C51.2625 41.5716 52.0974 41.5857 52.9409 41.914L56.0399 43.464L51.868 52.642L48.7963 51.1056C48.7713 51.0931 48.7463 51.0818 48.7205 51.0715C47.5224 50.5923 46.6475 49.1784 47.2705 47.3931L49.2434 43.4473C49.2605 43.413 49.2757 43.3777 49.2889 43.3417ZM43.9062 42.3L46.9687 43.525L45.4547 46.5527C45.4529 46.5561 45.4518 46.5599 45.45 46.5634L42.6491 45.4429L43.9062 42.3ZM48.349 53.1181L50.349 54.1181V74.0775C50.349 75.3255 50.2634 75.7854 49.7294 76.215L48.349 77.2886V53.1181ZM46.349 81.378V83H44.2635L46.349 81.378ZM96.4343 83H94.3488V81.378L96.4343 83ZM90.9685 76.215C90.4345 75.7854 90.3489 75.3255 90.3489 74.0775V54.1181L92.3488 53.1181V77.2886L90.9685 76.215ZM95.2478 46.5634C95.2461 46.5599 95.245 46.5561 95.2432 46.5527L93.7293 43.525L96.7918 42.3L98.0488 45.4429L95.2478 46.5634Z" fill="#D6373E"/>
<path d="M56.349 64V67.7664C56.0343 68.0472 55.7826 68.3914 55.6103 68.7763C55.4379 69.1612 55.3489 69.5783 55.349 70V75C55.0838 75 54.8294 75.1054 54.6419 75.2929C54.4544 75.4804 54.349 75.7348 54.349 76C54.349 76.2652 54.4544 76.5196 54.6419 76.7071C54.8294 76.8946 55.0838 77 55.349 77H85.3489C85.6141 77 85.8685 76.8946 86.056 76.7071C86.2435 76.5196 86.3489 76.2652 86.3489 76C86.3489 75.7348 86.2435 75.4804 86.056 75.2929C85.8685 75.1054 85.6141 75 85.3489 75V70C85.349 69.5783 85.26 69.1612 85.0876 68.7763C84.9153 68.3914 84.6635 68.0472 84.3489 67.7664V64C84.3474 62.6744 83.8201 61.4035 82.8828 60.4661C81.9454 59.5288 80.6745 59.0015 79.3489 59H61.349C60.0234 59.0015 58.7525 59.5288 57.8151 60.4661C56.8777 61.4035 56.3505 62.6744 56.349 64ZM57.349 75V70C57.3493 69.7349 57.4547 69.4807 57.6422 69.2932C57.8297 69.1057 58.0839 69.0003 58.349 69H59.349V71C59.349 71.2652 59.4543 71.5196 59.6419 71.7071C59.8294 71.8946 60.0838 72 60.349 72H80.3489C80.6141 72 80.8685 71.8946 81.056 71.7071C81.2435 71.5196 81.3489 71.2652 81.3489 71V69H82.3489C82.614 69.0003 82.8682 69.1057 83.0557 69.2932C83.2431 69.4807 83.3486 69.7349 83.3489 70V75H57.349ZM58.349 64C58.3499 63.2046 58.6663 62.4421 59.2287 61.8797C59.7911 61.3173 60.5536 61.0009 61.349 61H79.3489C80.1443 61.0009 80.9068 61.3173 81.4692 61.8797C82.0316 62.4421 82.348 63.2046 82.3489 64V67H80.3489C80.0837 67 79.8293 67.1054 79.6418 67.2929C79.4543 67.4804 79.3489 67.7348 79.3489 68V70H61.349V68C61.349 67.7348 61.2436 67.4804 61.0561 67.2929C60.8686 67.1054 60.6142 67 60.349 67H58.349V64Z" fill="#D6373E"/>
</g>
<defs>
<clipPath id="clip0_590_12562">
<rect width="135" height="110" fill="white" transform="translate(0.5)"/>
</clipPath>
</defs>
</svg>
