<svg width="126" height="111" viewBox="0 0 126 111" fill="none" xmlns="http://www.w3.org/2000/svg">
<path d="M1 39.5C5.0006 39.5 5.0006 43.5435 9.0012 43.5435C12.9988 43.5435 12.9988 39.5 16.9994 39.5C21 39.5 21 43.5435 25.0006 43.5435C29.0012 43.5435 29.0012 39.5 32.9988 39.5C36.9994 39.5 36.9994 43.5435 41 43.5435M1 52.9783C5.0006 52.9783 5.0006 57.0217 9.0012 57.0217C12.9988 57.0217 12.9988 52.9783 16.9994 52.9783C21 52.9783 21 57.0217 25.0006 57.0217C29.0012 57.0217 29.0012 52.9783 32.9988 52.9783C36.9994 52.9783 36.9994 57.0217 41 57.0217M1 66.4565C5.0006 66.4565 5.0006 70.5 9.0012 70.5C12.9988 70.5 12.9988 66.4565 16.9994 66.4565C21 66.4565 21 70.5 25.0006 70.5C29.0012 70.5 29.0012 66.4565 32.9988 66.4565C36.9994 66.4565 36.9994 70.5 41 70.5" stroke="#DDBC97" stroke-width="2" stroke-miterlimit="10" stroke-linecap="round" stroke-linejoin="round"/>
<path d="M114.197 16.3717C125.093 28.6634 128.923 49.522 123.67 65.6378C118.44 81.7784 104.15 93.1761 88.5057 101.197C72.8616 109.193 55.8642 113.836 43.2939 107.628C30.7465 101.42 22.6034 84.3857 18.5662 66.0847C14.529 47.8086 14.6208 28.2661 23.475 16.471C32.3064 4.70082 49.8773 0.653255 67.6317 0.504265C85.3861 0.355275 103.324 4.08002 114.197 16.3717Z" fill="#FBFBFB"/>
<path d="M75.3704 64.3958V52.1699L83.2385 48.8784C83.595 48.7564 83.9242 48.5636 84.2071 48.3111C84.4899 48.0587 84.7208 47.7515 84.8863 47.4075C85.0518 47.0634 85.1487 46.6893 85.1713 46.3069C85.194 45.9244 85.1419 45.5412 85.0182 45.1794C84.8944 44.8176 84.7014 44.4844 84.4504 44.1991C84.1994 43.9138 83.8953 43.6821 83.5558 43.5174C83.2163 43.3527 82.848 43.2582 82.4724 43.2395C82.0968 43.2208 81.7213 43.2782 81.3676 43.4084L74.1896 46.4999H62.8095L55.575 43.3866C55.2813 43.282 54.9722 43.229 54.6611 43.2299C53.9065 43.2308 53.183 43.5366 52.6494 44.0802C52.1158 44.6239 51.8156 45.361 51.8148 46.1299C51.8114 46.7276 51.9911 47.3114 52.3289 47.8C52.6667 48.2886 53.1458 48.6576 53.6993 48.8555L61.6296 52.1699V64.3958L58.2165 80.9129C58.0667 81.6377 58.1878 82.3934 58.556 83.0321C58.9242 83.6708 59.5131 84.1466 60.2074 84.3662C60.9018 84.5859 61.6515 84.5337 62.3101 84.2198C62.9686 83.9059 63.4885 83.353 63.768 82.6691L68.4817 71.1448L72.9607 82.5534C73.2428 83.2726 73.7794 83.8579 74.4644 84.1937C75.1495 84.5294 75.9332 84.5912 76.6607 84.3668C77.3883 84.1425 78.0069 83.6483 78.3942 82.9818C78.7816 82.3154 78.9095 81.5252 78.7528 80.7674L75.3704 64.3958ZM54.3826 46.9813C54.2058 46.9237 54.0518 46.8099 53.943 46.6568C53.8342 46.5036 53.7763 46.319 53.7778 46.1299C53.7784 45.8914 53.8717 45.6629 54.0372 45.4943C54.2027 45.3256 54.427 45.2306 54.6611 45.2299C54.7304 45.2295 54.7994 45.2365 54.8672 45.2509L62.2283 48.4209C62.3494 48.4731 62.4796 48.5 62.6111 48.4999H74.3889C74.5204 48.5 74.6506 48.4731 74.7717 48.4208L82.0609 45.2787C82.1934 45.2341 82.3344 45.2221 82.4723 45.2437C82.6102 45.2653 82.7412 45.3198 82.8545 45.4028C82.9677 45.4858 83.0601 45.595 83.124 45.7214C83.1879 45.8477 83.2216 45.9877 83.2222 46.1299C83.2199 46.33 83.1534 46.5238 83.0329 46.6817C82.9124 46.8397 82.7445 46.9532 82.5548 47.0049L74.0159 50.5749C73.836 50.6503 73.682 50.7785 73.5737 50.9432C73.4654 51.1079 73.4075 51.3016 73.4074 51.4999V63.4998H63.5926V51.4999C63.5926 51.3016 63.5347 51.1077 63.4264 50.943C63.318 50.7783 63.1641 50.65 62.9841 50.5746L54.3826 46.9813ZM76.6155 82.0949C76.4921 82.2331 76.3371 82.338 76.1643 82.4005C75.9915 82.4629 75.8063 82.4809 75.6251 82.4528C75.4438 82.4247 75.2722 82.3515 75.1254 82.2396C74.9786 82.1276 74.8613 81.9805 74.7837 81.8113L69.4115 68.1282C69.3389 67.9438 69.214 67.7857 69.0529 67.6738C68.8918 67.5619 68.7017 67.5013 68.5067 67.4998H68.5C68.3063 67.4998 68.1169 67.5583 67.9557 67.6677C67.7945 67.7772 67.6687 67.9328 67.5942 68.115L61.9555 81.9007C61.8849 82.0492 61.7796 82.1779 61.6488 82.2754C61.5181 82.3729 61.3658 82.4362 61.2054 82.4597C61.0451 82.4833 60.8815 82.4664 60.729 82.4105C60.5765 82.3547 60.4399 82.2616 60.3309 82.1393C60.2411 82.0268 60.177 81.8952 60.1435 81.7542C60.11 81.6132 60.1079 81.4664 60.1373 81.3245L63.4076 65.4998H73.5924L76.8321 81.1798C76.8654 81.3391 76.8633 81.504 76.8258 81.6624C76.7883 81.8208 76.7164 81.9686 76.6155 82.0949Z" fill="#D6373E"/>
<path d="M73.4074 41.4999C73.4074 40.511 73.1196 39.5443 72.5804 38.7221C72.0411 37.8999 71.2747 37.259 70.378 36.8806C69.4813 36.5021 68.4946 36.4031 67.5426 36.596C66.5907 36.789 65.7163 37.2652 65.0299 37.9644C64.3436 38.6637 63.8762 39.5546 63.6869 40.5245C63.4975 41.4944 63.5947 42.4997 63.9661 43.4133C64.3376 44.327 64.9666 45.1079 65.7736 45.6573C66.5806 46.2067 67.5294 46.4999 68.5 46.4999C69.8011 46.4984 71.0484 45.9711 71.9684 45.0337C72.8884 44.0964 73.4059 42.8255 73.4074 41.4999ZM68.5 44.4999C67.9176 44.4999 67.3484 44.324 66.8642 43.9943C66.3799 43.6647 66.0025 43.1962 65.7797 42.648C65.5568 42.0998 65.4985 41.4966 65.6121 40.9147C65.7257 40.3327 66.0062 39.7982 66.418 39.3786C66.8298 38.9591 67.3544 38.6733 67.9256 38.5576C68.4967 38.4418 69.0888 38.5012 69.6268 38.7283C70.1648 38.9554 70.6247 39.3399 70.9482 39.8332C71.2718 40.3266 71.4444 40.9066 71.4444 41.4999C71.4436 42.2953 71.1331 43.0579 70.5811 43.6203C70.0291 44.1827 69.2807 44.499 68.5 44.4999Z" fill="#D6373E"/>
<path d="M87.8191 52.5512C85.8485 53.2256 84.058 54.356 82.5882 55.8536C81.1183 57.3513 80.0089 59.1756 79.3471 61.1834C79.3021 61.309 79.2822 61.4425 79.2887 61.5761C79.2951 61.7096 79.3278 61.8405 79.3848 61.961C79.4418 62.0814 79.5219 62.189 79.6204 62.2774C79.7189 62.3657 79.8338 62.4331 79.9583 62.4754C80.0828 62.5177 80.2143 62.5342 80.3452 62.5238C80.476 62.5134 80.6035 62.4764 80.72 62.4149C80.8366 62.3535 80.9399 62.2688 81.0238 62.166C81.1076 62.0632 81.1704 61.9442 81.2084 61.8162C81.7735 60.1026 82.7205 58.5455 83.9752 57.2672C85.2299 55.989 86.7582 55.0242 88.4402 54.4486C88.6871 54.3647 88.8912 54.1842 89.0076 53.947C89.124 53.7097 89.1431 53.4351 89.0608 53.1835C88.9784 52.9319 88.8013 52.7239 88.5685 52.6053C88.3356 52.4867 88.066 52.4673 87.8191 52.5512Z" fill="#D6373E"/>
<path d="M49.1809 52.5512C49.0586 52.5096 48.9295 52.493 48.8009 52.5023C48.6724 52.5116 48.5468 52.5466 48.4315 52.6053C48.1987 52.7239 48.0216 52.9319 47.9392 53.1835C47.8985 53.3081 47.8822 53.4396 47.8913 53.5706C47.9004 53.7016 47.9347 53.8295 47.9924 53.947C48.05 54.0645 48.1298 54.1692 48.2271 54.2553C48.3245 54.3413 48.4376 54.407 48.5598 54.4486C50.2418 55.0242 51.7701 55.989 53.0248 57.2672C54.2795 58.5455 55.2265 60.1026 55.7916 61.8162C55.8296 61.9442 55.8924 62.0632 55.9762 62.166C56.0601 62.2688 56.1634 62.3535 56.28 62.4149C56.3965 62.4764 56.524 62.5134 56.6548 62.5238C56.7857 62.5342 56.9172 62.5177 57.0417 62.4754C57.1662 62.4331 57.2811 62.3657 57.3796 62.2774C57.4781 62.189 57.5582 62.0814 57.6152 61.961C57.6722 61.8405 57.7049 61.7096 57.7113 61.5761C57.7178 61.4425 57.6979 61.309 57.6529 61.1834C56.9911 59.1756 55.8817 57.3513 54.4118 55.8536C52.942 54.356 51.1515 53.2256 49.1809 52.5512Z" fill="#D6373E"/>
<path d="M44.9444 44.4999C44.3621 44.4999 43.7928 44.6759 43.3086 45.0055C42.8244 45.3352 42.447 45.8037 42.2241 46.3519C42.0013 46.9 41.943 47.5032 42.0566 48.0852C42.1702 48.6671 42.4506 49.2017 42.8624 49.6212C43.2742 50.0408 43.7988 50.3265 44.37 50.4423C44.9412 50.558 45.5332 50.4986 46.0712 50.2715C46.6093 50.0445 47.0691 49.66 47.3927 49.1666C47.7162 48.6733 47.8889 48.0933 47.8889 47.4999C47.888 46.7045 47.5775 45.942 47.0255 45.3796C46.4735 44.8171 45.7251 44.5008 44.9444 44.4999ZM44.9444 48.4999C44.7503 48.4999 44.5606 48.4413 44.3992 48.3314C44.2378 48.2215 44.112 48.0653 44.0377 47.8826C43.9634 47.6999 43.944 47.4988 43.9818 47.3048C44.0197 47.1108 44.1132 46.9327 44.2504 46.7928C44.3877 46.653 44.5626 46.5577 44.753 46.5191C44.9434 46.4805 45.1407 46.5003 45.32 46.576C45.4994 46.6517 45.6527 46.7799 45.7605 46.9443C45.8684 47.1088 45.9259 47.3021 45.9259 47.4999C45.9257 47.7651 45.8222 48.0193 45.6382 48.2067C45.4542 48.3942 45.2047 48.4997 44.9444 48.4999Z" fill="#D6373E"/>
<path d="M92.0556 44.4999C91.4732 44.4999 90.9039 44.6759 90.4197 45.0055C89.9355 45.3352 89.5581 45.8037 89.3352 46.3519C89.1124 46.9 89.0541 47.5032 89.1677 48.0852C89.2813 48.6671 89.5617 49.2017 89.9735 49.6212C90.3853 50.0408 90.91 50.3265 91.4811 50.4423C92.0523 50.558 92.6443 50.4986 93.1823 50.2715C93.7204 50.0445 94.1802 49.66 94.5038 49.1666C94.8273 48.6733 95 48.0933 95 47.4999C94.9991 46.7045 94.6887 45.942 94.1366 45.3796C93.5846 44.8171 92.8362 44.5008 92.0556 44.4999ZM92.0556 48.4999C91.8614 48.4999 91.6717 48.4413 91.5103 48.3314C91.3489 48.2215 91.2231 48.0653 91.1488 47.8826C91.0745 47.6999 91.0551 47.4988 91.0929 47.3048C91.1308 47.1108 91.2243 46.9327 91.3615 46.7928C91.4988 46.653 91.6737 46.5577 91.8641 46.5191C92.0545 46.4805 92.2518 46.5003 92.4312 46.576C92.6105 46.6517 92.7638 46.7799 92.8716 46.9443C92.9795 47.1088 93.037 47.3021 93.037 47.4999C93.0368 47.7651 92.9333 48.0193 92.7493 48.2067C92.5653 48.3942 92.3158 48.4997 92.0556 48.4999Z" fill="#D6373E"/>
<path d="M46.571 38.2612L46.364 39.4899C46.333 39.6739 46.3531 39.863 46.4221 40.0359C46.4911 40.2088 46.6062 40.3585 46.7544 40.4682C46.9026 40.5779 47.078 40.6431 47.2607 40.6566C47.4434 40.67 47.6262 40.631 47.7883 40.5441L48.8704 39.9638L49.9525 40.5438C50.1145 40.6307 50.2973 40.6697 50.4799 40.6562C50.6626 40.6428 50.8379 40.5776 50.9861 40.468C51.1343 40.3583 51.2494 40.2086 51.3185 40.0358C51.3875 39.8629 51.4077 39.6739 51.3768 39.4899L51.1698 38.2615L52.0459 37.3915C52.177 37.2612 52.2697 37.0961 52.3136 36.9149C52.3574 36.7338 52.3506 36.5437 52.294 36.3662C52.2373 36.1888 52.1331 36.031 51.993 35.9108C51.853 35.7905 51.6827 35.7126 51.5014 35.6859L50.2918 35.5072L49.7503 34.39C49.66 34.234 49.5313 34.1048 49.377 34.015C49.2227 33.9252 49.0481 33.878 48.8704 33.878C48.6927 33.878 48.518 33.9252 48.3637 34.015C48.2094 34.1048 48.0808 34.234 47.9905 34.39L47.449 35.5072L46.2393 35.6859C46.0581 35.7126 45.8878 35.7905 45.7477 35.9108C45.6076 36.031 45.5034 36.1888 45.4468 36.3662C45.3901 36.5437 45.3833 36.7338 45.4272 36.9149C45.471 37.0961 45.5638 37.2612 45.6949 37.3915L46.571 38.2612ZM48.8704 37.0415C48.9818 37.1848 49.1296 37.2944 49.2978 37.3584C49.1989 37.5111 49.1426 37.6883 49.1349 37.8711C48.9619 37.8216 48.7789 37.8216 48.6059 37.8711C48.5982 37.6883 48.5418 37.5111 48.4429 37.3584C48.6111 37.2944 48.7589 37.1848 48.8704 37.0415Z" fill="#D6373E"/>
<path d="M85.8302 38.2612L85.6232 39.4899C85.5922 39.6739 85.6124 39.863 85.6814 40.0359C85.7504 40.2088 85.8655 40.3585 86.0137 40.4682C86.1619 40.5779 86.3373 40.6431 86.52 40.6566C86.7027 40.67 86.8854 40.631 87.0475 40.5441L88.1296 39.9638L89.2117 40.5438C89.3738 40.6307 89.5565 40.6697 89.7392 40.6562C89.9219 40.6428 90.0972 40.5776 90.2454 40.468C90.3936 40.3583 90.5087 40.2086 90.5777 40.0358C90.6468 39.8629 90.667 39.6739 90.636 39.4899L90.429 38.2615L91.3051 37.3915C91.4362 37.2612 91.529 37.0961 91.5728 36.9149C91.6167 36.7338 91.6099 36.5437 91.5532 36.3662C91.4966 36.1888 91.3924 36.031 91.2523 35.9108C91.1122 35.7905 90.9419 35.7126 90.7607 35.6859L89.551 35.5072L89.0095 34.39C88.9192 34.234 88.7906 34.1048 88.6363 34.015C88.482 33.9252 88.3073 33.878 88.1296 33.878C87.9519 33.878 87.7773 33.9252 87.623 34.015C87.4687 34.1048 87.34 34.234 87.2497 34.39L86.7082 35.5072L85.4986 35.6859C85.3173 35.7126 85.147 35.7905 85.007 35.9108C84.8669 36.031 84.7627 36.1888 84.706 36.3662C84.6494 36.5437 84.6426 36.7338 84.6864 36.9149C84.7303 37.0961 84.823 37.2612 84.9541 37.3915L85.8302 38.2612ZM88.1296 37.0415C88.2411 37.1848 88.3889 37.2944 88.5571 37.3584C88.4582 37.5111 88.4018 37.6883 88.3941 37.8711C88.2211 37.8216 88.0381 37.8216 87.8651 37.8711C87.8574 37.6883 87.8011 37.5111 87.7022 37.3584C87.8704 37.2944 88.0182 37.1848 88.1296 37.0415Z" fill="#D6373E"/>
<path d="M78.3148 40.4999C78.5751 40.4999 78.8248 40.3946 79.0088 40.207C79.1929 40.0195 79.2963 39.7652 79.2963 39.4999C79.2933 38.3627 79.5117 37.236 79.9388 36.1853C80.3659 35.1345 80.9932 34.1805 81.7845 33.3784L82.9347 32.207C83.0284 32.1147 83.1032 32.0044 83.1546 31.8824C83.206 31.7604 83.2331 31.6292 83.2342 31.4964C83.2354 31.3636 83.2105 31.2319 83.1612 31.109C83.1118 30.9861 83.039 30.8745 82.9468 30.7806C82.8547 30.6867 82.7451 30.6124 82.6245 30.5622C82.5038 30.5119 82.3746 30.4866 82.2443 30.4877C82.114 30.4889 81.9852 30.5165 81.8654 30.5689C81.7457 30.6213 81.6374 30.6975 81.5468 30.793L80.3966 31.9644C79.4224 32.9517 78.6501 34.1261 78.1243 35.4196C77.5985 36.7131 77.3296 38.0999 77.3333 39.4999C77.3333 39.7652 77.4367 40.0195 77.6208 40.207C77.8049 40.3946 78.0545 40.4999 78.3148 40.4999Z" fill="#D6373E"/>
<path d="M55.2155 33.3784C56.0068 34.1805 56.6341 35.1345 57.0612 36.1853C57.4883 37.236 57.7067 38.3627 57.7037 39.4999C57.7037 39.7652 57.8071 40.0195 57.9912 40.207C58.1752 40.3946 58.4249 40.4999 58.6852 40.4999C58.9455 40.4999 59.1951 40.3946 59.3792 40.207C59.5633 40.0195 59.6667 39.7652 59.6667 39.4999C59.6704 38.0999 59.4015 36.7131 58.8757 35.4196C58.3499 34.1261 57.5776 32.9517 56.6034 31.9644L55.4532 30.793C55.3626 30.6975 55.2543 30.6213 55.1346 30.5689C55.0148 30.5165 54.886 30.4889 54.7557 30.4877C54.6254 30.4866 54.4962 30.5119 54.3755 30.5622C54.2549 30.6124 54.1453 30.6867 54.0532 30.7806C53.961 30.8745 53.8882 30.9861 53.8388 31.109C53.7895 31.2319 53.7646 31.3636 53.7658 31.4964C53.7669 31.6292 53.794 31.7604 53.8454 31.8824C53.8968 32.0044 53.9716 32.1147 54.0654 32.207L55.2155 33.3784Z" fill="#D6373E"/>
<path d="M68.5 34.5C68.7603 34.5 69.01 34.3946 69.194 34.2071C69.3781 34.0195 69.4815 33.7652 69.4815 33.5V28.5C69.4815 28.2348 69.3781 27.9804 69.194 27.7929C69.01 27.6054 68.7603 27.5 68.5 27.5C68.2397 27.5 67.9901 27.6054 67.806 27.7929C67.6219 27.9804 67.5185 28.2348 67.5185 28.5V33.5C67.5185 33.7652 67.6219 34.0195 67.806 34.2071C67.9901 34.3946 68.2397 34.5 68.5 34.5Z" fill="#D6373E"/>
</svg>
