<svg width="126" height="111" viewBox="0 0 126 111" fill="none" xmlns="http://www.w3.org/2000/svg">
<path d="M1 39.5C5.0006 39.5 5.0006 43.5435 9.0012 43.5435C12.9988 43.5435 12.9988 39.5 16.9994 39.5C21 39.5 21 43.5435 25.0006 43.5435C29.0012 43.5435 29.0012 39.5 32.9988 39.5C36.9994 39.5 36.9994 43.5435 41 43.5435M1 52.9783C5.0006 52.9783 5.0006 57.0217 9.0012 57.0217C12.9988 57.0217 12.9988 52.9783 16.9994 52.9783C21 52.9783 21 57.0217 25.0006 57.0217C29.0012 57.0217 29.0012 52.9783 32.9988 52.9783C36.9994 52.9783 36.9994 57.0217 41 57.0217M1 66.4565C5.0006 66.4565 5.0006 70.5 9.0012 70.5C12.9988 70.5 12.9988 66.4565 16.9994 66.4565C21 66.4565 21 70.5 25.0006 70.5C29.0012 70.5 29.0012 66.4565 32.9988 66.4565C36.9994 66.4565 36.9994 70.5 41 70.5" stroke="#DDBC97" stroke-width="2" stroke-miterlimit="10" stroke-linecap="round" stroke-linejoin="round"/>
<path d="M114.197 16.3717C125.093 28.6634 128.923 49.522 123.67 65.6378C118.44 81.7784 104.15 93.1761 88.5057 101.197C72.8616 109.193 55.8642 113.836 43.2939 107.628C30.7465 101.42 22.6034 84.3857 18.5662 66.0847C14.529 47.8086 14.6208 28.2661 23.475 16.471C32.3064 4.70082 49.8773 0.653255 67.6317 0.504265C85.3861 0.355275 103.324 4.08002 114.197 16.3717Z" fill="#FBFBFB"/>
<g clip-path="url(#clip0_1057_24474)">
<mask id="path-3-inside-1_1057_24474" fill="white">
<path d="M41.2285 51.0866C42.5608 51.0866 42.563 49.0866 41.2285 49.0866C39.8963 49.0866 39.8941 51.0866 41.2285 51.0866Z"/>
</mask>
<path d="M41.2285 51.0866C42.5608 51.0866 42.563 49.0866 41.2285 49.0866C39.8963 49.0866 39.8941 51.0866 41.2285 51.0866Z" fill="#D6373E"/>
<path d="M41.2285 49.0866C41.0184 49.0866 40.7146 49.1853 40.4835 49.4452C40.2852 49.6683 40.2286 49.9094 40.2285 50.0855C40.2284 50.2617 40.2848 50.5037 40.4839 50.7277C40.7157 50.9886 41.0199 51.0866 41.2285 51.0866V47.0866C42.1043 47.0866 42.9086 47.4347 43.4737 48.0705C44.0061 48.6695 44.2289 49.4115 44.2285 50.0877C44.2281 50.7639 44.0046 51.505 43.4728 52.103C42.9084 52.7379 42.1047 53.0866 41.2285 53.0866V49.0866ZM41.2285 51.0866C41.4387 51.0866 41.7425 50.9878 41.9735 50.728C42.1719 50.5049 42.2284 50.2638 42.2285 50.0877C42.2286 49.9116 42.1723 49.6696 41.9732 49.4456C41.7413 49.1847 41.4371 49.0866 41.2285 49.0866V53.0866C40.3526 53.0866 39.5483 52.7385 38.9832 52.1027C38.4509 51.5036 38.2281 50.7616 38.2285 50.0855C38.2289 49.4094 38.4524 48.6684 38.9841 48.0703C39.5485 47.4354 40.3522 47.0866 41.2285 47.0866V51.0866Z" fill="#D6373E" mask="url(#path-3-inside-1_1057_24474)"/>
<path d="M51.5885 57.7549C43.4971 57.7549 36.9375 64.3156 36.9375 72.4086C36.9375 80.1704 43.8196 87.0625 51.5885 87.0625C59.68 87.0625 66.2395 80.5018 66.2395 72.4086C66.2395 64.3156 59.68 57.7549 51.5885 57.7549Z" stroke="#D6373E" stroke-width="2" stroke-miterlimit="10" stroke-linecap="round" stroke-linejoin="round"/>
<path d="M44.5566 68.9678C44.5566 67.7888 45.5123 66.8329 46.691 66.8329C47.8699 66.8329 48.8255 67.7888 48.8255 68.9678" stroke="#D6373E" stroke-width="2" stroke-miterlimit="10" stroke-linecap="round" stroke-linejoin="round"/>
<path d="M54.4033 68.9678C54.4033 67.7888 55.3589 66.8329 56.5377 66.8329C57.7166 66.8329 58.6722 67.7888 58.6722 68.9678" stroke="#D6373E" stroke-width="2" stroke-miterlimit="10" stroke-linecap="round" stroke-linejoin="round"/>
<path d="M46.6741 81.3017C48.1383 82.1137 49.822 82.5776 51.6145 82.5776C57.2498 82.5776 61.818 78.0085 61.818 72.3721H41.4111C41.4111 74.4272 42.0205 76.3388 43.0655 77.9405" stroke="#D6373E" stroke-width="2" stroke-miterlimit="10" stroke-linecap="round" stroke-linejoin="round"/>
<path d="M70.197 27.4617C67.8525 25.8684 65.0219 24.9376 61.9738 24.9376C53.8821 24.9376 47.3228 31.4982 47.3228 39.5913C47.3228 47.3529 54.2048 54.2452 61.9738 54.2452C65.5158 54.2452 68.764 52.9881 71.2973 50.8956" stroke="#D6373E" stroke-width="2" stroke-miterlimit="10" stroke-linecap="round" stroke-linejoin="round"/>
<path d="M76.4487 41.8684C76.5645 41.1264 76.6245 40.3659 76.6245 39.5914C76.6245 36.3759 75.5891 33.4022 73.8335 30.9859" stroke="#D6373E" stroke-width="2" stroke-miterlimit="10" stroke-linecap="round" stroke-linejoin="round"/>
<path d="M61.5685 42.4242C62.543 42.4322 63.3265 43.2166 63.3188 44.1762C63.3131 44.8522 62.916 45.4345 62.3414 45.717C62.9114 46.0088 63.2989 46.5975 63.2934 47.2735C63.2854 48.2331 62.4891 49.0046 61.5146 48.9966" stroke="#D6373E" stroke-width="2" stroke-miterlimit="10" stroke-linecap="round" stroke-linejoin="round"/>
<path d="M76.049 41.8419C74.812 41.8419 73.7408 42.5598 73.215 43.6076C72.6895 42.5598 71.6184 41.8417 70.3814 41.8416C68.6254 41.8414 67.2019 43.2873 67.2017 45.0711C67.2014 49.4277 73.2144 51.7657 73.2144 51.7657C73.2144 51.7657 79.2279 49.4286 79.2283 45.0721C79.2284 43.2882 77.805 41.8421 76.049 41.8419Z" stroke="#D6373E" stroke-width="2" stroke-miterlimit="10" stroke-linecap="round" stroke-linejoin="round"/>
<path d="M54.916 37.2152C54.916 36.0362 55.8716 35.0804 57.0504 35.0804C58.2293 35.0804 59.1849 36.0362 59.1849 37.2152" stroke="#D6373E" stroke-width="2" stroke-miterlimit="10" stroke-linecap="round" stroke-linejoin="round"/>
<path d="M64.7627 37.2152C64.7627 36.0362 65.7183 35.0804 66.8971 35.0804C68.0759 35.0804 69.0316 36.0362 69.0316 37.2152" stroke="#D6373E" stroke-width="2" stroke-miterlimit="10" stroke-linecap="round" stroke-linejoin="round"/>
<path d="M98.3857 62.3939C98.8256 63.7874 99.0627 65.2709 99.0627 66.8099C99.0627 74.5715 92.1806 81.4636 84.4117 81.4636C76.3202 81.4636 69.7607 74.9029 69.7607 66.8099C69.7607 65.1431 70.039 63.5414 70.5514 62.0485" stroke="#D6373E" stroke-width="2" stroke-miterlimit="10" stroke-linecap="round" stroke-linejoin="round"/>
<path d="M72.3481 58.4911C74.9914 54.6638 79.4085 52.156 84.4113 52.156C89.4255 52.156 93.8514 54.6755 96.4926 58.5177" stroke="#D6373E" stroke-width="2" stroke-miterlimit="10" stroke-linecap="round" stroke-linejoin="round"/>
<path d="M89.7413 73.3471C86.7953 76.2937 82.0275 76.2937 79.0815 73.3471" stroke="#D6373E" stroke-width="2" stroke-miterlimit="10" stroke-linecap="round" stroke-linejoin="round"/>
<path d="M90.2591 69.2281H93.3372C95.0227 69.2281 96.5028 68.1073 96.96 66.4844L98.5552 61.0878C98.8681 60.0294 98.1057 58.9543 97.0032 58.9046C89.4643 58.5654 84.8403 60.7015 84.8403 60.7015L86.6645 66.5798C87.1531 68.1548 88.6102 69.2281 90.2591 69.2281Z" stroke="#D6373E" stroke-width="2" stroke-miterlimit="10" stroke-linecap="round" stroke-linejoin="round"/>
<path d="M78.5636 69.2281H75.4855C73.7999 69.2281 72.3198 68.1073 71.8628 66.4844L70.2675 61.0878C69.9546 60.0294 70.7169 58.9543 71.8194 58.9046C79.3584 58.5654 83.9823 60.7015 83.9823 60.7015L82.1583 66.5798C81.6695 68.1548 80.2125 69.2281 78.5636 69.2281Z" stroke="#D6373E" stroke-width="2" stroke-miterlimit="10" stroke-linecap="round" stroke-linejoin="round"/>
<path d="M84.9809 60.7015H83.9824" stroke="#D6373E" stroke-width="2" stroke-miterlimit="10" stroke-linecap="round" stroke-linejoin="round"/>
<path d="M74.293 63.2802L75.6266 61.9465" stroke="#D6373E" stroke-width="2" stroke-miterlimit="10" stroke-linecap="round" stroke-linejoin="round"/>
<path d="M76.6787 65.8295L79.6708 62.8373" stroke="#D6373E" stroke-width="2" stroke-miterlimit="10" stroke-linecap="round" stroke-linejoin="round"/>
<path d="M89.167 63.2802L90.5006 61.9465" stroke="#D6373E" stroke-width="2" stroke-miterlimit="10" stroke-linecap="round" stroke-linejoin="round"/>
<path d="M91.5532 65.8295L94.5453 62.8373" stroke="#D6373E" stroke-width="2" stroke-miterlimit="10" stroke-linecap="round" stroke-linejoin="round"/>
<mask id="path-25-inside-2_1057_24474" fill="white">
<path d="M84.0766 34.2653C85.4089 34.2653 85.4111 32.2653 84.0766 32.2653C82.7445 32.2653 82.7422 34.2653 84.0766 34.2653Z"/>
</mask>
<path d="M84.0766 34.2653C85.4089 34.2653 85.4111 32.2653 84.0766 32.2653C82.7445 32.2653 82.7422 34.2653 84.0766 34.2653Z" fill="#D6373E"/>
<path d="M84.0766 32.2653C83.8665 32.2653 83.5627 32.3641 83.3317 32.6239C83.1333 32.847 83.0768 33.0881 83.0767 33.2642C83.0766 33.4404 83.1329 33.6824 83.332 33.9064C83.5639 34.1673 83.8681 34.2653 84.0766 34.2653V30.2653C84.9525 30.2653 85.7568 30.6134 86.3219 31.2492C86.8543 31.8483 87.077 32.5903 87.0767 33.2664C87.0763 33.9426 86.8528 34.6836 86.321 35.2817C85.7566 35.9166 84.9529 36.2653 84.0766 36.2653V32.2653ZM84.0766 34.2653C84.2869 34.2653 84.5907 34.1665 84.8217 33.9067C85.02 33.6836 85.0766 33.4426 85.0767 33.2665C85.0768 33.0904 85.0204 32.8483 84.8213 32.6243C84.5894 32.3634 84.2852 32.2653 84.0766 32.2653V36.2653C83.2008 36.2653 82.3965 35.9173 81.8313 35.2814C81.299 34.6823 81.0763 33.9403 81.0767 33.2641C81.0771 32.588 81.3006 31.847 81.8323 31.2489C82.3967 30.6141 83.2003 30.2653 84.0766 30.2653V34.2653Z" fill="#D6373E" mask="url(#path-25-inside-2_1057_24474)"/>
<mask id="path-27-inside-3_1057_24474" fill="white">
<path d="M90.5952 46.6479C91.9275 46.6479 91.9297 44.6479 90.5952 44.6479C89.263 44.6479 89.2608 46.6479 90.5952 46.6479Z"/>
</mask>
<path d="M90.5952 46.6479C91.9275 46.6479 91.9297 44.6479 90.5952 44.6479C89.263 44.6479 89.2608 46.6479 90.5952 46.6479Z" fill="#D6373E"/>
<path d="M90.5952 44.6479C90.3851 44.6479 90.0813 44.7466 89.8502 45.0065C89.6519 45.2296 89.5953 45.4706 89.5952 45.6468C89.5951 45.823 89.6515 46.065 89.8506 46.289C90.0824 46.5499 90.3866 46.6479 90.5952 46.6479V42.6479C91.471 42.6479 92.2753 42.9959 92.8404 43.6318C93.3728 44.2308 93.5956 44.9728 93.5952 45.649C93.5948 46.3251 93.3713 47.0662 92.8395 47.6643C92.2751 48.2992 91.4714 48.6479 90.5952 48.6479V44.6479ZM90.5952 46.6479C90.8054 46.6479 91.1092 46.5491 91.3402 46.2892C91.5386 46.0661 91.5951 45.8251 91.5952 45.649C91.5953 45.4729 91.539 45.2309 91.3399 45.0069C91.108 44.746 90.8038 44.6479 90.5952 44.6479V48.6479C89.7193 48.6479 88.915 48.2998 88.3499 47.6639C87.8176 47.0649 87.5948 46.3229 87.5952 45.6468C87.5956 44.9707 87.8191 44.2296 88.3508 43.6315C88.9152 42.9967 89.7189 42.6479 90.5952 42.6479V46.6479Z" fill="#D6373E" mask="url(#path-27-inside-3_1057_24474)"/>
<mask id="path-29-inside-4_1057_24474" fill="white">
<path d="M71.3915 85.8125C72.7238 85.8125 72.7261 83.8125 71.3915 83.8125C70.0594 83.8125 70.0572 85.8125 71.3915 85.8125Z"/>
</mask>
<path d="M71.3915 85.8125C72.7238 85.8125 72.7261 83.8125 71.3915 83.8125C70.0594 83.8125 70.0572 85.8125 71.3915 85.8125Z" fill="#D6373E"/>
<path d="M71.3915 83.8125C71.1814 83.8125 70.8777 83.9112 70.6466 84.1711C70.4483 84.3942 70.3917 84.6352 70.3916 84.8114C70.3915 84.9876 70.4479 85.2296 70.647 85.4536C70.8788 85.7145 71.183 85.8125 71.3915 85.8125V81.8125C72.2674 81.8125 73.0717 82.1605 73.6368 82.7964C74.1692 83.3954 74.392 84.1374 74.3916 84.8136C74.3912 85.4898 74.1677 86.2308 73.6359 86.8289C73.0715 87.4638 72.2678 87.8125 71.3915 87.8125V83.8125ZM71.3915 85.8125C71.6018 85.8125 71.9056 85.7137 72.1366 85.4538C72.335 85.2307 72.3915 84.9897 72.3916 84.8136C72.3917 84.6375 72.3354 84.3955 72.1363 84.1715C71.9044 83.9106 71.6002 83.8125 71.3915 83.8125V87.8125C70.5157 87.8125 69.7114 87.4644 69.1463 86.8285C68.614 86.2295 68.3912 85.4875 68.3916 84.8114C68.392 84.1353 68.6155 83.3943 69.1472 82.7962C69.7116 82.1613 70.5153 81.8125 71.3915 81.8125V85.8125Z" fill="#D6373E" mask="url(#path-29-inside-4_1057_24474)"/>
</g>
<defs>
<clipPath id="clip0_1057_24474">
<rect width="64" height="64" fill="white" transform="translate(36 24)"/>
</clipPath>
</defs>
</svg>
