<svg width="126" height="111" viewBox="0 0 126 111" fill="none" xmlns="http://www.w3.org/2000/svg">
<path d="M1 39.5C5.0006 39.5 5.0006 43.5435 9.0012 43.5435C12.9988 43.5435 12.9988 39.5 16.9994 39.5C21 39.5 21 43.5435 25.0006 43.5435C29.0012 43.5435 29.0012 39.5 32.9988 39.5C36.9994 39.5 36.9994 43.5435 41 43.5435M1 52.9783C5.0006 52.9783 5.0006 57.0217 9.0012 57.0217C12.9988 57.0217 12.9988 52.9783 16.9994 52.9783C21 52.9783 21 57.0217 25.0006 57.0217C29.0012 57.0217 29.0012 52.9783 32.9988 52.9783C36.9994 52.9783 36.9994 57.0217 41 57.0217M1 66.4565C5.0006 66.4565 5.0006 70.5 9.0012 70.5C12.9988 70.5 12.9988 66.4565 16.9994 66.4565C21 66.4565 21 70.5 25.0006 70.5C29.0012 70.5 29.0012 66.4565 32.9988 66.4565C36.9994 66.4565 36.9994 70.5 41 70.5" stroke="#DDBC97" stroke-width="2" stroke-miterlimit="10" stroke-linecap="round" stroke-linejoin="round"/>
<path d="M114.197 16.3717C125.093 28.6634 128.923 49.522 123.67 65.6378C118.44 81.7784 104.15 93.1761 88.5057 101.197C72.8616 109.193 55.8642 113.836 43.2939 107.628C30.7465 101.42 22.6034 84.3857 18.5662 66.0847C14.529 47.8086 14.6208 28.2661 23.475 16.471C32.3064 4.70082 49.8773 0.653255 67.6317 0.504265C85.3861 0.355275 103.324 4.08002 114.197 16.3717Z" fill="#FBFBFB"/>
<path d="M72.7477 28.6203C72.7146 28.8118 72.7382 29.0091 72.8153 29.187C72.8924 29.365 73.0197 29.5157 73.181 29.62C73.3423 29.7244 73.5304 29.7778 73.7215 29.7734C73.9127 29.769 74.0982 29.7071 74.2548 29.5954C74.4113 29.4838 74.5318 29.3274 74.601 29.1461C74.6701 28.9648 74.6849 28.7667 74.6434 28.5769C74.6019 28.387 74.506 28.214 74.3678 28.0796C74.2296 27.9452 74.0554 27.8555 73.8671 27.8218C73.7421 27.7995 73.6139 27.8024 73.49 27.8304C73.366 27.8585 73.2488 27.9111 73.1448 27.9852C73.0409 28.0594 72.9523 28.1536 72.8842 28.2626C72.816 28.3715 72.7697 28.4931 72.7477 28.6203Z" fill="#D6373E"/>
<path d="M96.3388 79.6164L91.2001 77.874V72.683H92.1667C93.4481 72.6815 94.6766 72.163 95.5827 71.2413C96.4888 70.3196 96.9985 69.0699 97 67.7664C97 67.5056 96.8982 67.2555 96.7169 67.0711C96.5356 66.8867 96.2897 66.7831 96.0333 66.7831H94.1C93.3469 66.7852 92.6048 66.967 91.9333 67.3139C91.2617 67.6607 90.6795 68.163 90.2334 68.7802C89.7873 68.163 89.2052 67.6607 88.5336 67.3139C87.8621 66.967 87.12 66.7852 86.3668 66.7831H84.4335C84.1772 66.7831 83.9313 66.8867 83.75 67.0711C83.5687 67.2555 83.4669 67.5056 83.4669 67.7664C83.4684 69.0699 83.9781 70.3196 84.8842 71.2413C85.7903 72.163 87.0188 72.6815 88.3001 72.683H89.2668V74.5189L88.2257 74.3871C87.9746 74.3613 87.7235 74.4365 87.5261 74.5965C87.3287 74.7565 87.2007 74.9887 87.1694 75.2435C87.1381 75.4983 87.206 75.7554 87.3586 75.96C87.5111 76.1645 87.7363 76.3002 87.986 76.338L89.2668 76.5013V78.583C89.2667 78.7894 89.3306 78.9907 89.4493 79.1582C89.5679 79.3257 89.7354 79.4509 89.928 79.5162L95.0667 81.2586V82.5163C95.0667 82.7771 95.1685 83.0272 95.3498 83.2116C95.5311 83.396 95.777 83.4996 96.0333 83.4996C96.2897 83.4996 96.5356 83.396 96.7169 83.2116C96.8982 83.0272 97 82.7771 97 82.5163V80.5496C97 80.3432 96.9362 80.1419 96.8175 79.9744C96.6989 79.8069 96.5314 79.6817 96.3388 79.6164ZM94.1 68.7497H94.9014C94.7007 69.3245 94.3302 69.822 93.8406 70.1741C93.351 70.5262 92.7663 70.7156 92.1667 70.7164H91.3654C91.5661 70.1416 91.9366 69.6441 92.4262 69.292C92.9158 68.9399 93.5005 68.7505 94.1 68.7497ZM88.3001 70.7164C87.7006 70.7156 87.1159 70.5262 86.6263 70.1741C86.1367 69.822 85.7662 69.3245 85.5655 68.7497H86.3668C86.9664 68.7505 87.5511 68.9399 88.0407 69.292C88.5303 69.6441 88.9008 70.1416 89.1015 70.7164H88.3001Z" fill="#D6373E"/>
<path d="M84.39 73.8994L83.1237 73.7204L81.4321 70.2788C81.3639 70.1401 81.2644 70.0198 81.1418 69.9277C81.0191 69.8356 80.8768 69.7743 80.7264 69.7488L79.3432 69.5138C80.7046 68.6671 81.7189 67.3479 82.1986 65.7998H83.4669C84.7483 65.7982 85.9767 65.2797 86.8828 64.358C87.7889 63.4363 88.2986 62.1866 88.3001 60.8831C88.3001 60.6224 88.1983 60.3722 88.017 60.1878C87.8357 60.0034 87.5899 59.8998 87.3335 59.8998H85.4002C84.6471 59.902 83.9049 60.0838 83.2334 60.4306C82.5619 60.7775 81.9797 61.2797 81.5336 61.897C81.0875 61.2797 80.5053 60.7775 79.8338 60.4306C79.1622 60.0838 78.4201 59.902 77.667 59.8998H75.7337C75.4773 59.8998 75.2314 60.0034 75.0502 60.1878C74.8689 60.3722 74.767 60.6224 74.767 60.8831C74.7686 62.1866 75.2783 63.4363 76.1844 64.358C77.0904 65.2797 78.3189 65.7982 79.6003 65.7998H80.1175C79.7966 66.5057 79.3083 67.1194 78.6965 67.5858C78.0847 68.0521 77.3685 68.3565 76.6124 68.4715L75.2339 68.6681L73.638 66.2334C73.5492 66.0995 73.4295 65.9899 73.2892 65.9143C73.1489 65.8386 72.9925 65.7993 72.8337 65.7998H72.1571L73.9657 55.3647C73.9913 55.2361 73.9914 55.1035 73.9659 54.9749C73.9404 54.8462 73.8898 54.7241 73.8172 54.6156C73.7445 54.5071 73.6512 54.4145 73.5428 54.3433C73.4345 54.2721 73.3132 54.2237 73.1861 54.2009C73.059 54.1781 72.9288 54.1814 72.803 54.2107C72.6772 54.2399 72.5584 54.2945 72.4537 54.3712C72.349 54.4478 72.2604 54.545 72.1932 54.6571C72.126 54.7691 72.0815 54.8937 72.0624 55.0235L70.1986 65.7998H68.2363L70.653 51.8612L73.5085 52.3735C73.6336 52.3963 73.762 52.3936 73.8861 52.3656C74.0102 52.3375 74.1276 52.2848 74.2315 52.2102L76.1416 50.8532L76.9082 50.9909L76.9314 51.3272C77.004 52.3869 77.4232 53.3913 78.1222 54.1804C78.8212 54.9695 79.7598 55.4979 80.7883 55.6814C80.8439 55.6911 80.9001 55.696 80.9565 55.6961C81.1836 55.6959 81.4034 55.6145 81.5773 55.4659C81.7512 55.3174 81.8682 55.1114 81.9077 54.8839L82.4113 51.9782C82.6764 50.4374 82.3299 48.8526 81.448 47.5713C80.566 46.29 79.2206 45.4167 77.7066 45.1431L74.7806 44.619L75.8304 33.7434C76.622 33.3204 77.2816 32.6805 77.7345 31.8961C78.1873 31.1117 78.4154 30.2141 78.3929 29.3047C78.3841 29.0451 78.2759 28.7992 78.0913 28.6197C77.9067 28.4402 77.6604 28.3413 77.405 28.344C77.1488 28.3499 76.9054 28.4591 76.7283 28.6476C76.5512 28.836 76.4549 29.0883 76.4606 29.3489C76.4651 29.5429 76.4512 29.7369 76.419 29.9281C76.3362 30.4058 76.1388 30.8554 75.8444 31.2369C75.55 31.6185 75.1677 31.9204 74.7312 32.1157C74.2948 32.3111 73.8177 32.394 73.3422 32.357C72.8668 32.3201 72.4076 32.1644 72.0054 31.9039C71.6032 31.6433 71.2704 31.2858 71.0364 30.8632C70.8024 30.4405 70.6745 29.9657 70.6639 29.4807C70.6534 28.9958 70.7606 28.5157 70.976 28.0829C71.1915 27.6502 71.5085 27.2782 71.899 26.9998C72.3366 26.6792 72.8556 26.4935 73.3942 26.4647C73.9327 26.436 74.468 26.5654 74.9362 26.8375C75.048 26.9033 75.1716 26.9455 75.2997 26.9619C75.4278 26.9782 75.5578 26.9683 75.6821 26.9326C75.8064 26.897 75.9223 26.8364 76.0232 26.7545C76.1241 26.6725 76.2078 26.5708 76.2694 26.4554C76.331 26.34 76.3693 26.2132 76.3819 26.0825C76.3946 25.9518 76.3813 25.8198 76.343 25.6944C76.3047 25.569 76.2421 25.4526 76.1588 25.3522C76.0756 25.2518 75.9734 25.1694 75.8584 25.1098C75.4051 24.8518 74.9133 24.6711 74.4026 24.5749C73.4611 24.4058 72.4915 24.5245 71.6163 24.9161C70.7412 25.3076 69.9998 25.9544 69.4861 26.7746C68.9723 27.5948 68.7092 28.5515 68.7301 29.5238C68.7509 30.4962 69.0548 31.4403 69.6032 32.237C69.72 32.3933 69.8458 32.5424 69.9802 32.6834L67.0802 44.1539C67.0471 44.2855 67.0411 44.4227 67.0626 44.5568C67.0842 44.6909 67.1328 44.819 67.2055 44.933C67.2782 45.047 67.3733 45.1444 67.4848 45.2192C67.5963 45.2939 67.7219 45.3444 67.8536 45.3673L68.2325 45.4351C67.5112 46.5836 67.2678 47.9765 67.5558 49.3075L66.6191 49.1403L65.2803 47.1953C65.1334 46.9819 64.9091 46.8365 64.6568 46.7911L62.7535 46.4499C62.5413 46.4118 62.3226 46.4469 62.1322 46.5497C61.9418 46.6525 61.7906 46.8171 61.7028 47.0173L61.26 48.0262C61.0793 48.4396 60.8024 48.8021 60.4533 49.0826C60.1043 49.363 59.6934 49.5529 59.2562 49.6359L59.5607 47.8738C59.7389 46.8465 60.3109 45.9334 61.151 45.3352C61.991 44.7369 63.0303 44.5027 64.0401 44.6839C64.1652 44.7063 64.2933 44.7035 64.4173 44.6756C64.5413 44.6477 64.6586 44.5952 64.7627 44.5212C64.8667 44.4471 64.9554 44.3529 65.0236 44.244C65.0919 44.1351 65.1384 44.0136 65.1605 43.8864C65.1826 43.7592 65.1798 43.6288 65.1524 43.5027C65.1249 43.3766 65.0733 43.2572 65.0005 43.1514C64.9277 43.0456 64.8351 42.9554 64.7281 42.8859C64.621 42.8165 64.5016 42.7692 64.3765 42.7467C62.8618 42.4779 61.3042 42.8308 60.0447 43.728C58.7853 44.6252 57.9268 45.9937 57.6573 47.5335L57.1537 50.4393C57.1093 50.696 57.167 50.9602 57.314 51.1737C57.461 51.3872 57.6853 51.5326 57.9377 51.578C58.9661 51.7624 60.0256 51.5916 60.9476 51.0926C61.8695 50.5937 62.6008 49.7953 63.0251 48.8247L63.1605 48.5169L63.927 48.6545L65.0358 50.2652L62.6037 64.3149L61.5935 63.9029C61.3802 63.8161 61.1436 63.8094 60.9259 63.884C60.7082 63.9586 60.5237 64.1096 60.4055 64.31L57.5056 69.2267C57.4571 69.3094 57.4206 69.3988 57.3973 69.4921L56.6124 72.683H51.9937C50.7573 71.3212 49.9646 69.604 49.724 67.7664H50.6008C51.8822 67.7649 53.1106 67.2464 54.0167 66.3246C54.9228 65.4029 55.4325 64.1533 55.434 62.8498C55.434 62.589 55.3322 62.3389 55.1509 62.1545C54.9696 61.9701 54.7238 61.8665 54.4674 61.8665H52.5341C51.781 61.8686 51.0388 62.0504 50.3673 62.3973C49.6958 62.7441 49.1136 63.2463 48.6675 63.8636C48.2214 63.2463 47.6392 62.7441 46.9677 62.3973C46.2961 62.0504 45.554 61.8686 44.8009 61.8665H42.8676C42.6112 61.8665 42.3653 61.9701 42.1841 62.1545C42.0028 62.3389 41.9009 62.589 41.9009 62.8498C41.9025 64.1533 42.4122 65.4029 43.3182 66.3246C44.2243 67.2464 45.4528 67.7649 46.7342 67.7664H47.7714C48.0135 70.0153 48.9344 72.1327 50.4074 73.8276L48.9807 76.7294L46.7342 77.1867V75.633C46.7326 74.3295 46.2229 73.0799 45.3169 72.1582C44.4108 71.2365 43.1823 70.7179 41.9009 70.7164H39.9676C39.7113 70.7164 39.4654 70.82 39.2841 71.0044C39.1028 71.1888 39.001 71.4389 39.001 71.6997C39.0025 73.0032 39.5122 74.2529 40.4183 75.1746C41.3244 76.0963 42.5528 76.6148 43.8342 76.6163H44.8009V77.58L39.7743 78.6026C39.5394 78.6512 39.3305 78.7868 39.1884 78.9831C39.0462 79.1794 38.9808 79.4225 39.0049 79.6651C39.029 79.9077 39.1408 80.1326 39.3187 80.2961C39.4966 80.4595 39.7279 80.5499 39.9676 80.5496C40.0326 80.5501 40.0974 80.5435 40.161 80.53L49.6341 78.6026L54.274 79.5466C54.3376 79.5603 54.4024 79.5669 54.4674 79.5663C54.5712 79.5664 54.6743 79.5494 54.7728 79.5162L57.6728 78.5328C57.7934 78.492 57.9049 78.4275 58.001 78.3428C58.097 78.2582 58.1758 78.1551 58.2327 78.0395C58.2896 77.9239 58.3236 77.798 58.3326 77.6691C58.3417 77.5401 58.3258 77.4106 58.2857 77.2879C58.2455 77.1653 58.1821 77.0518 58.0989 76.9541C58.0156 76.8564 57.9143 76.7763 57.8007 76.7184C57.687 76.6605 57.5633 76.626 57.4365 76.6167C57.3098 76.6075 57.1825 76.6237 57.0619 76.6645L54.4055 77.5652L51.0648 76.8858L52.1648 74.6497H62.2006C62.457 74.6497 62.7028 74.5461 62.8841 74.3617C63.0654 74.1773 63.1672 73.9272 63.1672 73.6664C63.1672 73.4056 63.0654 73.1554 62.8841 72.971C62.7028 72.7866 62.457 72.683 62.2006 72.683H58.6056L59.1315 70.5443L61.9038 69.8383L63.4505 71.4116C63.6328 71.5907 63.877 71.6898 64.1304 71.6876C64.3839 71.6853 64.6263 71.5819 64.8055 71.3996C64.9848 71.2173 65.0864 70.9707 65.0886 70.7128C65.0908 70.455 64.9934 70.2066 64.8173 70.0212L62.884 68.0545C62.7659 67.9344 62.6193 67.8474 62.4583 67.8021C62.2974 67.7568 62.1277 67.7547 61.9657 67.7959L60.3639 68.203L61.639 66.0397L65.7076 67.6956C65.822 67.742 65.944 67.7661 66.0672 67.7664H72.3166L73.9599 70.2788C74.0332 70.3905 74.1282 70.4857 74.2391 70.5586C74.35 70.6315 74.4744 70.6805 74.6046 70.7026L79.9212 71.6043L80.7999 73.391L75.87 72.6929C75.7213 72.6702 75.5695 72.6836 75.4269 72.732C75.2842 72.7803 75.1549 72.8623 75.0493 72.9711L70.5002 77.5997H66.7641L66.4413 76.6163H68.0005C69.2819 76.6148 70.5103 76.0963 71.4164 75.1746C72.3225 74.2529 72.8322 73.0032 72.8337 71.6997C72.8337 71.4389 72.7319 71.1888 72.5506 71.0044C72.3693 70.82 72.1235 70.7164 71.8671 70.7164H69.9338C68.8189 70.7182 67.7388 71.1113 66.8759 71.8293C66.0129 72.5474 65.42 73.5463 65.1972 74.6575C65.0366 74.6397 64.8742 74.6634 64.7249 74.7263C64.5757 74.7893 64.4444 74.8895 64.3434 75.0177C64.2423 75.1459 64.1746 75.298 64.1466 75.4598C64.1186 75.6217 64.1312 75.7881 64.1832 75.9437L65.1498 78.8937C65.214 79.0896 65.3371 79.26 65.5017 79.3807C65.6664 79.5014 65.8642 79.5663 66.0672 79.5663H70.5611L75.1295 83.2842C75.2287 83.365 75.3425 83.4251 75.4644 83.4611C75.5864 83.4971 75.7141 83.5082 75.8403 83.494C75.9665 83.4798 76.0888 83.4404 76.2 83.378C76.3112 83.3157 76.4093 83.2317 76.4886 83.1308C76.5833 83.0073 76.647 82.8622 76.6743 82.708C76.7015 82.5538 76.6916 82.3952 76.6452 82.2459L79.8352 79.6538L83.2368 80.5191C83.4848 80.5804 83.7465 80.5395 83.9649 80.4052C84.1833 80.271 84.3407 80.0544 84.4027 79.8026C84.4647 79.5508 84.4263 79.2842 84.2959 79.0611C84.1655 78.838 83.9537 78.6764 83.7066 78.6115L79.84 77.6282C79.6955 77.5919 79.5447 77.5898 79.3993 77.622C79.2538 77.6542 79.1176 77.7199 79.001 77.814L75.2504 80.8643L72.3504 78.5043L76.0788 74.7126L82.3833 75.6281L84.1532 75.8533C84.4043 75.8791 84.6554 75.8039 84.8528 75.6439C85.0502 75.4839 85.1783 75.2517 85.2096 74.9969C85.2409 74.7421 85.173 74.485 85.0204 74.2804C84.8678 74.0759 84.6426 73.9402 84.3929 73.9024L84.39 73.8994ZM85.4002 61.8665H86.2015C86.0009 62.4412 85.6304 62.9388 85.1408 63.2909C84.6512 63.643 84.0665 63.8324 83.4669 63.8331H82.6655C82.8662 63.2584 83.2367 62.7608 83.7263 62.4087C84.2159 62.0566 84.8006 61.8672 85.4002 61.8665ZM76.8656 61.8665H77.667C78.2666 61.8672 78.8513 62.0566 79.3409 62.4087C79.8305 62.7608 80.201 63.2584 80.4016 63.8331H79.6003C79.0007 63.8324 78.416 63.643 77.9264 63.2909C77.4368 62.9388 77.0663 62.4412 76.8656 61.8665ZM43.8342 74.6497C43.2346 74.6489 42.65 74.4595 42.1604 74.1074C41.6708 73.7553 41.3002 73.2578 41.0996 72.683H41.9009C42.5005 72.6838 43.0852 72.8732 43.5748 73.2253C44.0644 73.5774 44.4349 74.0749 44.6356 74.6497H43.8342ZM52.5341 63.8331H53.3354C53.1348 64.4079 52.7642 64.9054 52.2746 65.2575C51.785 65.6096 51.2004 65.799 50.6008 65.7998H49.7994C50.0001 65.225 50.3706 64.7275 50.8602 64.3754C51.3498 64.0233 51.9345 63.8339 52.5341 63.8331ZM46.7342 65.7998C46.1346 65.799 45.5499 65.6096 45.0603 65.2575C44.5707 64.9054 44.2002 64.4079 43.9995 63.8331H44.8009C45.4005 63.8339 45.9851 64.0233 46.4747 64.3754C46.9643 64.7275 47.3349 65.225 47.5355 65.7998H46.7342ZM69.2156 43.615L69.6989 41.7054L73.0609 42.3082L72.8676 44.2748L69.2156 43.615ZM73.2494 40.3445L70.1793 39.7948L70.6626 37.8842L73.4398 38.3818L73.2494 40.3445ZM73.5626 34.3334C73.6544 34.3334 73.7414 34.3147 73.8313 34.3088L73.6283 36.4181L71.144 35.9726L71.6612 33.9253C72.2592 34.1974 72.9075 34.3365 73.5626 34.3334ZM77.3702 47.0743C77.8703 47.164 78.3482 47.353 78.7765 47.6305C79.2048 47.908 79.5751 48.2686 79.8664 48.6918C80.1577 49.1149 80.3642 49.5923 80.4741 50.0966C80.584 50.6009 80.5952 51.1223 80.507 51.6311L80.2025 53.3922C79.8194 53.1622 79.4971 52.8409 79.2632 52.456C79.0293 52.0711 78.8908 51.6341 78.8598 51.1827L78.7835 50.0813C78.7684 49.8625 78.6818 49.655 78.5375 49.492C78.3932 49.3289 78.1994 49.2197 77.987 49.1816L76.0826 48.8404C75.8304 48.7962 75.5711 48.8544 75.3606 49.0026L73.4495 50.3616L72.5128 50.1934C72.8694 49.6243 73.1121 48.9893 73.2272 48.3247C73.3423 47.6601 73.3275 46.9789 73.1837 46.3201L77.3702 47.0743ZM69.5539 49.2376C69.3735 48.7292 69.3272 48.1815 69.4194 47.6491C69.5117 47.1167 69.7393 46.6182 70.0798 46.2031C70.2219 46.0245 70.4261 45.9084 70.6501 45.8786C70.669 45.8766 70.6881 45.8766 70.7071 45.8786C70.8821 45.9091 71.0619 46.1038 71.1904 46.3968C71.383 46.9023 71.43 47.4532 71.3258 47.9849C71.2449 48.5209 71.0156 49.0223 70.6646 49.4304C70.5915 49.5291 70.4971 49.6093 70.3887 49.6649C70.2802 49.7205 70.1606 49.75 70.0392 49.7509C69.8603 49.7214 69.6805 49.5277 69.5539 49.2347V49.2376ZM64.4384 65.0692L66.8405 51.1777L68.7438 51.519L66.2731 65.7998H66.2528L64.4384 65.0692ZM69.9338 72.683H70.7351C70.5345 73.2578 70.1639 73.7553 69.6744 74.1074C69.1848 74.4595 68.6001 74.6489 68.0005 74.6497H67.1991C67.3998 74.0749 67.7703 73.5774 68.2599 73.2253C68.7495 72.8732 69.3342 72.6838 69.9338 72.683Z" fill="#D6373E"/>
</svg>
