<svg width="126" height="111" viewBox="0 0 126 111" fill="none" xmlns="http://www.w3.org/2000/svg">
<path d="M1 39.5C5.0006 39.5 5.0006 43.5435 9.0012 43.5435C12.9988 43.5435 12.9988 39.5 16.9994 39.5C21 39.5 21 43.5435 25.0006 43.5435C29.0012 43.5435 29.0012 39.5 32.9988 39.5C36.9994 39.5 36.9994 43.5435 41 43.5435M1 52.9783C5.0006 52.9783 5.0006 57.0217 9.0012 57.0217C12.9988 57.0217 12.9988 52.9783 16.9994 52.9783C21 52.9783 21 57.0217 25.0006 57.0217C29.0012 57.0217 29.0012 52.9783 32.9988 52.9783C36.9994 52.9783 36.9994 57.0217 41 57.0217M1 66.4565C5.0006 66.4565 5.0006 70.5 9.0012 70.5C12.9988 70.5 12.9988 66.4565 16.9994 66.4565C21 66.4565 21 70.5 25.0006 70.5C29.0012 70.5 29.0012 66.4565 32.9988 66.4565C36.9994 66.4565 36.9994 70.5 41 70.5" stroke="#DDBC97" stroke-width="2" stroke-miterlimit="10" stroke-linecap="round" stroke-linejoin="round"/>
<path d="M114.197 16.3717C125.093 28.6634 128.923 49.522 123.67 65.6378C118.44 81.7784 104.15 93.1761 88.5057 101.197C72.8616 109.193 55.8642 113.836 43.2939 107.628C30.7465 101.42 22.6034 84.3857 18.5662 66.0847C14.529 47.8086 14.6208 28.2661 23.475 16.471C32.3064 4.70082 49.8773 0.653255 67.6317 0.504265C85.3861 0.355275 103.324 4.08002 114.197 16.3717Z" fill="#FBFBFB"/>
<path d="M100 60.7892V41.9095C100 38.7686 97.4746 36.213 94.3704 36.213C91.2662 36.213 88.7409 38.7686 88.7409 41.9095V45.5697H74.0578L72.7513 34.9936L74.5691 33.6446V26.5H57.657V33.6471L59.4897 34.9959L58.1726 45.5699H47.2591V41.9096C47.2591 38.7687 44.7337 36.2132 41.6295 36.2132C38.5253 36.2132 36 38.7686 36 41.9095V79.8036H36.0089C36.1763 82.9731 38.7771 85.5 41.9506 85.5H94.0494C97.2229 85.5 99.8237 82.9732 99.9911 79.8036H100V62.8174H98.1209V75.5593C97.1241 74.6567 95.8084 74.1072 94.3679 74.1072L90.62 74.1178V41.9095C90.62 39.8169 92.3025 38.1145 94.3705 38.1145C96.4385 38.1145 98.121 39.8169 98.121 41.9095V60.7892H100ZM88.7409 47.4712V65.5348H83.3345C81.9551 65.5348 80.8329 64.3993 80.8329 63.0035C80.8329 60.5593 78.8677 58.5707 76.4521 58.5707H73.9466C72.5672 58.5707 71.445 57.4352 71.445 56.0394V54.7599H76.5735V48.8179H74.459L74.2926 47.4711L88.7409 47.4712ZM74.6944 50.7195V52.8586H57.5317V50.7195H74.6944ZM59.5361 28.4014H62.4174V30.7544H64.2966V28.4014H68.0548V30.7544H69.9339V28.4014H72.69V32.6811L71.4428 33.6065H66.113V35.508H70.921L72.5652 48.818H59.662L61.3199 35.508H64.2496V33.6065H60.7969L59.5361 32.6788V28.4014ZM37.8831 79.641C37.9676 77.6236 39.6154 76.0085 41.6353 76.0085L47.2591 75.9737V65.5428H52.9748C54.5291 65.5428 55.7935 66.8223 55.7935 68.3949C55.7935 71.0161 57.9009 73.1485 60.4913 73.1485H63.357C64.9113 73.1485 66.1757 74.4281 66.1757 76.0007V83.5986H41.9506C39.7594 83.5984 37.9678 81.8377 37.8831 79.641ZM94.3705 76.0085C96.3847 76.0085 98.0324 77.6236 98.1169 79.641C98.0322 81.8377 96.2406 83.5984 94.0494 83.5984H68.0548V76.0006C68.0548 73.3794 65.9474 71.247 63.357 71.247H60.4913C58.937 71.247 57.6726 69.9674 57.6726 68.3948C57.6726 65.7736 55.5652 63.6412 52.9748 63.6412H47.2591V53.1833H45.38V74.0838L41.6295 74.1071C40.1903 74.1071 38.8754 74.6565 37.879 75.5588V41.9095C37.879 39.8169 39.5615 38.1145 41.6295 38.1145C43.6975 38.1145 45.38 39.8169 45.38 41.9095V51.1553H47.2591V47.4713H57.9357L57.768 48.8182H55.6526V54.7601H69.5659V56.0397C69.5659 58.4839 71.5311 60.4724 73.9466 60.4724H76.4521C77.8315 60.4724 78.9538 61.608 78.9538 63.0037C78.9538 65.448 80.9189 67.4365 83.3345 67.4365H88.7409V76.0246L94.3705 76.0085Z" fill="#D6373E"/>
<path d="M76.4482 71.9348H78.3274V75.7377H76.4482V71.9348Z" fill="#D6373E"/>
<path d="M70.6925 63.6334V65.5348H71.1241C72.074 65.5348 73.0061 65.7909 73.8195 66.275L74.7723 64.6362C73.6704 63.9801 72.4088 63.6334 71.1239 63.6334H70.6925Z" fill="#D6373E"/>
<path d="M76.4482 77.6391H78.3274V81.442H76.4482V77.6391Z" fill="#D6373E"/>
<path d="M76.4435 66.0075L75.0562 67.29C75.7843 68.0964 76.2479 69.0918 76.3966 70.1681L78.2576 69.9047C78.056 68.4463 77.4288 67.0987 76.4435 66.0075Z" fill="#D6373E"/>
<path d="M65.1891 58.246V56.9784H63.31V58.246C63.31 59.2298 63.5007 60.1846 63.8768 61.0841L65.6073 60.3433C65.3298 59.6795 65.1891 58.9738 65.1891 58.246Z" fill="#D6373E"/>
<path d="M66.4398 61.7151L65.0027 62.9404C65.9443 64.0711 67.1824 64.8765 68.5832 65.2699L69.0857 63.4378C68.0513 63.1472 67.1363 62.5517 66.4398 61.7151Z" fill="#D6373E"/>
<path d="M65.1108 38.7603H66.99V42.69H65.1108V38.7603Z" fill="#D6373E"/>
<path d="M58.3043 79.6834H56.4251V77.782H58.3043V79.6834ZM54.546 79.6834H52.6669V77.782H54.546V79.6834ZM50.7877 79.6834H48.9086V77.782H50.7877V79.6834Z" fill="#D6373E"/>
</svg>
