<svg width="126" height="111" viewBox="0 0 126 111" fill="none" xmlns="http://www.w3.org/2000/svg">
<path d="M1 39.5C5.0006 39.5 5.0006 43.5435 9.0012 43.5435C12.9988 43.5435 12.9988 39.5 16.9994 39.5C21 39.5 21 43.5435 25.0006 43.5435C29.0012 43.5435 29.0012 39.5 32.9988 39.5C36.9994 39.5 36.9994 43.5435 41 43.5435M1 52.9783C5.0006 52.9783 5.0006 57.0217 9.0012 57.0217C12.9988 57.0217 12.9988 52.9783 16.9994 52.9783C21 52.9783 21 57.0217 25.0006 57.0217C29.0012 57.0217 29.0012 52.9783 32.9988 52.9783C36.9994 52.9783 36.9994 57.0217 41 57.0217M1 66.4565C5.0006 66.4565 5.0006 70.5 9.0012 70.5C12.9988 70.5 12.9988 66.4565 16.9994 66.4565C21 66.4565 21 70.5 25.0006 70.5C29.0012 70.5 29.0012 66.4565 32.9988 66.4565C36.9994 66.4565 36.9994 70.5 41 70.5" stroke="#DDBC97" stroke-width="2" stroke-miterlimit="10" stroke-linecap="round" stroke-linejoin="round"/>
<path d="M114.197 16.3717C125.093 28.6634 128.923 49.522 123.67 65.6378C118.44 81.7784 104.15 93.1761 88.5057 101.197C72.8616 109.193 55.8642 113.836 43.2939 107.628C30.7465 101.42 22.6034 84.3857 18.5662 66.0847C14.529 47.8086 14.6208 28.2661 23.475 16.471C32.3064 4.70082 49.8773 0.653255 67.6317 0.504265C85.3861 0.355275 103.324 4.08002 114.197 16.3717Z" fill="#FBFBFB"/>
<g clip-path="url(#clip0_1067_24473)">
<path d="M68 34.7511C79.4288 34.7511 88.7268 44.031 88.7268 55.4374C88.7268 55.7709 88.7188 56.1087 88.7029 56.4416L90.583 56.5314C90.6004 56.1688 90.6092 55.8008 90.6092 55.4375C90.6092 42.9951 80.4668 32.8726 68 32.8726C67.5796 32.8726 67.1538 32.8843 66.7346 32.9074L66.8383 34.7832C67.2232 34.7619 67.614 34.7511 68 34.7511Z" fill="#D6373E"/>
<path d="M47.585 51.8421L45.731 51.5177C45.6176 52.1637 45.5315 52.8234 45.475 53.4782L47.3505 53.6391C47.4022 53.0388 47.4811 52.4341 47.585 51.8421Z" fill="#D6373E"/>
<path d="M90.6604 58.181C87.0769 61.3713 83.4859 64.0755 78.5296 64.6492C73.1563 65.2712 67.6998 63.369 63.8764 59.553C60.0581 55.7422 58.1373 50.2868 58.7702 44.9285C59.3551 39.9764 62.0501 36.4026 65.251 32.8215C61.5053 33.8059 57.931 34.8504 54.7403 37.1592C50.5738 40.1739 47.5051 44.5957 46.1666 49.5571L47.9842 50.0456C49.6451 43.8892 54.0761 38.8748 59.8605 36.408C54.938 44.101 56.09 54.4461 62.5475 60.8795C69.0064 67.3145 79.3513 68.4809 87.0694 63.5596C83.1512 72.7344 72.8458 77.8861 63.136 75.5464C53.9495 73.3328 47.2732 64.8675 47.2732 55.4374H45.3908C45.3908 67.7234 55.6951 78.0032 68 78.0022C74.0398 78.0017 79.9297 75.5272 84.1575 71.2247C87.7893 67.5286 89.3731 63.06 90.6604 58.181Z" fill="#D6373E"/>
<path d="M92.4706 54.498H100V56.3767H92.4706V54.498Z" fill="#D6373E"/>
<path d="M84.6314 37.5076L89.9547 32.1948L91.2856 33.5231L85.9623 38.836L84.6314 37.5076Z" fill="#D6373E"/>
<path d="M84.6273 73.172L85.9582 71.8436L91.2815 77.1565L89.9506 78.4848L84.6273 73.172Z" fill="#D6373E"/>
<path d="M67.0588 23.5H68.9412V31.0147H67.0588V23.5Z" fill="#D6373E"/>
<path d="M67.0588 79.9853H68.9412V87.5H67.0588V79.9853Z" fill="#D6373E"/>
<path d="M43.5922 78.0442H41.7098V79.9228H39.8275V81.8015H41.7098V83.6802H43.5922V81.8015H45.4745V79.9228H43.5922V78.0442Z" fill="#D6373E"/>
<path d="M47.3569 32.8933H49.2392V31.0147H51.1216V29.136H49.2392V27.2573H47.3569V29.136H45.4745V31.0147H47.3569V32.8933Z" fill="#D6373E"/>
<path d="M41.6471 56.3767V54.498H39.7647V52.6194H37.8824V54.498H36V56.3767H37.8824V58.2554H39.7647V56.3767H41.6471Z" fill="#D6373E"/>
<path d="M45.3908 74.2241H47.2732V76.1027H45.3908V74.2241Z" fill="#D6373E"/>
<path d="M39.8275 34.8224H41.7098V36.701H39.8275V34.8224Z" fill="#D6373E"/>
</g>
<defs>
<clipPath id="clip0_1067_24473">
<rect width="64" height="64" fill="white" transform="translate(36 24)"/>
</clipPath>
</defs>
</svg>
