<svg width="64" height="70" viewBox="0 0 64 70" fill="none" xmlns="http://www.w3.org/2000/svg">
<path d="M2 2C7.95536 2 7.95536 8 13.9062 8C19.8616 8 19.8616 2 25.817 2C31.7723 2 31.7723 8 37.7277 8C43.6786 8 43.6786 2 49.6339 2C55.5893 2 55.5893 8 61.5446 8M2 22C7.95536 22 7.95536 28 13.9062 28C19.8616 28 19.8616 22 25.817 22C31.7723 22 31.7723 28 37.7277 28C43.6786 28 43.6786 22 49.6339 22C55.5893 22 55.5893 28 61.5446 28M2 42C7.95536 42 7.95536 48 13.9062 48C19.8616 48 19.8616 42 25.817 42C31.7723 42 31.7723 48 37.7277 48C43.6786 48 43.6786 42 49.6339 42C55.5893 42 55.5893 48 61.5446 48M2 62C7.95536 62 7.95536 68 13.9062 68C19.8616 68 19.8616 62 25.817 62C31.7723 62 31.7723 68 37.7277 68C43.6786 68 43.6786 62 49.6339 62C55.5893 62 55.5893 68 61.5446 68" stroke="#DDBC97" stroke-width="3" stroke-miterlimit="10" stroke-linecap="round" stroke-linejoin="round"/>
</svg>
