<svg width="576" height="5913" viewBox="0 0 576 5913" fill="none" xmlns="http://www.w3.org/2000/svg">
<path d="M99.9711 0C52.3516 1324.44 51.2092 1907.78 81.3628 2050.18C113.635 2201.6 149.271 2163.49 179.985 1943.88C200.793 1795.47 225.062 1271.08 244.936 1092.59C263.066 929.133 283.936 803.785 304.371 865.958C324.806 929.133 343.309 1241 339.695 1570.92C336.144 1895.82 308.137 2403.16 304.524 2728.06C301.409 3011.85 314.679 3297.64 331.625 3394.91C348.508 3491.18 367.635 3430.01 383.708 3302.66C399.782 3175.31 413.612 2985.78 427.879 2810.29C445.261 2596.7 463.702 2401.15 484.137 2275.81C499.587 2180.54 547.31 2051.03 559.022 2239.55C563.01 2303.73 573.57 2601.66 576 2683.89M362.653 39.0686C332.624 627.704 296.113 2334.97 255.742 2731.07C221.664 3065 179.611 3109.12 143.103 3367.84C103.23 3650.63 15.4506 4520.77 0 5176.59M109.525 5912C241.074 5585.66 196.542 4158.51 208.633 3859.75C222.026 3528.81 237.8 3502.65 256.848 3447.06C261.907 3432.29 297.235 3396.92 312.498 3447.06C323.214 3482.16 333.992 3555.36 340.845 3692.74C347.698 3830.12 349.443 4042.72 342.714 4182.1C340.035 4238.26 336.235 4278.37 332.435 4314.47C317.919 4450.85 237.502 5243.24 266.074 5912M574.411 3018.62C555.845 3043.69 521.767 3089.07 503.824 3168.29C469.621 3318.7 438.969 3670.68 419.033 4142.99C399.096 4615.31 370.54 4790.5 368.754 5912M419.647 5912C458.04 5836.16 467.44 5445.63 471.988 5269.13C477.907 5038.49 484.137 4803.84 489.183 4569.19C493.918 4347.57 497.968 3885.28 510.116 3735.86C528.059 3515.25 553.789 3512.24 574.411 3633.58" stroke="#E7E7E7" stroke-opacity="0.5" stroke-miterlimit="10"/>
</svg>
