<svg width="380" height="6329" viewBox="0 0 380 6329" fill="none" xmlns="http://www.w3.org/2000/svg">
<path d="M65.9532 0C34.5375 1417.63 33.7839 2042.02 53.6768 2194.44C74.9672 2356.52 98.4771 2315.73 118.74 2080.66C132.468 1921.81 148.478 1360.52 161.59 1169.47C173.55 994.512 187.319 860.343 200.8 926.891C214.281 994.512 226.488 1328.32 224.105 1681.45C221.762 2029.22 203.285 2572.26 200.901 2920.02C198.846 3223.78 207.601 3529.68 218.78 3633.8C229.919 3736.84 242.537 3671.37 253.141 3535.05C263.745 3398.74 272.869 3195.87 282.282 3008.04C293.749 2779.41 305.915 2570.11 319.396 2435.94C329.589 2333.97 361.072 2195.35 368.799 2397.14C371.43 2465.83 378.397 2784.73 380 2872.74M239.25 41.8177C219.439 671.873 195.353 2499.27 168.719 2923.24C146.237 3280.67 118.493 3327.9 94.4081 3604.82C68.1033 3907.5 10.1931 4838.87 0 5540.84M72.256 6328C159.042 5978.7 129.663 4451.12 137.64 4131.34C146.476 3777.12 156.882 3749.12 169.448 3689.61C172.786 3673.81 196.092 3635.95 206.162 3689.61C213.232 3727.18 220.342 3805.54 224.863 3952.58C229.384 4099.63 230.535 4327.18 226.096 4476.38C224.329 4536.49 221.822 4579.42 219.315 4618.06C209.738 4764.04 156.686 5612.18 175.535 6328M378.951 3231.03C366.703 3257.87 344.221 3306.43 332.384 3391.22C309.819 3552.23 289.598 3928.97 276.445 4434.52C263.293 4940.06 244.453 5127.59 243.275 6328M276.851 6328C302.179 6246.82 308.381 5828.81 311.381 5639.9C315.286 5393.03 319.396 5141.87 322.725 4890.7C325.849 4653.49 328.52 4158.67 336.535 3998.74C348.372 3762.6 365.347 3759.38 378.951 3889.26" stroke="#E7E7E7" stroke-opacity="0.5" stroke-miterlimit="10"/>
</svg>
