<svg width="992" height="4920" viewBox="0 0 992 4920" fill="none" xmlns="http://www.w3.org/2000/svg">
<path d="M172.172 -14C90.161 1091.12 88.1937 1577.86 140.125 1696.68C195.704 1823.02 257.077 1791.23 309.974 1607.98C345.811 1484.15 387.607 1046.6 421.834 897.66C453.057 761.273 489.001 656.682 524.194 708.559C559.387 761.273 591.254 1021.5 585.031 1296.78C578.915 1567.88 530.681 1991.21 524.458 2262.31C519.093 2499.1 541.947 2737.57 571.131 2818.73C600.209 2899.06 633.148 2848.02 660.831 2741.75C688.513 2635.49 712.333 2477.35 736.903 2330.92C766.839 2152.7 798.598 1989.53 833.791 1884.94C860.401 1805.45 942.589 1697.39 962.761 1854.69C969.628 1908.24 987.815 2156.84 992 2225.45M624.568 18.599C572.852 509.759 509.973 1934.31 440.445 2264.82C381.755 2543.45 309.33 2580.27 246.455 2796.14C177.786 3032.1 26.6093 3758.15 0 4305.37M188.626 4919C415.183 4646.7 338.489 3455.88 359.313 3206.59C382.378 2930.46 409.545 2908.63 442.349 2862.24C451.063 2849.92 511.904 2820.41 538.192 2862.24C556.647 2891.53 575.209 2952.61 587.011 3067.24C598.814 3181.87 601.818 3359.26 590.23 3475.57C585.616 3522.42 579.071 3555.89 572.526 3586.01C547.526 3699.81 409.032 4360.98 458.239 4919M989.263 2504.75C957.289 2525.67 898.598 2563.53 867.697 2629.63C808.791 2755.14 756.002 3048.83 721.667 3442.93C687.333 3837.03 638.151 3983.22 635.076 4919M722.726 4919C788.847 4855.72 805.036 4529.86 812.869 4382.59C823.062 4190.14 833.791 3994.35 842.482 3798.55C850.637 3613.64 857.611 3227.89 878.534 3103.22C909.435 2919.14 953.748 2916.63 989.263 3017.87" stroke="#E7E7E7" stroke-opacity="0.5" stroke-miterlimit="10"/>
</svg>
