<svg width="1920" height="4258" viewBox="0 0 1920 4258" fill="none" xmlns="http://www.w3.org/2000/svg">
<path d="M333.237 1C174.505 954.453 170.697 1374.4 271.209 1476.91C378.782 1585.91 497.569 1558.48 599.949 1400.39C669.311 1293.54 750.207 916.043 816.453 787.545C876.885 669.875 946.454 579.638 1014.57 624.396C1082.69 669.875 1144.36 894.386 1132.32 1131.89C1120.48 1365.78 1027.12 1731.01 1015.08 1964.91C1004.7 2169.21 1048.93 2374.95 1105.42 2444.97C1161.69 2514.27 1225.45 2470.24 1279.03 2378.56C1332.61 2286.88 1378.71 2150.44 1426.26 2024.1C1484.2 1870.34 1545.67 1729.57 1613.79 1639.33C1665.29 1570.75 1824.37 1477.52 1863.41 1613.23C1876.7 1659.44 1911.9 1873.91 1920 1933.11M1208.84 29.1252C1108.75 452.879 987.044 1681.93 852.475 1967.08C738.88 2207.47 598.703 2239.23 477.009 2425.48C344.101 2629.06 51.5019 3255.46 0 3727.58M365.083 4257C803.58 4022.07 655.141 2994.68 695.444 2779.6C740.087 2541.36 792.667 2522.53 856.16 2482.51C873.025 2471.88 990.783 2446.42 1041.66 2482.51C1077.38 2507.78 1113.31 2560.47 1136.15 2659.38C1158.99 2758.28 1164.81 2911.32 1142.38 3011.66C1133.45 3052.09 1120.78 3080.96 1108.12 3106.95C1059.73 3205.13 791.675 3775.56 886.914 4257M1914.7 2174.08C1852.82 2192.13 1739.22 2224.79 1679.41 2281.82C1565.4 2390.11 1463.23 2643.49 1396.78 2983.51C1330.32 3323.52 1235.13 3449.64 1229.18 4257M1398.82 4257C1526.8 4202.4 1558.13 3921.26 1573.29 3794.21C1593.02 3628.17 1613.79 3459.25 1630.61 3290.32C1646.39 3130.78 1659.89 2797.98 1700.39 2690.42C1760.2 2531.6 1845.96 2529.43 1914.7 2616.78" stroke="#E7E7E7" stroke-opacity="0.5" stroke-miterlimit="10"/>
</svg>
