<svg width="768" height="5659" viewBox="0 0 768 5659" fill="none" xmlns="http://www.w3.org/2000/svg">
<path d="M133.295 0C69.8021 1267.54 68.279 1825.82 108.484 1962.1C151.513 2107.01 199.027 2070.54 239.98 1860.37C267.724 1718.33 300.083 1216.47 326.581 1045.65C350.754 889.214 378.582 769.251 405.828 828.753C433.074 889.214 457.745 1187.68 452.927 1503.42C448.192 1814.37 410.85 2299.91 406.032 2610.85C401.879 2882.45 419.572 3155.97 442.166 3249.06C464.678 3341.19 490.179 3282.65 511.611 3160.77C533.042 3038.88 551.483 2857.5 570.506 2689.55C593.682 2485.13 618.27 2297.99 645.516 2178.03C666.117 2086.86 729.746 1962.91 745.363 2143.33C750.679 2204.75 764.76 2489.88 768 2568.58M483.537 37.3901C443.498 600.736 394.818 2234.65 340.99 2613.73C295.552 2933.32 239.481 2975.54 190.804 3223.15C137.64 3493.78 20.6008 4326.54 0 4954.19M146.033 5658C321.432 5345.68 262.056 3979.84 278.177 3693.92C296.035 3377.2 317.067 3352.17 342.464 3298.96C349.21 3284.83 396.313 3250.98 416.665 3298.96C430.952 3332.55 445.323 3402.61 454.46 3534.09C463.598 3665.57 465.924 3869.03 456.952 4002.43C453.38 4056.17 448.313 4094.56 443.246 4129.11C423.891 4259.63 316.67 5017.97 354.766 5658M765.881 2888.93C741.127 2912.93 695.689 2956.35 671.765 3032.16C626.161 3176.12 585.292 3512.98 558.71 3965C532.129 4417.02 494.053 4584.68 491.672 5658M559.53 5658C610.721 5585.42 623.254 5211.66 629.318 5042.75C637.209 4822.02 645.516 4597.45 652.244 4372.88C658.557 4160.79 663.957 3718.35 680.155 3575.36C704.079 3364.22 738.385 3361.34 765.881 3477.47" stroke="#E7E7E7" stroke-opacity="0.5" stroke-miterlimit="10"/>
</svg>
