<svg width="992" height="2383" viewBox="0 0 992 2383" fill="none" xmlns="http://www.w3.org/2000/svg">
<path d="M172.172 -14C90.161 522.765 88.1937 759.181 140.125 816.891C195.704 878.258 257.077 862.815 309.974 773.812C345.811 713.664 387.607 501.141 421.834 428.801C453.057 362.557 489.001 311.756 524.194 336.953C559.387 362.557 591.254 488.949 585.031 622.657C578.915 754.333 530.681 959.946 524.458 1091.62C519.093 1206.63 541.947 1322.46 571.131 1361.88C600.209 1400.9 633.148 1376.11 660.831 1324.49C688.513 1272.88 712.333 1196.07 736.903 1124.95C766.839 1038.38 798.598 959.133 833.791 908.332C860.401 869.724 942.589 817.235 962.761 893.639C969.628 919.649 987.815 1040.39 992 1073.72M624.568 1.83362C572.852 240.394 509.973 932.31 440.445 1092.84C381.755 1228.17 309.33 1246.06 246.455 1350.91C177.786 1465.52 26.6093 1818.17 0 2083.96M188.626 2382C415.183 2249.74 338.489 1671.35 359.313 1550.27C382.378 1416.15 409.545 1405.55 442.349 1383.02C451.063 1377.03 511.904 1362.7 538.192 1383.02C556.647 1397.24 575.209 1426.91 587.011 1482.59C598.814 1538.26 601.818 1624.42 590.23 1680.91C585.616 1703.67 579.071 1719.93 572.526 1734.56C547.526 1789.83 409.032 2110.97 458.239 2382M989.263 1209.38C957.289 1219.54 898.598 1237.93 867.697 1270.03C808.791 1331 756.002 1473.64 721.667 1665.06C687.333 1856.48 638.151 1927.48 635.076 2382M722.726 2382C788.847 2351.26 805.036 2192.99 812.869 2121.46C823.062 2027.99 833.791 1932.89 842.482 1837.79C850.637 1747.97 857.611 1560.62 878.534 1500.06C909.435 1410.65 953.748 1409.43 989.263 1458.61" stroke="#E7E7E7" stroke-opacity="0.5" stroke-miterlimit="10"/>
</svg>
