<svg width="1920" height="2996" viewBox="0 0 1920 2996" fill="none" xmlns="http://www.w3.org/2000/svg">
<path d="M333.237 1C174.505 671.733 170.697 967.154 271.209 1039.27C378.782 1115.95 497.569 1096.65 599.949 985.436C669.311 910.276 750.207 644.712 816.453 554.316C876.885 471.539 946.454 408.059 1014.57 439.545C1082.69 471.539 1144.36 629.477 1132.32 796.556C1120.48 961.095 1027.12 1218.03 1015.08 1382.57C1004.7 1526.28 1048.93 1671.02 1105.42 1720.28C1161.69 1769.03 1225.45 1738.05 1279.03 1673.56C1332.61 1609.06 1378.71 1513.08 1426.26 1424.21C1484.2 1316.04 1545.67 1217.01 1613.79 1153.53C1665.29 1105.29 1824.37 1039.7 1863.41 1135.17C1876.7 1167.67 1911.9 1318.55 1920 1360.2M1208.84 20.7854C1108.75 318.887 987.044 1183.49 852.475 1384.09C738.88 1553.2 598.703 1575.54 477.009 1706.57C344.101 1849.78 51.5019 2290.44 0 2622.57M365.083 2995C803.58 2829.73 655.141 2106.98 695.444 1955.68C740.087 1788.09 792.667 1774.84 856.16 1746.69C873.025 1739.21 990.783 1721.29 1041.66 1746.69C1077.38 1764.46 1113.31 1801.53 1136.15 1871.11C1158.99 1940.68 1164.81 2048.34 1142.38 2118.93C1133.45 2147.37 1120.78 2167.68 1108.12 2185.97C1059.73 2255.03 791.675 2656.32 886.914 2995M1914.7 1529.71C1852.82 1542.41 1739.22 1565.39 1679.41 1605.51C1565.4 1681.68 1463.23 1859.93 1396.78 2099.13C1330.32 2338.32 1235.13 2427.04 1229.18 2995M1398.82 2995C1526.8 2956.59 1558.13 2758.82 1573.29 2669.44C1593.02 2552.63 1613.79 2433.8 1630.61 2314.96C1646.39 2202.73 1659.89 1968.61 1700.39 1892.94C1760.2 1781.22 1845.96 1779.7 1914.7 1841.14" stroke="#E7E7E7" stroke-opacity="0.5" stroke-miterlimit="10"/>
</svg>
