<svg width="380" height="2398" viewBox="0 0 380 2398" fill="none" xmlns="http://www.w3.org/2000/svg">
<path d="M65.9532 0C34.5375 536.989 33.7839 773.504 53.6768 831.238C74.9672 892.631 98.4771 877.181 118.74 788.141C132.468 727.967 148.478 515.356 161.59 442.986C173.55 376.714 187.319 325.892 200.8 351.099C214.281 376.714 226.488 503.159 224.105 636.923C221.762 768.654 203.285 974.353 200.901 1106.08C198.846 1221.14 207.601 1337.02 218.78 1376.46C229.919 1415.49 242.537 1390.69 253.141 1339.05C263.745 1287.42 272.869 1210.57 282.282 1139.42C293.749 1052.82 305.915 973.539 319.396 922.717C329.589 884.093 361.072 831.582 368.799 908.018C371.43 934.039 378.397 1054.83 380 1088.17M239.25 15.8402C219.439 254.501 195.353 946.705 168.719 1107.3C146.237 1242.69 118.493 1260.58 94.4081 1365.48C68.1033 1480.13 10.1931 1832.93 0 2098.83M72.256 2397C159.042 2264.69 129.663 1686.05 137.64 1564.92C146.476 1430.75 156.882 1420.14 169.448 1397.6C172.786 1391.61 196.092 1377.27 206.162 1397.6C213.232 1411.83 220.342 1441.51 224.863 1497.21C229.384 1552.91 230.535 1639.11 226.096 1695.62C224.329 1718.39 221.822 1734.65 219.315 1749.29C209.738 1804.58 156.686 2125.85 175.535 2397M378.951 1223.89C366.703 1234.06 344.221 1252.45 332.384 1284.57C309.819 1345.56 289.598 1488.27 276.445 1679.76C263.293 1871.26 244.453 1942.29 243.275 2397M276.851 2397C302.179 2366.25 308.381 2207.91 311.381 2136.35C315.286 2042.84 319.396 1947.7 322.725 1852.56C325.849 1762.71 328.52 1575.27 336.535 1514.69C348.372 1425.25 365.347 1424.03 378.951 1473.22" stroke="#E7E7E7" stroke-opacity="0.5" stroke-miterlimit="10"/>
</svg>
