<svg width="768" height="2333" viewBox="0 0 768 2333" fill="none" xmlns="http://www.w3.org/2000/svg">
<path d="M133.295 0C69.8021 522.428 68.279 752.529 108.484 808.697C151.513 868.425 199.027 853.394 239.98 766.768C267.724 708.227 300.083 501.381 326.581 430.973C350.754 366.498 378.582 317.054 405.828 341.579C433.074 366.498 457.745 489.515 452.927 619.651C448.192 747.81 410.85 947.931 406.032 1076.09C401.879 1188.03 419.572 1300.76 442.166 1339.13C464.678 1377.1 490.179 1352.98 511.611 1302.74C533.042 1252.51 551.483 1177.75 570.506 1108.52C593.682 1024.27 618.27 947.14 645.516 897.696C666.117 860.118 729.746 809.032 745.363 883.395C750.679 908.71 764.76 1026.23 768 1058.67M483.537 15.4107C443.498 247.599 394.818 921.033 340.99 1077.28C295.552 1208.99 239.481 1226.4 190.804 1328.45C137.64 1440 20.6008 1783.23 0 2041.92M146.033 2332C321.432 2203.28 262.056 1640.33 278.177 1522.49C296.035 1391.95 317.067 1381.63 342.464 1359.7C349.21 1353.87 396.313 1339.92 416.665 1359.7C430.952 1373.54 445.323 1402.42 454.46 1456.61C463.598 1510.8 465.924 1594.66 456.952 1649.64C453.38 1671.79 448.313 1687.61 443.246 1701.85C423.891 1755.65 316.67 2068.21 354.766 2332M765.881 1190.7C741.127 1200.59 695.689 1218.49 671.765 1249.74C626.161 1309.07 585.292 1447.91 558.71 1634.21C532.129 1820.52 494.053 1889.62 491.672 2332M559.53 2332C610.721 2302.09 623.254 2148.04 629.318 2078.42C637.209 1987.44 645.516 1894.89 652.244 1802.33C658.557 1714.91 663.957 1532.56 680.155 1473.62C704.079 1386.6 738.385 1385.41 765.881 1433.27" stroke="#E7E7E7" stroke-opacity="0.5" stroke-miterlimit="10"/>
</svg>
