<svg width="992" height="528" viewBox="0 0 992 528" fill="none" xmlns="http://www.w3.org/2000/svg">
<path d="M819.828 527C901.839 409.163 903.806 357.262 851.875 344.592C796.296 331.12 734.923 334.511 682.026 354.05C646.189 367.254 604.393 413.91 570.166 429.791C538.943 444.334 502.999 455.486 467.806 449.954C432.613 444.334 400.746 416.586 406.969 387.233C413.085 358.326 461.319 313.187 467.542 284.28C472.907 259.031 450.053 233.603 420.869 224.949C391.791 216.384 358.852 221.826 331.169 233.157C303.487 244.488 279.667 261.351 255.097 276.964C225.161 295.968 193.402 313.366 158.209 324.518C131.599 332.994 49.4109 344.517 29.2393 327.744C22.3724 322.034 4.18456 295.526 3.05176e-05 288.21M363.217 526.867C414.933 474.495 482.027 319.254 551.555 284.012C610.245 254.302 682.67 250.377 745.545 227.358C814.214 202.198 965.391 124.78 992 66.4305M803.374 1.00001C576.817 30.0348 653.511 157.011 632.687 183.592C609.622 213.036 582.455 215.363 549.651 220.31C540.937 221.624 480.096 224.771 453.808 220.31C435.353 217.187 416.791 210.674 404.989 198.451C393.186 186.228 390.182 167.313 401.77 154.912C406.384 149.915 412.929 146.347 419.474 143.135C444.474 131.001 582.968 60.5009 533.761 1.00001M2.73732 258.428C34.7114 256.198 93.4021 252.161 124.303 245.113C183.209 231.73 235.998 200.414 270.333 158.391C304.667 116.369 353.849 100.782 356.924 1.00001M269.274 1.00001C203.153 7.74753 186.964 42.4941 179.131 58.1967C168.938 78.7172 158.209 99.5945 149.518 120.472C141.363 140.189 134.389 181.321 113.466 194.614C82.5653 214.243 38.2522 214.51 2.73732 203.715" stroke="#E7E7E7" stroke-opacity="0.5" stroke-miterlimit="10"/>
</svg>
