<svg width="380" height="552" viewBox="0 0 380 552" fill="none" xmlns="http://www.w3.org/2000/svg">
<path d="M314.047 551C345.463 427.786 346.216 373.517 326.323 360.27C305.033 346.183 281.523 349.728 261.26 370.158C247.532 383.965 231.522 432.75 218.41 449.355C206.45 464.562 192.681 476.223 179.2 470.439C165.719 464.562 153.512 435.548 155.895 404.856C158.238 374.63 176.715 327.431 179.099 297.205C181.154 270.804 172.399 244.216 161.22 235.167C150.081 226.211 137.463 231.902 126.859 243.75C116.255 255.598 107.131 273.23 97.7185 289.555C86.2513 309.426 74.0853 327.618 60.6041 339.279C50.4111 348.142 18.9275 360.191 11.2005 342.652C8.57005 336.681 1.60294 308.965 -9.53674e-06 301.315M139.135 550.861C158.946 496.1 184.647 333.775 211.281 296.925C233.763 265.86 261.507 261.755 285.592 237.686C311.897 211.378 369.807 130.428 380 69.4159M307.744 0.999974C220.958 31.3595 250.337 164.129 242.36 191.923C233.524 222.71 223.118 225.144 210.552 230.316C207.214 231.69 183.908 234.981 173.838 230.316C166.768 227.051 159.658 220.241 155.137 207.46C150.616 194.679 149.465 174.902 153.904 161.934C155.671 156.71 158.178 152.978 160.685 149.62C170.262 136.932 223.314 63.2157 204.465 0.999974M1.04855 270.174C13.2967 267.842 35.779 263.621 47.6161 256.251C70.1807 242.257 90.4024 209.512 103.555 165.573C116.707 121.633 135.547 105.334 136.725 0.999974M103.149 0.999974C77.8206 8.05537 71.6192 44.3873 68.6189 60.8064C64.7142 82.2632 60.6041 104.093 57.275 125.923C54.1513 146.54 51.4797 189.548 43.465 203.448C31.6278 223.972 14.653 224.252 1.04855 212.964" stroke="#E7E7E7" stroke-opacity="0.5" stroke-miterlimit="10"/>
</svg>
