<svg width="1920" height="3068" viewBox="0 0 1920 3068" fill="none" xmlns="http://www.w3.org/2000/svg">
<path d="M333.237 1C174.505 687.862 170.697 990.388 271.209 1064.24C378.782 1142.76 497.569 1123 599.949 1009.11C669.311 932.142 750.207 660.192 816.453 567.623C876.885 482.854 946.454 417.848 1014.57 450.091C1082.69 482.854 1144.36 644.59 1132.32 815.687C1120.48 984.184 1027.12 1247.29 1015.08 1415.79C1004.7 1562.96 1048.93 1711.18 1105.42 1761.62C1161.69 1811.55 1225.45 1779.83 1279.03 1713.78C1332.61 1647.73 1378.71 1549.44 1426.26 1458.43C1484.2 1347.66 1545.67 1246.25 1613.79 1181.25C1665.29 1131.84 1824.37 1064.68 1863.41 1162.44C1876.7 1195.73 1911.9 1350.24 1920 1392.88M1208.84 21.2612C1108.75 326.531 987.044 1211.93 852.475 1417.35C738.88 1590.53 598.703 1613.41 477.009 1747.58C344.101 1894.24 51.5019 2345.5 0 2685.61M365.083 3067C803.58 2897.76 655.141 2157.63 695.444 2002.69C740.087 1831.07 792.667 1817.5 856.16 1788.67C873.025 1781.01 990.783 1762.66 1041.66 1788.67C1077.38 1806.87 1113.31 1844.83 1136.15 1916.08C1158.99 1987.33 1164.81 2097.58 1142.38 2169.86C1133.45 2198.99 1120.78 2219.79 1108.12 2238.51C1059.73 2309.24 791.675 2720.18 886.914 3067M1914.7 1566.48C1852.82 1579.48 1739.22 1603.01 1679.41 1644.09C1565.4 1722.1 1463.23 1904.64 1396.78 2149.58C1330.32 2394.53 1235.13 2485.38 1229.18 3067M1398.82 3067C1526.8 3027.67 1558.13 2825.14 1573.29 2733.61C1593.02 2613.99 1613.79 2492.3 1630.61 2370.61C1646.39 2255.68 1659.89 2015.93 1700.39 1938.44C1760.2 1824.03 1845.96 1822.47 1914.7 1885.4" stroke="#E7E7E7" stroke-opacity="0.5" stroke-miterlimit="10"/>
</svg>
