<svg width="1920" height="752" viewBox="0 0 1920 752" fill="none" xmlns="http://www.w3.org/2000/svg">
<path d="M1586.76 751C1745.49 582.981 1749.3 508.977 1648.79 490.913C1541.22 471.704 1422.43 476.538 1320.05 504.398C1250.69 523.226 1169.79 589.75 1103.55 612.394C1043.11 633.13 973.546 649.031 905.43 641.144C837.315 633.13 775.637 593.566 787.682 551.713C799.519 510.495 892.875 446.134 904.92 404.916C915.304 368.915 871.07 332.659 814.584 320.319C758.306 308.106 694.552 315.866 640.973 332.023C587.394 348.179 541.292 372.222 493.736 394.485C435.796 421.581 374.326 446.388 306.21 462.29C254.709 474.375 95.6339 490.805 56.5922 466.889C43.3013 458.748 8.09909 420.952 0 410.52M703 750.811C803.096 676.136 932.956 454.784 1067.53 404.535C1181.12 362.172 1321.3 356.575 1442.99 323.754C1575.9 287.879 1868.5 177.493 1920 94.2945M1554.92 1.00001C1116.42 42.3994 1264.86 223.449 1224.56 261.35C1179.91 303.332 1127.33 306.651 1063.84 313.704C1046.98 315.577 929.217 320.065 878.339 313.704C842.619 309.251 806.693 299.965 783.849 282.536C761.006 265.108 755.191 238.139 777.619 220.456C786.549 213.332 799.217 208.243 811.885 203.664C860.271 186.362 1128.33 85.8397 1033.09 1.00001M5.29797 368.055C67.1833 364.875 180.778 359.119 240.587 349.069C354.597 329.987 456.77 285.335 523.224 225.417C589.678 165.499 684.868 143.274 690.821 1.00001M521.176 1.00001C393.199 10.621 361.866 60.1645 346.706 82.5542C326.977 111.813 306.21 141.582 289.389 171.35C273.606 199.464 260.108 258.111 219.612 277.066C159.804 305.053 74.0364 305.435 5.29797 290.042" stroke="#E7E7E7" stroke-opacity="0.5" stroke-miterlimit="10"/>
</svg>
