<svg width="380" height="2429" viewBox="0 0 380 2429" fill="none" xmlns="http://www.w3.org/2000/svg">
<path d="M65.9532 0C34.5375 543.934 33.7839 783.507 53.6768 841.988C74.9672 904.175 98.4771 888.525 118.74 798.333C132.468 737.382 148.478 522.021 161.59 448.715C173.55 381.586 187.319 330.106 200.8 355.64C214.281 381.586 226.488 509.666 224.105 645.16C221.762 778.594 203.285 986.954 200.901 1120.39C198.846 1236.94 207.601 1354.31 218.78 1394.26C229.919 1433.79 242.537 1408.67 253.141 1356.37C263.745 1304.07 272.869 1226.23 282.282 1154.16C293.749 1066.44 305.915 986.13 319.396 934.651C329.589 895.526 361.072 842.336 368.799 919.761C371.43 946.119 378.397 1068.48 380 1102.25M239.25 16.0451C219.439 257.792 195.353 958.949 168.719 1121.62C146.237 1258.76 118.493 1276.89 94.4081 1383.14C68.1033 1499.28 10.1931 1856.63 0 2125.97M72.256 2428C159.042 2293.98 129.663 1707.86 137.64 1585.16C146.476 1449.25 156.882 1438.51 169.448 1415.67C172.786 1409.61 196.092 1395.08 206.162 1415.67C213.232 1430.09 220.342 1460.15 224.863 1516.57C229.384 1572.99 230.535 1660.3 226.096 1717.55C224.329 1740.61 221.822 1757.08 219.315 1771.91C209.738 1827.92 156.686 2153.35 175.535 2428M378.951 1239.72C366.703 1250.02 344.221 1268.65 332.384 1301.18C309.819 1362.96 289.598 1507.51 276.445 1701.49C263.293 1895.46 244.453 1967.41 243.275 2428M276.851 2428C302.179 2396.85 308.381 2236.46 311.381 2163.98C315.286 2069.26 319.396 1972.89 322.725 1876.52C325.849 1785.51 328.52 1595.65 336.535 1534.28C348.372 1443.68 365.347 1442.44 378.951 1492.27" stroke="#E7E7E7" stroke-opacity="0.5" stroke-miterlimit="10"/>
</svg>
