<svg width="992" height="2717" viewBox="0 0 992 2717" fill="none" xmlns="http://www.w3.org/2000/svg">
<path d="M172.172 -14C90.161 597.59 88.1937 866.962 140.125 932.716C195.704 1002.64 257.077 985.042 309.974 883.632C345.811 815.099 387.607 572.952 421.834 490.527C453.057 415.048 489.001 357.166 524.194 385.876C559.387 415.048 591.254 559.06 585.031 711.406C578.915 861.438 530.681 1095.71 524.458 1245.74C519.093 1376.79 541.947 1508.76 571.131 1553.68C600.209 1598.13 633.148 1569.89 660.831 1511.08C688.513 1452.27 712.333 1364.75 736.903 1283.72C766.839 1185.08 798.598 1094.79 833.791 1036.9C860.401 992.914 942.589 933.108 962.761 1020.16C969.628 1049.8 987.815 1187.38 992 1225.35M624.568 4.04082C572.852 275.857 509.973 1064.23 440.445 1247.13C381.755 1401.33 309.33 1421.71 246.455 1541.18C177.786 1671.76 26.6093 2073.57 0 2376.41M188.626 2716C415.183 2565.31 338.489 1906.29 359.313 1768.33C382.378 1615.51 409.545 1603.43 442.349 1577.76C451.063 1570.94 511.904 1554.61 538.192 1577.76C556.647 1593.97 575.209 1627.77 587.011 1691.21C598.814 1754.65 601.818 1852.82 590.23 1917.18C585.616 1943.11 579.071 1961.63 572.526 1978.3C547.526 2041.28 409.032 2407.18 458.239 2716M989.263 1379.92C957.289 1391.49 898.598 1412.45 867.697 1449.03C808.791 1518.49 756.002 1681.02 721.667 1899.12C687.333 2117.22 638.151 2198.12 635.076 2716M722.726 2716C788.847 2680.98 805.036 2500.64 812.869 2419.14C823.062 2312.64 833.791 2204.28 842.482 2095.93C850.637 1993.59 857.611 1780.12 878.534 1711.12C909.435 1609.25 953.748 1607.86 989.263 1663.89" stroke="#E7E7E7" stroke-opacity="0.5" stroke-miterlimit="10"/>
</svg>
