<svg width="768" height="2589" viewBox="0 0 768 2589" fill="none" xmlns="http://www.w3.org/2000/svg">
<path d="M133.295 0C69.8021 579.778 68.279 835.139 108.484 897.473C151.513 963.758 199.027 947.077 239.98 850.942C267.724 785.974 300.083 556.421 326.581 478.284C350.754 406.731 378.582 351.86 405.828 379.076C433.074 406.731 457.745 543.252 452.927 687.675C448.192 829.902 410.85 1051.99 406.032 1194.22C401.879 1318.45 419.572 1443.56 442.166 1486.14C464.678 1528.28 490.179 1501.5 511.611 1445.75C533.042 1390 551.483 1307.04 570.506 1230.22C593.682 1136.71 618.27 1051.11 645.516 996.242C666.117 954.54 729.746 897.845 745.363 980.372C750.679 1008.47 764.76 1138.89 768 1174.88M483.537 17.1024C443.498 274.78 394.818 1022.14 340.99 1195.54C295.552 1341.71 239.481 1361.03 190.804 1474.28C137.64 1598.08 20.6008 1978.98 0 2266.07M146.033 2588C321.432 2445.14 262.056 1820.4 278.177 1689.62C296.035 1544.75 317.067 1533.3 342.464 1508.96C349.21 1502.5 396.313 1487.01 416.665 1508.96C430.952 1524.33 445.323 1556.37 454.46 1616.51C463.598 1676.65 465.924 1769.71 456.952 1830.73C453.38 1855.31 448.313 1872.87 443.246 1888.68C423.891 1948.38 316.67 2295.25 354.766 2588M765.881 1321.41C741.127 1332.39 695.689 1352.25 671.765 1386.93C626.161 1452.77 585.292 1606.85 558.71 1813.61C532.129 2020.37 494.053 2097.06 491.672 2588M559.53 2588C610.721 2554.8 623.254 2383.84 629.318 2306.58C637.209 2205.62 645.516 2102.9 652.244 2000.18C658.557 1903.17 663.957 1700.79 680.155 1635.39C704.079 1538.81 738.385 1537.5 765.881 1590.61" stroke="#E7E7E7" stroke-opacity="0.5" stroke-miterlimit="10"/>
</svg>
