<svg width="768" height="466" viewBox="0 0 768 466" fill="none" xmlns="http://www.w3.org/2000/svg">
<path d="M634.705 465C698.198 361.052 699.721 315.269 659.516 304.093C616.487 292.209 568.973 295.199 528.02 312.435C500.276 324.084 467.917 365.24 441.419 379.249C417.246 392.078 389.418 401.915 362.172 397.036C334.926 392.078 310.255 367.601 315.073 341.707C319.808 316.208 357.15 276.389 361.968 250.89C366.121 228.617 348.428 206.186 325.834 198.552C303.322 190.996 277.821 195.797 256.389 205.793C234.958 215.788 216.517 230.663 197.494 244.436C174.318 261.2 149.73 276.547 122.484 286.385C101.883 293.862 38.2536 304.026 22.6369 289.23C17.3205 284.193 3.23963 260.81 -1.14441e-05 254.356M281.2 464.883C321.239 418.684 373.182 281.741 427.01 250.653C472.448 224.445 528.519 220.982 577.196 200.677C630.36 178.483 747.399 110.19 768 58.7182M621.967 0.99999C446.568 26.6124 505.944 138.622 489.823 162.07C471.965 188.043 450.933 190.096 425.536 194.459C418.79 195.618 371.687 198.395 351.335 194.459C337.048 191.705 322.677 185.959 313.54 175.177C304.402 164.395 302.076 147.71 311.048 136.77C314.62 132.363 319.687 129.214 324.754 126.381C344.109 115.678 451.33 53.4875 413.234 0.99999M2.11918 228.085C26.8733 226.117 72.3112 222.556 96.2347 216.339C141.839 204.533 182.708 176.909 209.29 139.839C235.871 102.77 273.947 89.0202 276.328 0.99999M208.47 0.99999C157.279 6.95218 144.746 37.6031 138.682 51.4549C130.791 69.5566 122.484 87.9731 115.756 106.39C109.443 123.783 104.043 160.066 87.845 171.793C63.9215 189.108 29.6146 189.344 2.11918 179.821" stroke="#E7E7E7" stroke-opacity="0.5" stroke-miterlimit="10"/>
</svg>
