<svg width="576" height="2533" viewBox="0 0 576 2533" fill="none" xmlns="http://www.w3.org/2000/svg">
<path d="M99.9711 0C52.3516 567.233 51.2092 817.068 81.3628 878.053C113.635 942.904 149.271 926.584 179.985 832.529C200.793 768.967 225.062 544.381 244.936 467.935C263.066 397.931 283.936 344.246 304.371 370.874C324.806 397.93 343.309 531.497 339.695 672.795C336.144 811.944 308.137 1029.23 304.524 1168.38C301.409 1289.92 314.679 1412.32 331.625 1453.98C348.508 1495.21 367.635 1469.01 383.708 1414.47C399.782 1359.92 413.612 1278.75 427.879 1203.6C445.261 1112.12 463.702 1028.37 484.137 974.685C499.587 933.885 547.31 878.417 559.022 959.158C563.01 986.644 573.57 1114.24 576 1149.46M362.653 16.7324C332.624 268.834 296.113 1000.02 255.742 1169.67C221.664 1312.68 179.611 1331.58 143.103 1442.38C103.23 1563.5 15.4506 1936.16 0 2217.04M109.525 2532C241.074 2392.24 196.542 1781.01 208.633 1653.06C222.026 1511.33 237.8 1500.12 256.848 1476.31C261.907 1469.99 297.235 1454.84 312.498 1476.31C323.214 1491.34 333.992 1522.7 340.845 1581.53C347.698 1640.37 349.443 1731.42 342.714 1791.12C340.035 1815.17 336.235 1832.35 332.435 1847.81C317.919 1906.22 237.502 2245.58 266.074 2532M574.411 1292.82C555.845 1303.56 521.767 1322.99 503.824 1356.92C469.621 1421.34 438.969 1572.08 419.033 1774.37C399.096 1976.65 370.54 2051.68 368.754 2532M419.647 2532C458.04 2499.52 467.44 2332.26 471.988 2256.67C477.907 2157.89 484.137 2057.4 489.183 1956.9C493.918 1861.99 497.968 1663.99 510.116 1600C528.059 1505.52 553.789 1504.23 574.411 1556.19" stroke="#E7E7E7" stroke-opacity="0.5" stroke-miterlimit="10"/>
</svg>
