<svg width="576" height="572" viewBox="0 0 576 572" fill="none" xmlns="http://www.w3.org/2000/svg">
<path d="M476.029 571C523.648 443.305 524.791 387.063 494.637 373.334C462.365 358.735 426.729 362.409 396.015 383.582C375.207 397.891 350.938 448.45 331.064 465.659C312.934 481.418 292.064 493.504 271.629 487.51C251.194 481.418 232.691 451.35 236.305 419.542C239.856 388.216 267.863 339.302 271.476 307.976C274.591 280.615 261.321 253.061 244.375 243.682C227.492 234.401 208.365 240.298 192.292 252.577C176.218 264.856 162.388 283.129 148.121 300.048C130.739 320.642 112.298 339.495 91.8631 351.58C76.4125 360.765 28.6902 373.252 16.9776 355.076C12.9904 348.888 2.4297 320.163 -2.28882e-05 312.235M210.9 570.856C240.929 514.103 279.887 345.876 320.258 307.686C354.336 275.491 396.389 271.237 432.897 246.293C472.77 219.028 560.549 135.134 576 71.9038M466.475 1.00001C334.926 32.4636 379.458 170.061 367.367 198.866C353.974 230.773 338.2 233.295 319.152 238.655C314.093 240.079 278.765 243.489 263.502 238.655C252.786 235.271 242.008 228.213 235.155 214.968C228.302 201.722 226.557 181.225 233.286 167.786C235.965 162.372 239.765 158.505 243.565 155.024C258.081 141.875 338.498 65.4781 309.926 1.00001M1.58937 279.962C20.155 277.545 54.2334 273.171 72.176 265.533C106.379 251.03 137.031 217.095 156.967 171.557C176.904 126.02 205.46 109.128 207.246 1.00001M156.353 1.00001C117.96 8.31197 108.56 45.965 104.012 62.9812C98.0932 85.2182 91.8631 107.842 86.8168 130.466C82.0819 151.833 78.0323 196.404 65.8837 210.81C47.9411 232.08 22.2109 232.37 1.58937 220.672" stroke="#E7E7E7" stroke-opacity="0.5" stroke-miterlimit="10"/>
</svg>
