<svg width="992" height="1545" viewBox="0 0 992 1545" fill="none" xmlns="http://www.w3.org/2000/svg">
<path d="M172.172 0C90.161 345.895 88.1937 498.244 140.125 535.432C195.704 574.978 257.077 565.026 309.974 507.672C345.811 468.912 387.607 331.961 421.834 285.344C453.057 242.656 489.001 209.919 524.194 226.157C559.387 242.656 591.254 324.104 585.031 410.266C578.915 495.119 530.681 627.618 524.458 712.471C519.093 786.586 541.947 861.225 571.131 886.629C600.209 911.77 633.148 895.795 660.831 862.535C688.513 829.275 712.333 779.777 736.903 733.946C766.839 678.163 798.598 627.094 833.791 594.358C860.401 569.478 942.589 535.654 962.761 584.889C969.628 601.65 987.815 679.46 992 700.935M624.568 10.2033C572.852 163.934 509.973 609.809 440.445 713.257C381.755 800.466 309.33 811.99 246.455 879.558C177.786 953.411 26.6093 1180.66 0 1351.94M188.626 1544C415.183 1458.77 338.489 1086.05 359.313 1008.03C382.378 921.598 409.545 914.766 442.349 900.247C451.063 896.39 511.904 887.152 538.192 900.247C556.647 909.413 575.209 928.531 587.011 964.411C598.814 1000.29 601.818 1055.81 590.23 1092.21C585.616 1106.88 579.071 1117.36 572.526 1126.78C547.526 1162.4 409.032 1369.34 458.239 1544M989.263 788.355C957.289 794.903 898.598 806.752 867.697 827.441C808.791 866.725 756.002 958.649 721.667 1082C687.333 1205.35 638.151 1251.11 635.076 1544M722.726 1544C788.847 1524.19 805.036 1422.2 812.869 1376.11C823.062 1315.87 833.791 1254.59 842.482 1193.31C850.637 1135.43 857.611 1014.69 878.534 975.672C909.435 918.056 953.748 917.27 989.263 948.959" stroke="#E7E7E7" stroke-opacity="0.5" stroke-miterlimit="10"/>
</svg>
