<svg width="1920" height="1810" viewBox="0 0 1920 1810" fill="none" xmlns="http://www.w3.org/2000/svg">
<path d="M333.237 1C174.505 406.038 170.697 584.436 271.209 627.983C378.782 674.29 497.569 662.637 599.949 595.476C669.311 550.088 750.207 389.721 816.453 335.134C876.885 285.146 946.454 246.812 1014.57 265.826C1082.69 285.146 1144.36 380.521 1132.32 481.416C1120.48 580.777 1027.12 735.931 1015.08 835.292C1004.7 922.08 1048.93 1009.48 1105.42 1039.23C1161.69 1068.67 1225.45 1049.96 1279.03 1011.01C1332.61 972.068 1378.71 914.107 1426.26 860.439C1484.2 795.118 1545.67 735.318 1613.79 696.984C1665.29 667.85 1824.37 628.242 1863.41 685.896C1876.7 705.523 1911.9 796.637 1920 821.784M1208.84 12.9479C1108.75 192.964 987.044 715.077 852.475 836.212C738.88 938.334 598.703 951.827 477.009 1030.95C344.101 1117.43 51.5019 1383.54 0 1584.1M365.083 1809C803.58 1709.2 655.141 1272.75 695.444 1181.38C740.087 1080.18 792.667 1072.18 856.16 1055.18C873.025 1050.66 990.783 1039.84 1041.66 1055.18C1077.38 1065.91 1113.31 1088.3 1136.15 1130.31C1158.99 1172.32 1164.81 1237.34 1142.38 1279.97C1133.45 1297.14 1120.78 1309.41 1108.12 1320.45C1059.73 1362.15 791.675 1604.48 886.914 1809M1914.7 924.152C1852.82 931.819 1739.22 945.694 1679.41 969.921C1565.4 1015.92 1463.23 1123.56 1396.78 1268C1330.32 1412.45 1235.13 1466.02 1229.18 1809M1398.82 1809C1526.8 1785.81 1558.13 1666.37 1573.29 1612.4C1593.02 1541.87 1613.79 1470.1 1630.61 1398.34C1646.39 1330.57 1659.89 1189.19 1700.39 1143.5C1760.2 1076.03 1845.96 1075.11 1914.7 1112.22" stroke="#E7E7E7" stroke-opacity="0.5" stroke-miterlimit="10"/>
</svg>
