<svg width="1920" height="1395" viewBox="0 0 1920 1395" fill="none" xmlns="http://www.w3.org/2000/svg">
<path d="M1586.76 1394C1745.49 1081.93 1749.3 944.484 1648.79 910.932C1541.22 875.254 1422.43 884.232 1320.05 935.978C1250.69 970.947 1169.79 1094.5 1103.55 1136.56C1043.11 1175.08 973.546 1204.61 905.43 1189.96C837.315 1175.08 775.637 1101.59 787.682 1023.86C799.519 947.302 892.875 827.762 904.92 751.207C915.304 684.34 871.07 617.001 814.584 594.082C758.306 571.399 694.552 585.812 640.973 615.819C587.394 645.827 541.292 690.484 493.736 731.832C435.796 782.16 374.326 828.234 306.21 857.769C254.709 880.216 95.6339 910.732 56.5922 866.312C43.3013 851.19 8.09909 780.99 0 761.615M703 1393.65C803.096 1254.95 932.956 843.829 1067.53 750.498C1181.12 671.817 1321.3 661.421 1442.99 600.461C1575.9 533.83 1868.5 328.805 1920 174.279M1554.92 0.999952C1116.42 77.8925 1264.86 414.162 1224.56 484.556C1179.91 562.532 1127.33 568.696 1063.84 581.795C1046.98 585.275 929.217 593.609 878.339 581.795C842.619 573.525 806.693 556.277 783.849 523.907C761.006 491.537 755.191 441.445 777.619 408.603C786.549 395.371 799.217 385.92 811.885 377.414C860.271 345.28 1128.33 158.575 1033.09 0.999952M5.29797 682.744C67.1833 676.837 180.778 666.147 240.587 647.481C354.597 612.039 456.77 529.105 523.224 417.818C589.678 306.53 684.868 265.25 690.821 0.999952M521.176 0.999952C393.199 18.8693 361.866 110.888 346.706 152.473C326.977 206.817 306.21 262.107 289.389 317.396C273.606 369.614 260.108 478.541 219.612 513.747C159.804 565.728 74.0364 566.437 5.29797 537.847" stroke="#E7E7E7" stroke-opacity="0.5" stroke-miterlimit="10"/>
</svg>
