<svg width="1920" height="2544" viewBox="0 0 1920 2544" fill="none" xmlns="http://www.w3.org/2000/svg">
<path d="M1586.76 2543C1745.49 1973.53 1749.3 1722.71 1648.79 1661.48C1541.22 1596.37 1422.43 1612.76 1320.05 1707.18C1250.69 1771 1169.79 1996.47 1103.55 2073.22C1043.11 2143.5 973.546 2197.39 905.43 2170.66C837.315 2143.5 775.637 2009.4 787.682 1867.55C799.519 1727.85 892.875 1509.71 904.92 1370.01C915.304 1247.99 871.07 1125.1 814.584 1083.28C758.306 1041.89 694.552 1068.19 640.973 1122.95C587.394 1177.7 541.292 1259.2 493.736 1334.65C435.796 1426.49 374.326 1510.57 306.21 1564.47C254.709 1605.43 95.6339 1661.11 56.5922 1580.05C43.3013 1552.46 8.09909 1424.36 0 1389M703 2542.36C803.096 2289.26 932.956 1539.03 1067.53 1368.71C1181.12 1225.13 1321.3 1206.16 1442.99 1094.92C1575.9 973.329 1868.5 599.192 1920 317.206M1554.92 0.999985C1116.42 141.316 1264.86 754.954 1224.56 883.412C1179.91 1025.71 1127.33 1036.95 1063.84 1060.86C1046.98 1067.21 929.217 1082.42 878.339 1060.86C842.619 1045.77 806.693 1014.29 783.849 955.22C761.006 896.15 755.191 804.742 777.619 744.809C786.549 720.663 799.217 703.416 811.885 687.894C860.271 629.255 1128.33 288.55 1033.09 0.999985M5.29797 1245.07C67.1833 1234.29 180.778 1214.79 240.587 1180.72C354.597 1116.05 456.77 964.706 523.224 761.625C589.678 558.543 684.868 483.214 690.821 0.999985M521.176 0.999985C393.199 33.6087 361.866 201.528 346.706 277.414C326.977 376.584 306.21 477.478 289.389 578.372C273.606 673.66 260.108 872.435 219.612 936.68C159.804 1031.54 74.0364 1032.83 5.29797 980.659" stroke="#E7E7E7" stroke-opacity="0.5" stroke-miterlimit="10"/>
</svg>
