<svg width="576" height="2054" viewBox="0 0 576 2054" fill="none" xmlns="http://www.w3.org/2000/svg">
<path d="M99.9711 0C52.3516 459.925 51.2092 662.496 81.3628 711.945C113.635 764.527 149.271 751.294 179.985 675.032C200.793 623.495 225.062 441.396 244.936 379.412C263.066 322.651 283.936 279.122 304.371 300.712C324.806 322.651 343.309 430.949 339.695 545.516C336.144 658.342 308.137 834.521 304.524 947.346C301.409 1045.89 314.679 1145.14 331.625 1178.92C348.508 1212.35 367.635 1191.11 383.708 1146.88C399.782 1102.66 413.612 1036.84 427.879 975.901C445.261 901.729 463.702 833.824 484.137 790.296C499.587 757.214 547.31 712.239 559.022 777.706C563.01 799.992 573.57 903.452 576 932.007M362.653 13.567C332.624 217.977 296.113 810.841 255.742 948.391C221.664 1064.35 179.611 1079.67 143.103 1169.52C103.23 1267.72 15.4506 1569.88 0 1797.62M109.525 2053C241.074 1939.68 196.542 1444.08 208.633 1340.34C222.026 1225.42 237.8 1216.33 256.848 1197.03C261.907 1191.9 297.235 1179.61 312.498 1197.03C323.214 1209.21 333.992 1234.63 340.845 1282.34C347.698 1330.05 349.443 1403.87 342.714 1452.28C340.035 1471.78 336.235 1485.71 332.435 1498.24C317.919 1545.6 237.502 1820.77 266.074 2053M574.411 1048.25C555.845 1056.95 521.767 1072.71 503.824 1100.22C469.621 1152.45 438.969 1274.68 419.033 1438.7C399.096 1602.71 370.54 1663.55 368.754 2053M419.647 2053C458.04 2026.66 467.44 1891.05 471.988 1829.76C477.907 1749.67 484.137 1668.18 489.183 1586.7C493.918 1509.74 497.968 1349.2 510.116 1297.32C528.059 1220.71 553.789 1219.66 574.411 1261.8" stroke="#E7E7E7" stroke-opacity="0.5" stroke-miterlimit="10"/>
</svg>
