<svg width="576" height="1997" viewBox="0 0 576 1997" fill="none" xmlns="http://www.w3.org/2000/svg">
<path d="M476.029 1996C523.648 1549.07 524.791 1352.22 494.637 1304.17C462.365 1253.07 426.729 1265.93 396.015 1340.04C375.207 1390.12 350.938 1567.07 331.064 1627.31C312.934 1682.46 292.064 1724.76 271.629 1703.78C251.194 1682.46 232.691 1577.23 236.305 1465.9C239.856 1356.26 267.863 1185.06 271.476 1075.42C274.591 979.653 261.321 883.212 244.375 850.388C227.492 817.903 208.365 838.545 192.292 881.52C176.218 924.496 162.388 988.451 148.121 1047.67C130.739 1119.75 112.298 1185.73 91.8631 1228.03C76.4125 1260.18 28.6902 1303.88 16.9776 1240.27C12.9904 1218.61 2.4297 1118.07 -2.28882e-05 1090.32M210.9 1995.5C240.929 1796.86 279.887 1208.07 320.258 1074.4C354.336 961.719 396.389 946.829 432.897 859.525C472.77 764.099 560.549 470.47 576 249.163M466.475 1.00001C334.926 111.122 379.458 592.714 367.367 693.531C353.974 805.204 338.2 814.032 319.152 832.792C314.093 837.775 278.765 849.712 263.502 832.792C252.786 820.949 242.008 796.246 235.155 749.887C228.302 703.527 226.557 631.789 233.286 584.752C235.965 565.803 239.765 552.267 243.565 540.085C258.081 494.064 338.498 226.673 309.926 1.00001M1.58937 977.367C20.155 968.908 54.2334 953.597 72.176 926.864C106.379 876.106 137.031 757.331 156.967 597.95C176.904 438.568 205.46 379.449 207.246 1.00001M156.353 1.00001C117.96 26.5918 108.56 158.378 104.012 217.934C98.0932 295.764 91.8631 374.947 86.8168 454.13C82.0819 528.914 78.0323 684.916 65.8837 735.336C47.9411 809.782 22.2109 810.797 1.58937 769.852" stroke="#E7E7E7" stroke-opacity="0.5" stroke-miterlimit="10"/>
</svg>
