<svg width="380" height="1836" viewBox="0 0 380 1836" fill="none" xmlns="http://www.w3.org/2000/svg">
<path d="M65.9532 1C34.5375 411.863 33.7839 592.826 53.6768 636.999C74.9672 683.972 98.4771 672.151 118.74 604.025C132.468 557.985 148.478 395.311 161.59 339.939C173.55 289.232 187.319 250.347 200.8 269.634C214.281 289.232 226.488 385.979 224.105 488.324C221.762 589.115 203.285 746.5 200.901 847.29C198.846 935.326 207.601 1023.98 218.78 1054.16C229.919 1084.02 242.537 1065.05 253.141 1025.54C263.745 986.032 272.869 927.238 282.282 872.799C293.749 806.538 305.915 745.877 319.396 706.992C329.589 677.44 361.072 637.262 368.799 695.746C371.43 715.655 378.397 808.078 380 833.587M239.25 13.1197C219.439 195.724 195.353 725.346 168.719 848.223C146.237 951.813 118.493 965.501 94.4081 1045.76C68.1033 1133.48 10.1931 1403.42 0 1606.86M72.256 1835C159.042 1733.76 129.663 1291.04 137.64 1198.36C146.476 1095.7 156.882 1087.58 169.448 1070.33C172.786 1065.75 196.092 1054.78 206.162 1070.33C213.232 1081.22 220.342 1103.93 224.863 1146.55C229.384 1189.17 230.535 1255.12 226.096 1298.36C224.329 1315.78 221.822 1328.22 219.315 1339.42C209.738 1381.73 156.686 1627.54 175.535 1835M378.951 937.427C366.703 945.204 344.221 959.279 332.384 983.854C309.819 1030.52 289.598 1139.71 276.445 1286.23C263.293 1432.74 244.453 1487.09 243.275 1835M276.851 1835C302.179 1811.47 308.381 1690.32 311.381 1635.57C315.286 1564.02 319.396 1491.23 322.725 1418.44C325.849 1349.69 328.52 1206.28 336.535 1159.93C348.372 1091.49 365.347 1090.56 378.951 1128.2" stroke="#E7E7E7" stroke-opacity="0.5" stroke-miterlimit="10"/>
</svg>
