<svg width="768" height="2038" viewBox="0 0 768 2038" fill="none" xmlns="http://www.w3.org/2000/svg">
<path d="M634.705 2037C698.198 1580.88 699.721 1379.99 659.516 1330.95C616.487 1278.8 568.973 1291.93 528.02 1367.56C500.276 1418.67 467.917 1599.26 441.419 1660.73C417.246 1717.02 389.418 1760.19 362.172 1738.78C334.926 1717.02 310.255 1609.62 315.073 1496C319.808 1384.11 357.15 1209.39 361.968 1097.5C366.121 999.766 348.428 901.343 325.834 867.844C303.322 834.691 277.821 855.757 256.389 899.616C234.958 943.475 216.517 1008.74 197.494 1069.18C174.318 1142.74 149.73 1210.08 122.484 1253.25C101.883 1286.06 38.2536 1330.66 22.6369 1265.73C17.3205 1243.63 3.23963 1141.03 -1.14441e-05 1112.71M281.2 2036.49C321.239 1833.77 373.182 1232.87 427.01 1096.46C472.448 981.463 528.519 966.267 577.196 877.169C630.36 779.782 747.399 480.118 768 254.263M621.967 0.999896C446.568 113.386 505.944 604.875 489.823 707.763C471.965 821.732 450.933 830.741 425.536 849.887C418.79 854.972 371.687 867.154 351.335 849.887C337.048 837.8 322.677 812.589 313.54 765.277C304.402 717.965 302.076 644.752 311.048 596.749C314.62 577.41 319.687 563.596 324.754 551.164C344.109 504.197 451.33 231.311 413.234 0.999896M2.11918 997.433C26.8733 988.799 72.3112 973.174 96.2347 945.892C141.839 894.091 182.708 772.875 209.29 610.218C235.871 447.561 273.947 387.227 276.328 0.999896M208.47 0.999896C157.279 27.1177 144.746 161.612 138.682 222.392C130.791 301.822 122.484 382.632 115.756 463.442C109.443 539.763 104.043 698.971 87.845 750.427C63.9215 826.403 29.6146 827.439 2.11918 785.652" stroke="#E7E7E7" stroke-opacity="0.5" stroke-miterlimit="10"/>
</svg>
