<svg width="992" height="1296" viewBox="0 0 992 1296" fill="none" xmlns="http://www.w3.org/2000/svg">
<path d="M172.172 1C90.161 290.889 88.1937 418.569 140.125 449.737C195.704 482.879 257.077 474.539 309.974 426.471C345.811 393.987 387.607 279.211 421.834 240.142C453.057 204.366 489.001 176.93 524.194 190.538C559.387 204.366 591.254 272.626 585.031 344.837C578.915 415.951 530.681 526.996 524.458 598.11C519.093 660.224 541.947 722.778 571.131 744.068C600.209 765.139 633.148 751.75 660.831 723.876C688.513 696.001 712.333 654.518 736.903 616.108C766.839 569.357 798.598 526.557 833.791 499.121C860.401 478.27 942.589 449.922 962.761 491.186C969.628 505.233 987.815 570.443 992 588.441M624.568 9.55121C572.852 138.39 509.973 512.071 440.445 598.768C381.755 671.857 309.33 681.515 246.455 738.142C177.786 800.038 26.6093 990.491 0 1134.04M188.626 1295C415.183 1223.57 338.489 911.201 359.313 845.81C382.378 773.376 409.545 767.65 442.349 755.482C451.063 752.249 511.904 744.507 538.192 755.482C556.647 763.164 575.209 779.186 587.011 809.256C598.814 839.326 601.818 885.857 590.23 916.366C585.616 928.657 579.071 937.436 572.526 945.338C547.526 975.188 409.032 1148.62 458.239 1295M989.263 661.707C957.289 667.194 898.598 677.125 867.697 694.464C808.791 727.387 756.002 804.427 721.667 907.805C687.333 1011.18 638.151 1049.53 635.076 1295M722.726 1295C788.847 1278.4 805.036 1192.92 812.869 1154.29C823.062 1103.81 833.791 1052.45 842.482 1001.09C850.637 952.583 857.611 851.397 878.534 818.694C909.435 770.407 953.748 769.748 989.263 796.306" stroke="#E7E7E7" stroke-opacity="0.5" stroke-miterlimit="10"/>
</svg>
