<svg width="768" height="1461" viewBox="0 0 768 1461" fill="none" xmlns="http://www.w3.org/2000/svg">
<path d="M133.295 1C69.8021 327.853 68.279 471.814 108.484 506.956C151.513 544.324 199.027 534.92 239.98 480.723C267.724 444.097 300.083 314.686 326.581 270.635C350.754 230.297 378.582 199.363 405.828 214.706C433.074 230.297 457.745 307.262 452.927 388.681C448.192 468.862 410.85 594.066 406.032 674.248C401.879 744.283 419.572 814.813 442.166 838.818C464.678 862.576 490.179 847.48 511.611 816.051C533.042 784.621 551.483 737.849 570.506 694.541C593.682 641.829 618.27 593.572 645.516 562.637C666.117 539.127 729.746 507.165 745.363 553.69C750.679 569.528 764.76 643.054 768 663.347M483.537 10.6416C443.498 155.909 394.818 577.238 340.99 674.99C295.552 757.399 239.481 768.288 190.804 832.136C137.64 901.924 20.6008 1116.66 0 1278.51M146.033 1460C321.432 1379.46 262.056 1027.26 278.177 953.533C296.035 871.863 317.067 865.407 342.464 851.687C349.21 848.042 396.313 839.313 416.665 851.687C430.952 860.348 445.323 878.414 454.46 912.318C463.598 946.222 465.924 998.686 456.952 1033.09C453.38 1046.94 448.313 1056.84 443.246 1065.75C423.891 1099.41 316.67 1294.96 354.766 1460M765.881 745.955C741.127 752.142 695.689 763.339 671.765 782.889C626.161 820.01 585.292 906.873 558.71 1023.43C532.129 1139.99 494.053 1183.23 491.672 1460M559.53 1460C610.721 1441.28 623.254 1344.91 629.318 1301.35C637.209 1244.43 645.516 1186.52 652.244 1128.61C658.557 1073.92 663.957 959.833 680.155 922.959C704.079 868.515 738.385 867.773 765.881 897.717" stroke="#E7E7E7" stroke-opacity="0.5" stroke-miterlimit="10"/>
</svg>
