<svg width="380" height="1919" viewBox="0 0 380 1919" fill="none" xmlns="http://www.w3.org/2000/svg">
<path d="M314.047 1918C345.463 1488.54 346.216 1299.39 326.323 1253.22C305.033 1204.12 281.523 1216.47 261.26 1287.68C247.532 1335.81 231.522 1505.84 218.41 1563.72C206.45 1616.72 192.681 1657.37 179.2 1637.21C165.719 1616.72 153.512 1515.6 155.895 1408.62C158.238 1303.27 176.715 1138.76 179.099 1033.41C181.154 941.39 172.399 848.72 161.22 817.179C150.081 785.964 137.463 805.799 126.859 847.094C116.255 888.389 107.131 949.844 97.7185 1006.75C86.2513 1076.01 74.0853 1139.41 60.6041 1180.06C50.4111 1210.95 18.9275 1252.94 11.2005 1191.81C8.57005 1171 1.60294 1074.4 -9.53674e-06 1047.73M139.135 1917.52C158.946 1726.65 184.647 1160.87 211.281 1032.43C233.763 924.157 261.507 909.85 285.592 825.958C311.897 734.263 369.807 452.115 380 239.461M307.744 1.00006C220.958 106.817 250.337 569.58 242.36 666.454C233.524 773.762 223.118 782.244 210.552 800.271C207.214 805.059 183.908 816.529 173.838 800.271C166.768 788.89 159.658 765.154 155.137 720.607C150.616 676.06 149.465 607.126 153.904 561.929C155.671 543.72 158.178 530.714 160.685 519.008C170.262 474.786 223.314 217.85 204.465 1.00006M1.04855 939.194C13.2967 931.065 35.779 916.353 47.6161 890.665C70.1807 841.891 90.4024 727.76 103.555 574.61C116.707 421.46 135.547 364.653 136.725 1.00006M103.149 1.00006C77.8206 25.5913 71.6192 152.225 68.6189 209.453C64.7142 284.239 60.6041 360.326 57.275 436.414C54.1513 508.274 51.4797 658.176 43.465 706.625C31.6278 778.16 14.653 779.135 1.04855 739.791" stroke="#E7E7E7" stroke-opacity="0.5" stroke-miterlimit="10"/>
</svg>
