<svg width="768" height="1888" viewBox="0 0 768 1888" fill="none" xmlns="http://www.w3.org/2000/svg">
<path d="M133.295 0C69.8021 422.736 68.279 608.929 108.484 654.379C151.513 702.709 199.027 690.547 239.98 620.451C267.724 573.081 300.083 405.706 326.581 348.733C350.754 296.562 378.582 256.553 405.828 276.397C433.074 296.562 457.745 396.104 452.927 501.407C448.192 605.11 410.85 767.043 406.032 870.746C401.879 961.326 419.572 1052.55 442.166 1083.59C464.678 1114.32 490.179 1094.8 511.611 1054.15C533.042 1013.5 551.483 953.005 570.506 896.992C593.682 828.817 618.27 766.403 645.516 726.394C666.117 695.988 729.746 654.649 745.363 714.823C750.679 735.307 764.76 830.402 768 856.647M483.537 12.47C443.498 200.352 394.818 745.279 340.99 871.707C295.552 978.29 239.481 992.373 190.804 1074.95C137.64 1165.21 20.6008 1442.94 0 1652.27M146.033 1887C321.432 1782.84 262.056 1327.32 278.177 1231.96C296.035 1126.33 317.067 1117.98 342.464 1100.24C349.21 1095.52 396.313 1084.23 416.665 1100.24C430.952 1111.44 445.323 1134.8 454.46 1178.65C463.598 1222.5 465.924 1290.36 456.952 1334.85C453.38 1352.77 448.313 1365.58 443.246 1377.1C423.891 1420.63 316.67 1673.54 354.766 1887M765.881 963.489C741.127 971.49 695.689 985.972 671.765 1011.26C626.161 1059.27 585.292 1171.61 558.71 1322.37C532.129 1473.12 494.053 1529.04 491.672 1887M559.53 1887C610.721 1862.79 623.254 1738.14 629.318 1681.81C637.209 1608.19 645.516 1533.3 652.244 1458.4C658.557 1387.66 663.957 1240.11 680.155 1192.42C704.079 1122 738.385 1121.04 765.881 1159.77" stroke="#E7E7E7" stroke-opacity="0.5" stroke-miterlimit="10"/>
</svg>
