<svg width="992" height="1833" viewBox="0 0 992 1833" fill="none" xmlns="http://www.w3.org/2000/svg">
<path d="M819.828 1832C901.839 1421.81 903.806 1241.14 851.875 1197.04C796.296 1150.14 734.923 1161.95 682.026 1229.96C646.189 1275.93 604.393 1438.33 570.166 1493.62C538.943 1544.24 502.999 1583.06 467.806 1563.81C432.613 1544.24 400.746 1447.65 406.969 1345.47C413.085 1244.85 461.319 1087.72 467.542 987.094C472.907 899.203 450.053 810.69 420.869 780.564C391.791 750.749 358.852 769.694 331.169 809.137C303.487 848.579 279.667 907.277 255.097 961.628C225.161 1027.78 193.402 1088.34 158.209 1127.16C131.599 1156.67 49.4109 1196.78 29.2393 1138.39C22.3724 1118.51 4.18456 1026.24 3.05176e-05 1000.77M363.217 1831.54C414.933 1649.23 482.027 1108.84 551.555 986.163C610.245 882.742 682.67 869.077 745.545 788.949C814.214 701.368 965.391 431.877 992 228.763M803.374 1.00002C576.817 102.07 653.511 544.072 632.687 636.601C609.622 739.094 582.455 747.196 549.651 764.414C540.937 768.988 480.096 779.943 453.808 764.414C435.353 753.544 416.791 730.872 404.989 688.324C393.186 645.776 390.182 579.934 401.77 536.765C406.384 519.373 412.929 506.95 419.474 495.769C444.474 453.531 582.968 208.122 533.761 1.00002M2.73732 897.105C34.7114 889.34 93.4021 875.289 124.303 850.753C183.209 804.167 235.998 695.157 270.333 548.877C304.667 402.598 353.849 348.338 356.924 1.00002M269.274 1.00002C203.153 24.4881 186.964 145.44 179.131 200.101C168.938 271.533 158.209 344.206 149.518 416.88C141.363 485.517 134.389 628.694 113.466 674.969C82.5653 743.295 38.2522 744.227 2.73732 706.648" stroke="#E7E7E7" stroke-opacity="0.5" stroke-miterlimit="10"/>
</svg>
