<svg width="576" height="1358" viewBox="0 0 576 1358" fill="none" xmlns="http://www.w3.org/2000/svg">
<path d="M99.9711 1C52.3516 304.779 51.2092 438.577 81.3628 471.237C113.635 505.968 149.271 497.227 179.985 446.857C200.793 412.816 225.062 292.541 244.936 251.6C263.066 214.11 283.936 185.359 304.371 199.619C324.806 214.11 343.309 285.641 339.695 361.312C336.144 435.833 308.137 552.198 304.524 626.719C301.409 691.81 314.679 757.361 331.625 779.671C348.508 801.752 367.635 787.721 383.708 758.511C399.782 729.301 413.612 685.83 427.879 645.58C445.261 596.589 463.702 551.738 484.137 522.988C499.587 501.137 547.31 471.432 559.022 514.672C563.01 529.393 573.57 597.727 576 616.588M362.653 9.96093C332.624 144.973 296.113 536.558 255.742 627.409C221.664 704 179.611 714.121 143.103 773.461C103.23 838.322 15.4506 1037.9 0 1188.32M109.525 1357C241.074 1282.15 196.542 954.812 208.633 886.287C222.026 810.383 237.8 804.383 256.848 791.631C261.907 788.244 297.235 780.131 312.498 791.631C323.214 799.682 333.992 816.472 340.845 847.982C347.698 879.493 349.443 928.253 342.714 960.224C340.035 973.104 336.235 982.304 332.435 990.584C317.919 1021.86 237.502 1203.61 266.074 1357M574.411 693.364C555.845 699.114 521.767 709.52 503.824 727.691C469.621 762.191 438.969 842.922 419.033 951.254C399.096 1059.59 370.54 1099.77 368.754 1357M419.647 1357C458.04 1339.61 467.44 1250.03 471.988 1209.55C477.907 1156.65 484.137 1102.83 489.183 1049.01C493.918 998.177 497.968 892.143 510.116 857.873C528.059 807.272 553.789 806.582 574.411 834.412" stroke="#E7E7E7" stroke-opacity="0.5" stroke-miterlimit="10"/>
</svg>
