<svg width="20" height="16" viewBox="0 0 20 16" fill="none" xmlns="http://www.w3.org/2000/svg">
<path fill-rule="evenodd" clip-rule="evenodd" d="M3.33122 5H7H13H16.6688L15.4146 13.1521C15.3396 13.6399 14.9198 14 14.4262 14H5.57376C5.08019 14 4.66044 13.6399 4.58539 13.1521L3.33122 5ZM14 1V3H16.6688H19C19.5523 3 20 3.44772 20 4C20 4.55228 19.5523 5 19 5H18.6692C18.669 5.10013 18.6613 5.2017 18.6455 5.30411L17.3914 13.4562C17.1662 14.9197 15.907 16 14.4262 16H5.57376C4.09304 16 2.83379 14.9197 2.60864 13.4562L1.35448 5.30411C1.33872 5.2017 1.331 5.10013 1.3308 5H1C0.447715 5 0 4.55228 0 4C0 3.44772 0.447715 3 1 3H3.33122H6V1C6 0.447715 6.44772 0 7 0H13C13.5523 0 14 0.447715 14 1ZM8 3H12V2H8V3ZM10 12C9.44771 12 9 11.5523 9 11V8C9 7.44772 9.44771 7 10 7C10.5523 7 11 7.44772 11 8V11C11 11.5523 10.5523 12 10 12ZM6 11C6 11.5523 6.44772 12 7 12C7.55228 12 8 11.5523 8 11V8C8 7.44772 7.55228 7 7 7C6.44772 7 6 7.44772 6 8V11ZM12 11C12 11.5523 12.4477 12 13 12C13.5523 12 14 11.5523 14 11V8C14 7.44772 13.5523 7 13 7C12.4477 7 12 7.44772 12 8V11Z" fill="white"/>
</svg>
