<svg width="24" height="22" viewBox="0 0 24 22" xmlns="http://www.w3.org/2000/svg">
<path d="M6.83954 0.0288714C6.56578 0.0287563 6.29145 0.0396703 6.1112 0.0615918C5.29804 0.16049 4.56296 0.373749 3.87386 0.715099L8.77602 5.7474L12.017 2.41813L12.0169 2.41689L12.006 2.42791L11.7007 2.12128C11.3586 1.77741 11.1053 1.55491 10.8013 1.33139C9.84163 0.625663 8.79266 0.214312 7.56458 0.0621527C7.38652 0.0400885 7.11329 0.0289791 6.83954 0.0288714Z" fill="#F4E8DA"/>
<path d="M3.87386 0.715099L3.71122 0.79898C3.06058 1.13445 2.32693 1.70294 1.8399 2.24902C1.3885 2.75514 1.10507 3.16134 0.793401 3.74887L0.645654 4.0329L5.54736 9.06184L8.77602 5.7474C8.77602 5.7474 3.87495 0.716223 3.87386 0.715099Z"/>
<path d="M0.645654 4.0329L0.540072 4.2869C0.287802 4.89421 0.120352 5.5332 0.0340745 6.21751C-0.00650322 6.53936 -0.0122823 7.5063 0.0245451 7.81103C0.194466 9.21702 0.67204 10.3872 1.51593 11.4593L2.10352 12.1237C2.17388 12.1971 2.23752 12.2636 2.33122 12.3608L5.54573 9.06351C5.55921 9.04968 0.645654 4.0329 0.645654 4.0329Z" fill="#F4E8DA"/>
<path d="M23.3469 3.98806C23.3422 3.98806 21.357 6.02152 18.8788 8.56227L8.77139 18.9701C10.3515 20.5906 11.6567 21.9203 11.6803 21.9327C11.705 21.9457 11.7574 21.9672 11.7969 21.9805C11.8377 21.9944 11.9196 22.0021 11.9869 21.9984C12.2267 21.9854 11.8405 22.3661 17.2545 16.805C19.9694 14.0163 22.2626 11.6476 22.3503 11.5412C22.7562 11.0492 23.0918 10.519 23.3422 9.97397C24.1796 8.15129 24.219 6.07577 23.4516 4.21373C23.4004 4.08961 23.3533 3.98806 23.3469 3.98806Z"/>
<path d="M20.0863 0.643388L5.51964 15.6437L5.52533 15.6494C10.3746 10.6385 20.1047 0.65643 20.1047 0.65643C20.1008 0.65278 20.094 0.648212 20.0863 0.643388ZM20.141 0.673072C20.141 0.673072 5.54331 15.6586 5.54341 15.6585C6.61104 16.7547 7.70376 17.874 8.77139 18.9701L23.3469 3.98806L23.2687 3.81445C22.6492 2.54665 21.6072 1.46076 20.3743 0.798331L20.141 0.673072Z" fill="#F4E8DA"/>
<path d="M2.33122 12.3608C5.54573 9.06351 11.5086 2.87361 12.8826 1.57043C13.5733 1.00538 14.2776 0.610897 15.0718 0.344227C15.5384 0.187542 15.9313 0.0992314 16.4535 0.0337032C16.7761 -0.00678911 17.5782 -0.0119387 17.889 0.0244874C18.4152 0.0861533 18.9177 0.198696 19.3784 0.358038C19.6188 0.441197 20.0781 0.631383 20.141 0.673072C14.9465 6.08584 11.9762 9.03561 5.53431 15.6494L2.33122 12.3608Z"/>
</svg>
