<svg width="25" height="24" viewBox="0 0 25 24" fill="none" xmlns="http://www.w3.org/2000/svg">
<path d="M20.5 10C20.2348 10 19.9804 10.1054 19.7929 10.2929C19.6054 10.4804 19.5 10.7348 19.5 11V18C19.5 18.2652 19.3946 18.5196 19.2071 18.7071C19.0196 18.8946 18.7652 19 18.5 19H4.5C4.23478 19 3.98043 18.8946 3.79289 18.7071C3.60536 18.5196 3.5 18.2652 3.5 18V10C3.5 9.73478 3.60536 9.48043 3.79289 9.29289C3.98043 9.10536 4.23478 9 4.5 9H6.5C6.71807 9.01138 6.93386 8.95107 7.11443 8.82829C7.295 8.7055 7.43042 8.52698 7.5 8.32L8.04 6.68C8.10709 6.48138 8.2349 6.30886 8.40537 6.18684C8.57584 6.06482 8.78036 5.99946 8.99 6H14.5C14.7652 6 15.0196 5.89464 15.2071 5.70711C15.3946 5.51957 15.5 5.26522 15.5 5C15.5 4.73478 15.3946 4.48043 15.2071 4.29289C15.0196 4.10536 14.7652 4 14.5 4H8.94C8.31155 4.00118 7.69933 4.19968 7.18977 4.56751C6.6802 4.93533 6.29901 5.45389 6.1 6.05L5.78 7.05H4.5C3.70435 7.05 2.94129 7.36607 2.37868 7.92868C1.81607 8.49129 1.5 9.25435 1.5 10.05V18.05C1.5 18.8456 1.81607 19.6087 2.37868 20.1713C2.94129 20.7339 3.70435 21.05 4.5 21.05H18.5C19.2956 21.05 20.0587 20.7339 20.6213 20.1713C21.1839 19.6087 21.5 18.8456 21.5 18.05V11.05C21.5068 10.9145 21.4859 10.7791 21.4387 10.6519C21.3915 10.5248 21.3189 10.4086 21.2254 10.3103C21.1318 10.2121 21.0193 10.134 20.8946 10.0806C20.7699 10.0273 20.6356 9.99983 20.5 10V10ZM11.5 9C10.7089 9 9.93552 9.2346 9.27772 9.67412C8.61992 10.1136 8.10723 10.7384 7.80448 11.4693C7.50173 12.2002 7.42252 13.0044 7.57686 13.7804C7.7312 14.5563 8.11216 15.269 8.67157 15.8284C9.23098 16.3878 9.94371 16.7688 10.7196 16.9231C11.4956 17.0775 12.2998 16.9983 13.0307 16.6955C13.7616 16.3928 14.3864 15.8801 14.8259 15.2223C15.2654 14.5645 15.5 13.7911 15.5 13C15.5 11.9391 15.0786 10.9217 14.3284 10.1716C13.5783 9.42143 12.5609 9 11.5 9V9ZM11.5 15C11.1044 15 10.7178 14.8827 10.3889 14.6629C10.06 14.4432 9.80362 14.1308 9.65224 13.7654C9.50087 13.3999 9.46126 12.9978 9.53843 12.6098C9.6156 12.2219 9.80608 11.8655 10.0858 11.5858C10.3655 11.3061 10.7219 11.1156 11.1098 11.0384C11.4978 10.9613 11.8999 11.0009 12.2654 11.1522C12.6308 11.3036 12.9432 11.56 13.1629 11.8889C13.3827 12.2178 13.5 12.6044 13.5 13C13.5 13.5304 13.2893 14.0391 12.9142 14.4142C12.5391 14.7893 12.0304 15 11.5 15ZM22.5 4H21.5V3C21.5 2.73478 21.3946 2.48043 21.2071 2.29289C21.0196 2.10536 20.7652 2 20.5 2C20.2348 2 19.9804 2.10536 19.7929 2.29289C19.6054 2.48043 19.5 2.73478 19.5 3V4H18.5C18.2348 4 17.9804 4.10536 17.7929 4.29289C17.6054 4.48043 17.5 4.73478 17.5 5C17.5 5.26522 17.6054 5.51957 17.7929 5.70711C17.9804 5.89464 18.2348 6 18.5 6H19.5V7C19.5 7.26522 19.6054 7.51957 19.7929 7.70711C19.9804 7.89464 20.2348 8 20.5 8C20.7652 8 21.0196 7.89464 21.2071 7.70711C21.3946 7.51957 21.5 7.26522 21.5 7V6H22.5C22.7652 6 23.0196 5.89464 23.2071 5.70711C23.3946 5.51957 23.5 5.26522 23.5 5C23.5 4.73478 23.3946 4.48043 23.2071 4.29289C23.0196 4.10536 22.7652 4 22.5 4Z" fill="white"/>
</svg>
