<svg width="80" height="95" viewBox="0 0 80 95" xmlns="http://www.w3.org/2000/svg">
<g filter="url(#filter0_d_242_1354)">
<path fill-rule="evenodd" clip-rule="evenodd" d="M70 6C70 2.68629 67.3137 0 64 0H16C12.6863 0 10 2.6863 10 6.00001V53.0854C10 56.3991 12.6863 59.0854 16 59.0854H30.5417C32.117 59.0854 33.6291 59.7049 34.7516 60.8103L37.8624 63.8737C39.043 65.0362 40.957 65.0362 42.1376 63.8737L45.2484 60.8103C46.3709 59.7049 47.883 59.0854 49.4583 59.0854H64C67.3137 59.0854 70 56.3991 70 53.0854V6Z"/>
</g>
<g clip-path="url(#clip0_242_1354)">
<path d="M53.3671 38.2667L49.6166 37.1233C49.7586 36.6294 49.8306 36.1179 49.8302 35.604C49.8298 35.2575 49.7965 34.9118 49.7308 34.5716L53.3387 33.5951L52.8484 31.784L49.0644 32.8082C48.9192 32.5613 48.7548 32.3263 48.5727 32.1052C48.0373 31.4573 47.7462 30.6644 47.7531 29.8728C47.7536 29.8161 47.7534 29.7592 47.7527 29.7025C47.7344 28.3274 47.3512 27.0045 46.6383 25.839C47.3275 24.7932 47.9058 23.7171 48.3614 22.6323C50.4253 17.7169 49.9064 12.8693 49.8833 12.6653L49.6947 11L48.3737 12.0314C48.2119 12.1577 44.3877 15.1817 42.3238 20.097C42.0306 20.7953 41.7746 21.5306 41.5592 22.2925C41.0498 22.1931 40.5316 22.1458 40.0126 22.1515C39.5854 22.1561 39.1594 22.1963 38.7389 22.2717C38.5248 21.5171 38.2707 20.7887 37.9803 20.097C35.9163 15.1816 32.0921 12.1577 31.9303 12.0313L30.6094 11L30.4207 12.6653C30.3977 12.8692 29.8787 17.7169 31.9427 22.6322C32.3848 23.6852 32.9432 24.7308 33.6065 25.7483C32.8438 26.9627 32.4438 28.3524 32.4438 29.8058C32.4438 29.8551 32.4443 29.9042 32.4452 29.9531C32.4601 30.7377 32.1796 31.5352 31.6556 32.1985C31.486 32.4136 31.3324 32.6409 31.1962 32.8786L27.1515 31.7839L26.6613 33.595L30.556 34.6491C30.5012 34.9644 30.4737 35.2839 30.4737 35.6039C30.4735 36.0881 30.5374 36.5703 30.6637 37.0378L26.6328 38.2666L27.1799 40.0614L31.4681 38.7541C32.4635 40.1731 34.1113 41.1027 35.9725 41.1027C36.0014 41.1027 36.0305 41.1024 36.0597 41.1019C37.0441 42.2996 38.5092 43 40.079 43C41.6522 43 43.1174 42.2984 44.1016 41.0979C44.1784 41.1011 44.255 41.1028 44.3314 41.1028C46.159 41.1028 47.781 40.2063 48.7814 38.8302L52.82 40.0614L53.3671 38.2667ZM44.3314 39.2265C44.1545 39.2265 43.9746 39.2131 43.7969 39.1869L43.2011 39.0989L42.8731 39.604C42.255 40.5556 41.2105 41.1237 40.079 41.1237C38.9539 41.1237 37.9125 40.5606 37.2935 39.6174L36.9754 39.1328L36.3997 39.2003C36.2579 39.2174 36.1153 39.2261 35.9724 39.2264C34.9726 39.2264 34.0662 38.8192 33.41 38.162L34.3098 37.8877L33.7627 36.093L32.46 36.4901C32.3868 36.2004 32.3498 35.9027 32.3499 35.6039C32.3499 35.4482 32.3596 35.2942 32.3786 35.1425L33.7911 35.5247L34.2813 33.7136L33.1028 33.3946C33.1112 33.3837 33.1192 33.3726 33.1277 33.3617C33.9203 32.3585 34.3441 31.1353 34.3211 29.9173C34.3204 29.8801 34.32 29.8429 34.32 29.8057C34.32 28.5357 34.7243 27.3306 35.4893 26.3207L35.9006 25.7777L35.5116 25.2186C34.7615 24.14 34.1427 23.0254 33.6725 21.9057C32.5678 19.2748 32.2827 16.6137 32.2352 14.8688C33.4458 16.1213 35.1419 18.1841 36.2501 20.8233C36.6164 21.6958 36.9192 22.6359 37.1498 23.6178L37.3814 24.6041L38.347 24.2974C38.8926 24.1244 39.4608 24.0335 40.0331 24.0276C40.6783 24.0201 41.3202 24.1219 41.9314 24.3288L42.9111 24.6602L43.1456 23.6529C43.3773 22.6584 43.6827 21.7063 44.0535 20.8233C45.1583 18.1924 46.8584 16.1255 48.0708 14.8698C48.0243 16.6111 47.7394 19.2664 46.6311 21.9056C46.1493 23.0529 45.5125 24.1936 44.738 25.296L44.3497 25.8488L44.7509 26.3924C45.4712 27.3682 45.8603 28.5213 45.8763 29.7273C45.8769 29.7704 45.877 29.8135 45.8766 29.8564C45.866 31.0891 46.3097 32.3121 47.1261 33.3001C47.1333 33.3089 47.14 33.318 47.1471 33.3268L45.7183 33.7135L46.2086 35.5247L47.9122 35.0635C47.9391 35.2417 47.9537 35.4221 47.9537 35.6038C47.9536 35.9323 47.9087 36.2592 47.8202 36.5756L46.237 36.0929L45.6898 37.8877L46.82 38.2322C46.1707 38.8478 45.2947 39.2265 44.3314 39.2265Z" fill="white"/>
<path d="M41.1758 33.7026L39.9973 34.6014L38.8711 33.7502L37.7398 35.2472L39.0618 36.2463V37.4893H40.9381V36.2436L42.3137 35.1945L41.1758 33.7026ZM35.9413 30.4673H37.8176V32.2515H35.9413V30.4673ZM42.1698 30.4673H44.0461V32.2515H42.1698V30.4673Z" fill="white"/>
</g>
<defs>
<filter id="filter0_d_242_1354" x="0" y="0" width="80" height="94.7456" filterUnits="userSpaceOnUse" color-interpolation-filters="sRGB">
<feFlood flood-opacity="0" result="BackgroundImageFix"/>
<feColorMatrix in="SourceAlpha" type="matrix" values="0 0 0 0 0 0 0 0 0 0 0 0 0 0 0 0 0 0 127 0" result="hardAlpha"/>
<feMorphology radius="10" operator="erode" in="SourceAlpha" result="effect1_dropShadow_242_1354"/>
<feOffset dy="20"/>
<feGaussianBlur stdDeviation="10"/>
<feComposite in2="hardAlpha" operator="out"/>
<feColorMatrix type="matrix" values="0 0 0 0 0 0 0 0 0 0 0 0 0 0 0 0 0 0 0.2 0"/>
<feBlend mode="normal" in2="BackgroundImageFix" result="effect1_dropShadow_242_1354"/>
<feBlend mode="normal" in="SourceGraphic" in2="effect1_dropShadow_242_1354" result="shape"/>
</filter>
<clipPath id="clip0_242_1354">
<rect width="32" height="32" fill="white" transform="translate(24 11)"/>
</clipPath>
</defs>
</svg>
