<svg width="28" height="32" viewBox="0 0 28 32" fill="none" xmlns="http://www.w3.org/2000/svg">
<path d="M27.3671 27.2667L23.6166 26.1233C23.7586 25.6294 23.8306 25.1179 23.8302 24.604C23.8298 24.2575 23.7965 23.9118 23.7308 23.5716L27.3387 22.5951L26.8484 20.784L23.0644 21.8082C22.9192 21.5613 22.7548 21.3263 22.5727 21.1052C22.0373 20.4573 21.7462 19.6644 21.7531 18.8728C21.7536 18.8161 21.7534 18.7592 21.7527 18.7025C21.7344 17.3274 21.3512 16.0045 20.6383 14.839C21.3275 13.7932 21.9058 12.7171 22.3614 11.6323C24.4253 6.71694 23.9064 1.86929 23.8833 1.66534L23.6947 0L22.3737 1.0314C22.2119 1.15774 18.3877 4.1817 16.3238 9.09696C16.0306 9.79532 15.7746 10.5306 15.5592 11.2925C15.0498 11.1931 14.5316 11.1458 14.0126 11.1515C13.5854 11.1561 13.1594 11.1963 12.7389 11.2717C12.5248 10.5171 12.2707 9.78875 11.9803 9.09696C9.91634 4.18163 6.09214 1.15767 5.93034 1.03134L4.60937 0L4.42074 1.66527C4.39766 1.86923 3.87868 6.71688 5.94266 11.6322C6.38478 12.6852 6.94323 13.7308 7.6065 14.7483C6.84385 15.9627 6.44382 17.3524 6.44382 18.8058C6.44382 18.8551 6.44426 18.9042 6.4452 18.9531C6.46008 19.7377 6.17964 20.5352 5.65559 21.1985C5.48595 21.4136 5.33241 21.6409 5.19621 21.8786L1.15155 20.7839L0.661332 22.595L4.55595 23.6491C4.5012 23.9644 4.47369 24.2839 4.47371 24.6039C4.47349 25.0881 4.53738 25.5703 4.66372 26.0378L0.632812 27.2666L1.17994 29.0614L5.46808 27.7541C6.46352 29.1731 8.11134 30.1027 9.9725 30.1027C10.0014 30.1027 10.0305 30.1024 10.0597 30.1019C11.0441 31.2996 12.5092 32 14.079 32C15.6522 32 17.1174 31.2984 18.1016 30.0979C18.1784 30.1011 18.255 30.1028 18.3314 30.1028C20.159 30.1028 21.781 29.2063 22.7814 27.8302L26.82 29.0614L27.3671 27.2667ZM18.3314 28.2265C18.1545 28.2265 17.9746 28.2131 17.7969 28.1869L17.2011 28.0989L16.8731 28.604C16.255 29.5556 15.2105 30.1237 14.079 30.1237C12.9539 30.1237 11.9125 29.5606 11.2935 28.6174L10.9754 28.1328L10.3997 28.2003C10.2579 28.2174 10.1153 28.2261 9.97244 28.2264C8.97262 28.2264 8.06619 27.8192 7.41005 27.162L8.30979 26.8877L7.76267 25.093L6.45996 25.4901C6.3868 25.2004 6.34982 24.9027 6.34988 24.6039C6.34988 24.4482 6.35957 24.2942 6.37865 24.1425L7.79112 24.5247L8.28134 22.7136L7.10277 22.3946C7.11122 22.3837 7.11916 22.3726 7.12767 22.3617C7.92034 21.3585 8.34413 20.1353 8.32105 18.9173C8.32035 18.8801 8.32 18.8429 8.31999 18.8057C8.31999 17.5357 8.72433 16.3306 9.48929 15.3207L9.90058 14.7777L9.51162 14.2186C8.76148 13.14 8.14268 12.0254 7.67254 10.9057C6.56778 8.27477 6.28271 5.61375 6.23518 3.86879C7.44576 5.12128 9.14193 7.18414 10.2501 9.82334C10.6164 10.6958 10.9192 11.6359 11.1498 12.6178L11.3814 13.6041L12.347 13.2974C12.8926 13.1244 13.4608 13.0335 14.0331 13.0276C14.6783 13.0201 15.3202 13.1219 15.9314 13.3288L16.9111 13.6602L17.1456 12.6529C17.3773 11.6584 17.6827 10.7063 18.0535 9.82334C19.1583 7.1924 20.8584 5.12553 22.0708 3.86979C22.0243 5.61106 21.7394 8.26645 20.6311 10.9056C20.1493 12.0529 19.5125 13.1936 18.738 14.296L18.3497 14.8488L18.7509 15.3924C19.4712 16.3682 19.8603 17.5213 19.8763 18.7273C19.8769 18.7704 19.877 18.8135 19.8766 18.8564C19.866 20.0891 20.3097 21.3121 21.1261 22.3001C21.1333 22.3089 21.14 22.318 21.1471 22.3268L19.7183 22.7135L20.2086 24.5247L21.9122 24.0635C21.9391 24.2417 21.9537 24.4221 21.9537 24.6038C21.9536 24.9323 21.9087 25.2592 21.8202 25.5756L20.237 25.0929L19.6898 26.8877L20.82 27.2322C20.1707 27.8478 19.2947 28.2265 18.3314 28.2265Z" fill="white"/>
<path d="M15.1758 22.7026L13.9973 23.6014L12.8711 22.7502L11.7398 24.2472L13.0618 25.2463V26.4893H14.9381V25.2436L16.3137 24.1945L15.1758 22.7026ZM9.94135 19.4673H11.8176V21.2515H9.94135V19.4673ZM16.1698 19.4673H18.0461V21.2515H16.1698V19.4673Z" fill="white"/>
</svg>
