<svg width="25" height="24" viewBox="0 0 25 24" fill="none" xmlns="http://www.w3.org/2000/svg">
<mask id="mask0_893_1235" style="mask-type:luminance" maskUnits="userSpaceOnUse" x="0" y="0" width="25" height="24">
<path d="M15.553 11.9926C15.553 13.6882 14.1821 15.0592 12.4865 15.0592C10.7909 15.0592 9.42897 13.6882 9.42897 11.9926C9.42897 10.297 10.7999 8.92612 12.4865 8.92612C14.1821 8.93514 15.544 10.3061 15.553 11.9926ZM20.9735 3.51462C16.2926 -1.16633 8.6894 -1.16633 4.00845 3.51462C1.76268 5.76039 0.5 8.81789 0.5 11.9926C0.5 15.907 2.40304 19.5687 5.60485 21.8145L5.61387 12.3263C5.60485 12.2181 5.60485 12.1009 5.60485 11.9926C5.60485 8.18655 8.6894 5.10199 12.4955 5.10199C16.3016 5.10199 19.3861 8.18655 19.3861 11.9926C19.3861 15.7987 16.3016 18.8833 12.4955 18.8833C11.7289 18.8833 10.2587 18.5766 9.54622 18.3331V23.6274C15.9769 25.2508 22.4977 21.3635 24.1302 14.9329C24.3737 13.9768 24.5 12.9847 24.5 12.0017C24.491 8.80887 23.2193 5.76039 20.9735 3.51462Z" fill="white"/>
</mask>
<g mask="url(#mask0_893_1235)">
<path d="M12.4865 -0.00292969C19.1155 -0.00292969 24.4819 5.36348 24.4819 11.9926C24.4819 18.6217 19.1155 23.9881 12.4865 23.9881C5.85737 23.9881 0.490967 18.6217 0.490967 11.9926C0.490967 5.3725 5.86639 -0.00292969 12.4865 -0.00292969Z" fill="white"/>
</g>
</svg>
