<svg width="22" height="24" viewBox="0 0 22 24" xmlns="http://www.w3.org/2000/svg">
<path d="M21.4887 6.03362C20.1225 6.03362 18.862 5.58102 17.8497 4.81749C16.6887 3.94222 15.8546 2.65829 15.56 1.17846C15.4862 0.806367 15.4473 0.428168 15.4441 0.0488281H11.5413L11.5367 16.5542C11.5367 18.1159 10.5197 19.44 9.11002 19.9057C8.68777 20.0453 8.24303 20.1043 7.79898 20.0796C7.21172 20.0474 6.6614 19.8702 6.18309 19.584C5.16521 18.9753 4.47508 17.8709 4.45638 16.6075C4.42692 14.633 6.02318 13.0232 7.99629 13.0232C8.38577 13.0232 8.75982 13.0868 9.11002 13.2023V9.23969C8.74065 9.18499 8.36473 9.15646 7.9846 9.15646C5.82493 9.15646 3.80507 10.0542 2.36124 11.6715C1.26995 12.8937 0.615361 14.453 0.514368 16.0881C0.382048 18.236 1.16802 20.2779 2.69227 21.7844C2.91623 22.0055 3.15142 22.2108 3.39735 22.4002C4.70419 23.4059 6.30185 23.9511 7.9846 23.9511C8.36473 23.9511 8.74065 23.923 9.11002 23.8683C10.682 23.6355 12.1323 22.9159 13.2769 21.7844C14.6834 20.3943 15.4604 18.5488 15.4689 16.5846L15.4488 7.86179C16.1213 8.38053 16.858 8.81019 17.6407 9.1401C18.8652 9.65676 20.1637 9.91859 21.4999 9.91812V6.03268C21.5009 6.03362 21.4897 6.03362 21.4887 6.03362Z"/>
</svg>
