<svg width="380" height="2358" viewBox="0 0 380 2358" fill="none" xmlns="http://www.w3.org/2000/svg">
<path d="M65.9532 0C34.5375 528.028 33.7839 760.596 53.6768 817.366C74.9672 877.735 98.4771 862.543 118.74 774.988C132.468 715.819 148.478 506.756 161.59 435.593C173.55 370.427 187.319 320.453 200.8 345.241C214.281 370.427 226.488 494.763 224.105 626.294C221.762 755.827 203.285 958.093 200.901 1087.63C198.846 1200.77 207.601 1314.71 218.78 1353.49C229.919 1391.87 242.537 1367.48 253.141 1316.71C263.745 1265.93 272.869 1190.37 282.282 1120.41C293.749 1035.25 305.915 957.293 319.396 907.319C329.589 869.339 361.072 817.705 368.799 892.866C371.43 918.452 378.397 1037.23 380 1070.01M239.25 15.5759C219.439 250.254 195.353 930.907 168.719 1088.82C146.237 1221.96 118.493 1239.55 94.4081 1342.69C68.1033 1455.43 10.1931 1802.34 0 2063.81M72.256 2357C159.042 2226.9 129.663 1657.92 137.64 1538.81C146.476 1406.87 156.882 1396.44 169.448 1374.28C172.786 1368.39 196.092 1354.29 206.162 1374.28C213.232 1388.27 220.342 1417.45 224.863 1472.23C229.384 1527 230.535 1611.75 226.096 1667.32C224.329 1689.71 221.822 1705.7 219.315 1720.1C209.738 1774.47 156.686 2090.38 175.535 2357M378.951 1203.47C366.703 1213.46 344.221 1231.55 332.384 1263.13C309.819 1323.1 289.598 1463.43 276.445 1651.73C263.293 1840.03 244.453 1909.88 243.275 2357M276.851 2357C302.179 2326.76 308.381 2171.07 311.381 2100.7C315.286 2008.75 319.396 1915.2 322.725 1821.65C325.849 1733.29 328.52 1548.99 336.535 1489.42C348.372 1401.46 365.347 1400.26 378.951 1448.64" stroke="#E7E7E7" stroke-opacity="0.5" stroke-miterlimit="10"/>
</svg>
