<?xml version="1.0" encoding="utf-8"?><svg xmlns="http://www.w3.org/2000/svg" xmlns:xlink="http://www.w3.org/1999/xlink"><symbol viewBox="0 0 24 24" id="Phone" xmlns="http://www.w3.org/2000/svg"><path fill-rule="evenodd" clip-rule="evenodd" d="M12.147 3.61a.408.408 0 0 0-.454.113A12.885 12.885 0 0 0 9.12 9.13l-.001.009a12.713 12.713 0 0 0 .005 5.532l.002.009a12.95 12.95 0 0 0 2.565 5.394.41.41 0 0 0 .457.114c.052-.02.1-.051.14-.091l.002-.003 1.49-1.49a.403.403 0 0 0 .063-.553c-.46-.6-.85-1.249-1.163-1.935l-.002-.003a.41.41 0 0 0-.368-.24l-1.259-.001a1 1 0 0 1-.963-.734 12.251 12.251 0 0 1-.006-6.497 1 1 0 0 1 .965-.736l1.26.001a.405.405 0 0 0 .363-.237l.001-.002c.313-.686.702-1.334 1.16-1.933a.404.404 0 0 0-.043-.532l-.007-.007-1.493-1.493a.412.412 0 0 0-.141-.092Zm-.255-2.025a2.407 2.407 0 0 1 1.809.702l1.49 1.49a2.409 2.409 0 0 1 .237 3.162l-.006.007c-.367.48-.68 1-.93 1.55l-.91-.414.91.412a2.402 2.402 0 0 1-2.178 1.412h-.476a10.253 10.253 0 0 0 .004 3.967h.48a2.41 2.41 0 0 1 2.177 1.412c.252.55.565 1.072.934 1.552l.006.008a2.408 2.408 0 0 1-.252 3.18l-1.48 1.48-.001.002a2.403 2.403 0 0 1-3.555-.157l-.012-.014a14.948 14.948 0 0 1-2.968-6.233 14.713 14.713 0 0 1-.006-6.394 14.885 14.885 0 0 1 2.978-6.25l.01-.013a2.402 2.402 0 0 1 1.739-.861Z"/></symbol><symbol viewBox="0 0 24 24" id="Telegram" xmlns="http://www.w3.org/2000/svg"><path d="M.931 10.605 18.668 4.08c.823-.284 1.542.191 1.276 1.38l.001-.002-3.02 13.576c-.224.963-.823 1.197-1.662.743l-4.599-3.234-2.218 2.039c-.245.234-.452.431-.927.431l.326-4.465L16.37 7.2c.37-.312-.083-.487-.572-.177L5.263 13.351.723 12c-.986-.298-1.007-.94.208-1.394Z"/></symbol><symbol viewBox="0 0 24 24" id="WhatsApp" xmlns="http://www.w3.org/2000/svg"><path d="M12.002 2h-.005C6.485 2 2 6.485 2 12c0 2.188.705 4.215 1.904 5.861l-1.246 3.715L6.5 20.347A9.913 9.913 0 0 0 12.002 22C17.517 22 22 17.514 22 12S17.516 2 12.002 2Zm5.82 14.121c-.242.681-1.2 1.247-1.963 1.412-.523.11-1.205.2-3.503-.753-2.938-1.218-4.831-4.204-4.978-4.398-.142-.193-1.188-1.58-1.188-3.016 0-1.435.729-2.133 1.022-2.433.242-.247.64-.36 1.023-.36.124 0 .235.007.335.012.294.013.441.03.635.494.241.581.829 2.016.899 2.163.071.148.142.348.042.542-.094.2-.176.288-.324.458-.147.17-.287.3-.434.483-.136.159-.288.329-.118.623.17.287.758 1.246 1.623 2.016 1.116.993 2.02 1.311 2.345 1.446.24.1.528.076.705-.111.223-.242.5-.642.78-1.035.2-.283.453-.318.718-.218.27.094 1.699.8 1.993.947.293.147.487.217.558.34.07.124.07.706-.17 1.388Z"/></symbol><symbol viewBox="0 0 24 24" id="arrow2" xmlns="http://www.w3.org/2000/svg"><path fill-rule="evenodd" clip-rule="evenodd" d="M5.293 8.293a1 1 0 0 0 0 1.414l6 6a1 1 0 0 0 1.414 0l6-6a1 1 0 0 0-1.414-1.414L12 13.586 6.707 8.293a1 1 0 0 0-1.414 0Z"/></symbol><symbol fill="none" viewBox="0 0 20 16" id="cart" xmlns="http://www.w3.org/2000/svg"><path fill-rule="evenodd" clip-rule="evenodd" d="M3.331 5H16.67l-1.254 8.152a1 1 0 0 1-.989.848H5.574a1 1 0 0 1-.989-.848L3.331 5ZM14 1v2h5a1 1 0 1 1 0 2h-.33c-.001.1-.009.202-.025.304l-1.254 8.152A3 3 0 0 1 14.426 16H5.574a3 3 0 0 1-2.965-2.544L1.354 5.304A2.025 2.025 0 0 1 1.331 5H1a1 1 0 0 1 0-2h5V1a1 1 0 0 1 1-1h6a1 1 0 0 1 1 1ZM8 3h4V2H8v1Zm2 9a1 1 0 0 1-1-1V8a1 1 0 1 1 2 0v3a1 1 0 0 1-1 1Zm-4-1a1 1 0 1 0 2 0V8a1 1 0 0 0-2 0v3Zm6 0a1 1 0 1 0 2 0V8a1 1 0 1 0-2 0v3Z" fill="#fff"/></symbol><symbol fill="none" viewBox="0 0 59 9" id="line_1" xmlns="http://www.w3.org/2000/svg"><path d="M1.225 7.5c4.713 0 4.713-6 9.423-6 4.713 0 4.713 6 9.426 6s4.713-6 9.426-6 4.713 6 9.426 6c4.71 0 4.71-6 9.423-6s4.713 6 9.426 6" stroke="#CCC" stroke-width="2" stroke-miterlimit="10" stroke-linecap="round" stroke-linejoin="round"/></symbol></svg>