<?xml version="1.0" encoding="utf-8"?><svg xmlns="http://www.w3.org/2000/svg" xmlns:xlink="http://www.w3.org/1999/xlink"><symbol viewBox="0 0 24 24" id="Arrow" xmlns="http://www.w3.org/2000/svg"><path fill-rule="evenodd" clip-rule="evenodd" d="M13.196 7.3a1 1 0 0 1 1.414-.013l4.09 4a1 1 0 0 1 0 1.426l-4.09 4a1 1 0 0 1-1.402-1.426L15.555 13H6a1 1 0 1 1 0-2h9.555l-2.347-2.287a1 1 0 0 1-.012-1.414Z"/></symbol><symbol viewBox="0 0 24 24" id="Phone" xmlns="http://www.w3.org/2000/svg"><path fill-rule="evenodd" clip-rule="evenodd" d="M12.147 3.61a.408.408 0 0 0-.454.113A12.885 12.885 0 0 0 9.12 9.13l-.001.009a12.713 12.713 0 0 0 .005 5.532l.002.009a12.95 12.95 0 0 0 2.565 5.394.41.41 0 0 0 .457.114c.052-.02.1-.051.14-.091l.002-.003 1.49-1.49a.403.403 0 0 0 .063-.553c-.46-.6-.85-1.249-1.163-1.935l-.002-.003a.41.41 0 0 0-.368-.24l-1.259-.001a1 1 0 0 1-.963-.734 12.251 12.251 0 0 1-.006-6.497 1 1 0 0 1 .965-.736l1.26.001a.405.405 0 0 0 .363-.237l.001-.002c.313-.686.702-1.334 1.16-1.933a.404.404 0 0 0-.043-.532l-.007-.007-1.493-1.493a.412.412 0 0 0-.141-.092Zm-.255-2.025a2.407 2.407 0 0 1 1.809.702l1.49 1.49a2.409 2.409 0 0 1 .237 3.162l-.006.007c-.367.48-.68 1-.93 1.55l-.91-.414.91.412a2.402 2.402 0 0 1-2.178 1.412h-.476a10.253 10.253 0 0 0 .004 3.967h.48a2.41 2.41 0 0 1 2.177 1.412c.252.55.565 1.072.934 1.552l.006.008a2.408 2.408 0 0 1-.252 3.18l-1.48 1.48-.001.002a2.403 2.403 0 0 1-3.555-.157l-.012-.014a14.948 14.948 0 0 1-2.968-6.233 14.713 14.713 0 0 1-.006-6.394 14.885 14.885 0 0 1 2.978-6.25l.01-.013a2.402 2.402 0 0 1 1.739-.861Z"/></symbol><symbol viewBox="0 0 24 24" id="Telegram" xmlns="http://www.w3.org/2000/svg"><path d="M.931 10.605 18.668 4.08c.823-.284 1.542.191 1.276 1.38l.001-.002-3.02 13.576c-.224.963-.823 1.197-1.662.743l-4.599-3.234-2.218 2.039c-.245.234-.452.431-.927.431l.326-4.465L16.37 7.2c.37-.312-.083-.487-.572-.177L5.263 13.351.723 12c-.986-.298-1.007-.94.208-1.394Z"/></symbol><symbol viewBox="0 0 24 16" id="VK" xmlns="http://www.w3.org/2000/svg"><path d="M13.023 15.5C5.164 15.5.683 9.88.5.512h3.952c.126 6.87 3.022 9.776 5.32 10.376V.512h3.71v5.92c2.263-.251 4.653-2.954 5.457-5.932h3.7a11.72 11.72 0 0 1-1.77 4.29 11.162 11.162 0 0 1-3.263 3.192 11.441 11.441 0 0 1 3.718 3.099A12.055 12.055 0 0 1 23.5 15.5h-4.078c-.873-2.846-3.056-5.056-5.94-5.356V15.5h-.459Z"/></symbol><symbol viewBox="0 0 24 24" id="WhatsApp" xmlns="http://www.w3.org/2000/svg"><path d="M12.002 2h-.005C6.485 2 2 6.485 2 12c0 2.188.705 4.215 1.904 5.861l-1.246 3.715L6.5 20.347A9.913 9.913 0 0 0 12.002 22C17.517 22 22 17.514 22 12S17.516 2 12.002 2Zm5.82 14.121c-.242.681-1.2 1.247-1.963 1.412-.523.11-1.205.2-3.503-.753-2.938-1.218-4.831-4.204-4.978-4.398-.142-.193-1.188-1.58-1.188-3.016 0-1.435.729-2.133 1.022-2.433.242-.247.64-.36 1.023-.36.124 0 .235.007.335.012.294.013.441.03.635.494.241.581.829 2.016.899 2.163.071.148.142.348.042.542-.094.2-.176.288-.324.458-.147.17-.287.3-.434.483-.136.159-.288.329-.118.623.17.287.758 1.246 1.623 2.016 1.116.993 2.02 1.311 2.345 1.446.24.1.528.076.705-.111.223-.242.5-.642.78-1.035.2-.283.453-.318.718-.218.27.094 1.699.8 1.993.947.293.147.487.217.558.34.07.124.07.706-.17 1.388Z"/></symbol><symbol viewBox="0 0 24 24" id="arrow2" xmlns="http://www.w3.org/2000/svg"><path fill-rule="evenodd" clip-rule="evenodd" d="M5.293 8.293a1 1 0 0 0 0 1.414l6 6a1 1 0 0 0 1.414 0l6-6a1 1 0 0 0-1.414-1.414L12 13.586 6.707 8.293a1 1 0 0 0-1.414 0Z"/></symbol><symbol viewBox="0 0 21 26" id="arrowSlider" xmlns="http://www.w3.org/2000/svg"><path fill-rule="evenodd" clip-rule="evenodd" d="M6.804 6.3a1 1 0 0 0-1.414-.013l-5.09 6a1 1 0 0 0 0 1.426l5.09 6a1 1 0 0 0 1.402-1.426L3.445 14H20a1 1 0 1 0 0-2H3.445l3.347-4.287A1 1 0 0 0 6.804 6.3Z"/></symbol><symbol viewBox="0 0 44 26" id="arrowSliderBig" xmlns="http://www.w3.org/2000/svg"><path fill-rule="evenodd" clip-rule="evenodd" d="M12.804.3A1 1 0 0 0 11.39.286l-11.09 12a1 1 0 0 0 0 1.426l11.09 12a1 1 0 0 0 1.402-1.427L3.445 14H43a1 1 0 1 0 0-2H3.445l9.347-10.287A1 1 0 0 0 12.804.3Z"/></symbol><symbol fill="none" viewBox="0 0 20 16" id="cart" xmlns="http://www.w3.org/2000/svg"><path fill-rule="evenodd" clip-rule="evenodd" d="M3.331 5H16.67l-1.254 8.152a1 1 0 0 1-.989.848H5.574a1 1 0 0 1-.989-.848L3.331 5ZM14 1v2h5a1 1 0 1 1 0 2h-.33c-.001.1-.009.202-.025.304l-1.254 8.152A3 3 0 0 1 14.426 16H5.574a3 3 0 0 1-2.965-2.544L1.354 5.304A2.025 2.025 0 0 1 1.331 5H1a1 1 0 0 1 0-2h5V1a1 1 0 0 1 1-1h6a1 1 0 0 1 1 1ZM8 3h4V2H8v1Zm2 9a1 1 0 0 1-1-1V8a1 1 0 1 1 2 0v3a1 1 0 0 1-1 1Zm-4-1a1 1 0 1 0 2 0V8a1 1 0 0 0-2 0v3Zm6 0a1 1 0 1 0 2 0V8a1 1 0 1 0-2 0v3Z" fill="#fff"/></symbol><symbol viewBox="0 0 14 14" id="close" xmlns="http://www.w3.org/2000/svg"><path fill-rule="evenodd" clip-rule="evenodd" d="M0 1.25 1.25 0 7 5.75 12.75 0 14 1.25 8.25 7 14 12.75 12.75 14 7 8.25 1.25 14 0 12.75 5.75 7 0 1.25Z"/></symbol><symbol viewBox="0 0 18 4" id="dots" xmlns="http://www.w3.org/2000/svg"><path d="M4 2a2 2 0 1 1-4 0 2 2 0 0 1 4 0ZM11 2a2 2 0 1 1-4 0 2 2 0 0 1 4 0ZM18 2a2 2 0 1 1-4 0 2 2 0 0 1 4 0Z"/></symbol><symbol viewBox="0 0 24 24" id="dzen" xmlns="http://www.w3.org/2000/svg"><path d="M14.314 14.314C12.43 16.26 12.291 18.686 12.13 24c4.954 0 8.374-.017 10.14-1.731C23.983 20.503 24 16.92 24 12.129c-5.314.171-7.74.3-9.686 2.185ZM0 12.13c0 4.791.017 8.374 1.731 10.14C3.497 23.983 6.917 24 11.871 24c-.171-5.314-.3-7.74-2.185-9.686C7.74 12.43 5.314 12.291 0 12.13ZM11.871 0C6.926 0 3.497.017 1.731 1.731.017 3.497 0 7.08 0 11.871c5.314-.171 7.74-.3 9.686-2.185C11.57 7.74 11.709 5.314 11.87 0Zm2.443 9.686C12.43 7.74 12.291 5.314 12.13 0c4.954 0 8.374.017 10.14 1.731C23.983 3.497 24 7.08 24 11.871c-5.314-.171-7.74-.3-9.686-2.185Z"/></symbol><symbol viewBox="0 0 24 24" id="instagram" xmlns="http://www.w3.org/2000/svg"><path d="M12 2.169h4.916c1.156 0 1.735.289 2.168.433.579.29 1.012.434 1.446.868.434.434.723.867.868 1.446.144.433.289 1.012.433 2.168v9.832c0 1.156-.289 1.735-.433 2.168-.29.579-.434 1.012-.868 1.446-.434.434-.867.723-1.446.868-.433.144-1.012.289-2.168.433H7.084c-1.156 0-1.735-.289-2.168-.433-.579-.29-1.012-.434-1.446-.868-.434-.434-.723-.867-.868-1.446-.144-.433-.289-1.012-.433-2.168V7.084c0-1.156.289-1.735.433-2.168.29-.579.434-1.012.868-1.446.434-.434.867-.723 1.446-.868.433-.144 1.012-.289 2.168-.433H12ZM12 0H7.084c-1.3 0-2.168.29-2.891.578a6.313 6.313 0 0 0-2.169 1.446c-.723.723-1.012 1.301-1.446 2.169C.29 4.916.145 5.783 0 7.084v9.832c0 1.3.29 2.168.578 2.891.29.723.723 1.446 1.446 2.169.723.723 1.301 1.012 2.169 1.446.723.289 1.59.433 2.891.578h9.832c1.3 0 2.168-.29 2.891-.578a6.314 6.314 0 0 0 2.169-1.446c.723-.723 1.012-1.301 1.446-2.169.289-.723.433-1.59.578-2.891V7.084c0-1.3-.29-2.168-.578-2.891a6.314 6.314 0 0 0-1.446-2.169c-.723-.723-1.301-1.012-2.169-1.446C19.084.29 18.217.145 16.916 0H12Z"/><path d="M12 5.783A6.17 6.17 0 0 0 5.783 12 6.17 6.17 0 0 0 12 18.217 6.17 6.17 0 0 0 18.217 12 6.17 6.17 0 0 0 12 5.783Zm0 10.265c-2.169 0-4.048-1.735-4.048-4.048 0-2.169 1.735-4.048 4.048-4.048 2.169 0 4.048 1.735 4.048 4.048 0 2.169-1.88 4.048-4.048 4.048ZM18.361 7.084a1.446 1.446 0 1 0 0-2.891 1.446 1.446 0 0 0 0 2.891Z"/></symbol><symbol viewBox="0 0 24 22" id="likee" xmlns="http://www.w3.org/2000/svg"><path d="M6.84.029c-.274 0-.549.01-.729.033a6.818 6.818 0 0 0-2.237.653l4.902 5.032 3.241-3.329v-.001l-.011.01-.305-.306a7.295 7.295 0 0 0-.9-.79C9.841.626 8.793.214 7.565.062A6.613 6.613 0 0 0 6.84.03Z" fill="#F4E8DA"/><path d="M3.874.715 3.71.8a6.947 6.947 0 0 0-2.918 2.95l-.147.284 4.901 5.029 3.229-3.315L3.874.715Z"/><path d="m.646 4.033-.106.254a7.405 7.405 0 0 0-.506 1.93c-.04.322-.046 1.29-.01 1.594.17 1.406.648 2.576 1.492 3.648l.588.665.227.237 3.215-3.297c.013-.014-4.9-5.031-4.9-5.031Z" fill="#F4E8DA"/><path d="M23.347 3.988c-.005 0-1.99 2.034-4.468 4.574L8.77 18.97c1.58 1.62 2.886 2.95 2.91 2.963a.986.986 0 0 0 .116.047c.04.014.123.022.19.018.24-.013-.146.368 5.268-5.193 2.714-2.789 5.008-5.157 5.095-5.264a7.206 7.206 0 0 0 .992-1.567 7.193 7.193 0 0 0 .11-5.76 1.502 1.502 0 0 0-.105-.226Z"/><path d="m20.086.643-14.566 15 .005.006C10.375 10.64 20.105.656 20.105.656a.135.135 0 0 0-.019-.013Zm.055.03L5.543 15.66l3.228 3.311L23.347 3.988l-.078-.174A6.921 6.921 0 0 0 20.374.798l-.233-.125Z" fill="#F4E8DA"/><path d="M2.331 12.36C5.546 9.065 11.51 2.875 12.883 1.57a6.807 6.807 0 0 1 3.57-1.536 8.953 8.953 0 0 1 1.436-.01 7.1 7.1 0 0 1 1.49.334c.24.083.7.273.762.315-5.194 5.413-8.165 8.363-14.607 14.976l-3.203-3.288Z"/></symbol><symbol fill="none" viewBox="0 0 59 9" id="line_1" xmlns="http://www.w3.org/2000/svg"><path d="M1.225 7.5c4.713 0 4.713-6 9.423-6 4.713 0 4.713 6 9.426 6s4.713-6 9.426-6 4.713 6 9.426 6c4.71 0 4.71-6 9.423-6s4.713 6 9.426 6" stroke="#CCC" stroke-width="2" stroke-miterlimit="10" stroke-linecap="round" stroke-linejoin="round"/></symbol><symbol viewBox="0 0 12 2" id="minus" xmlns="http://www.w3.org/2000/svg"><path d="M0 1a1 1 0 0 1 1-1h10a1 1 0 1 1 0 2H1a1 1 0 0 1-1-1Z"/></symbol><symbol viewBox="0 0 24 24" id="pag_arrow" xmlns="http://www.w3.org/2000/svg"><path fill-rule="evenodd" clip-rule="evenodd" d="M13.196 7.3a1 1 0 0 1 1.414-.013l4.09 4a1 1 0 0 1 0 1.426l-4.09 4a1 1 0 0 1-1.402-1.426L15.555 13H6a1 1 0 1 1 0-2h9.555l-2.347-2.287a1 1 0 0 1-.012-1.414Z"/></symbol><symbol fill="none" viewBox="0 0 25 24" id="photo" xmlns="http://www.w3.org/2000/svg"><path d="M20.5 10a1 1 0 0 0-1 1v7a1 1 0 0 1-1 1h-14a1 1 0 0 1-1-1v-8a1 1 0 0 1 1-1h2a1 1 0 0 0 1-.68l.54-1.64A1 1 0 0 1 8.99 6h5.51a1 1 0 1 0 0-2H8.94A3 3 0 0 0 6.1 6.05l-.32 1H4.5a3 3 0 0 0-3 3v8a3 3 0 0 0 3 3h14a3 3 0 0 0 3-3v-7a1 1 0 0 0-1-1.05Zm-9-1a4 4 0 1 0 0 8 4 4 0 0 0 0-8Zm0 6a2 2 0 1 1 0-4 2 2 0 0 1 0 4Zm11-11h-1V3a1 1 0 0 0-2 0v1h-1a1 1 0 1 0 0 2h1v1a1 1 0 0 0 2 0V6h1a1 1 0 1 0 0-2Z" fill="#fff"/></symbol><symbol viewBox="0 0 12 12" id="plus" xmlns="http://www.w3.org/2000/svg"><path d="M0 6a1 1 0 0 1 1-1h10a1 1 0 1 1 0 2H1a1 1 0 0 1-1-1Z"/><path d="M6 0a1 1 0 0 1 1 1v10a1 1 0 1 1-2 0V1a1 1 0 0 1 1-1Z"/></symbol><symbol viewBox="0 0 80 95" id="rabbit" xmlns="http://www.w3.org/2000/svg"><g filter="url(#qa)"><path fill-rule="evenodd" clip-rule="evenodd" d="M70 6a6 6 0 0 0-6-6H16a6 6 0 0 0-6 6v47.085a6 6 0 0 0 6 6h14.542a6 6 0 0 1 4.21 1.725l3.11 3.064a3.056 3.056 0 0 0 4.276 0l3.11-3.064a6 6 0 0 1 4.21-1.725H64a6 6 0 0 0 6-6V6Z"/></g><g clip-path="url(#qb)" fill="#fff"><path d="m53.367 38.267-3.75-1.144a5.483 5.483 0 0 0 .114-2.551l3.608-.977-.49-1.811-3.785 1.024a5.457 5.457 0 0 0-.491-.703c-.536-.648-.827-1.44-.82-2.232v-.17a7.565 7.565 0 0 0-1.115-3.864 19.737 19.737 0 0 0 1.723-3.207c2.064-4.915 1.545-9.763 1.522-9.967L49.695 11l-1.321 1.031c-.162.127-3.986 3.15-6.05 8.066-.293.698-.55 1.434-.765 2.195a7.637 7.637 0 0 0-2.82-.02 19.078 19.078 0 0 0-.759-2.175c-2.064-4.915-5.888-7.94-6.05-8.066L30.61 11l-.19 1.665c-.022.204-.541 5.052 1.523 9.967a19.67 19.67 0 0 0 1.663 3.116 7.582 7.582 0 0 0-1.16 4.205c.014.785-.266 1.582-.79 2.246-.17.215-.324.442-.46.68l-4.045-1.095-.49 1.811 3.895 1.054a5.576 5.576 0 0 0 .108 2.389l-4.031 1.229.547 1.794 4.288-1.307a5.496 5.496 0 0 0 4.592 2.348A5.19 5.19 0 0 0 40.079 43a5.187 5.187 0 0 0 4.023-1.902 5.495 5.495 0 0 0 4.68-2.268l4.038 1.231.547-1.794Zm-9.036.96c-.177 0-.356-.014-.534-.04l-.596-.088-.328.505a3.321 3.321 0 0 1-2.794 1.52 3.324 3.324 0 0 1-2.785-1.507l-.319-.484-.575.067a3.611 3.611 0 0 1-2.99-1.038l.9-.274-.547-1.795-1.303.397a3.613 3.613 0 0 1-.081-1.348l1.412.383.49-1.811-1.178-.32.025-.032c.792-1.004 1.216-2.227 1.193-3.445l-.001-.111c0-1.27.404-2.475 1.17-3.485l.41-.543-.388-.56a18.125 18.125 0 0 1-1.84-3.312c-1.104-2.631-1.39-5.292-1.437-7.037 1.21 1.252 2.907 3.315 4.015 5.954.366.873.67 1.813.9 2.795l.231.986.966-.307a5.775 5.775 0 0 1 3.584.032l.98.331.235-1.007c.231-.995.537-1.947.907-2.83 1.105-2.63 2.805-4.698 4.018-5.953-.047 1.741-.332 4.396-1.44 7.036a18.16 18.16 0 0 1-1.893 3.39l-.388.553.4.543a5.712 5.712 0 0 1 1.127 3.464c-.011 1.233.433 2.456 1.25 3.444l.02.027-1.429.387.49 1.81 1.704-.46a3.618 3.618 0 0 1-.092 1.512l-1.583-.483-.547 1.795 1.13.344a3.607 3.607 0 0 1-2.489.995Z"/><path d="m41.176 33.703-1.179.898-1.126-.85-1.131 1.496 1.322 1v1.242h1.876v-1.245l1.376-1.05-1.138-1.491Zm-5.235-3.236h1.877v1.785H35.94v-1.785Zm6.229 0h1.876v1.785H42.17v-1.785Z"/></g><defs><clipPath id="qb"><path fill="#fff" transform="translate(24 11)" d="M0 0h32v32H0z"/></clipPath><filter id="qa" x="0" y="0" width="80" height="94.746" filterUnits="userSpaceOnUse" color-interpolation-filters="sRGB"><feFlood flood-opacity="0" result="BackgroundImageFix"/><feColorMatrix in="SourceAlpha" values="0 0 0 0 0 0 0 0 0 0 0 0 0 0 0 0 0 0 127 0" result="hardAlpha"/><feMorphology radius="10" in="SourceAlpha" result="effect1_dropShadow_242_1354"/><feOffset dy="20"/><feGaussianBlur stdDeviation="10"/><feComposite in2="hardAlpha" operator="out"/><feColorMatrix values="0 0 0 0 0 0 0 0 0 0 0 0 0 0 0 0 0 0 0.2 0"/><feBlend in2="BackgroundImageFix" result="effect1_dropShadow_242_1354"/><feBlend in="SourceGraphic" in2="effect1_dropShadow_242_1354" result="shape"/></filter></defs></symbol><symbol fill="none" viewBox="0 0 25 24" id="ros" xmlns="http://www.w3.org/2000/svg"><mask id="ra" style="mask-type:luminance" maskUnits="userSpaceOnUse" x="0" y="0" width="25" height="24"><path d="M15.553 11.993a3.064 3.064 0 0 1-3.067 3.066 3.056 3.056 0 0 1-3.057-3.066 3.062 3.062 0 0 1 3.057-3.067 3.081 3.081 0 0 1 3.067 3.067Zm5.42-8.478c-4.68-4.681-12.284-4.681-16.965 0a12.002 12.002 0 0 0 1.597 18.3l.009-9.489c-.01-.108-.01-.225-.01-.333a6.89 6.89 0 0 1 6.891-6.891 6.89 6.89 0 0 1 6.891 6.89 6.89 6.89 0 0 1-6.89 6.891c-.767 0-2.237-.306-2.95-.55v5.294c6.43 1.624 12.952-2.264 14.584-8.694.244-.956.37-1.948.37-2.931a12.047 12.047 0 0 0-3.526-8.487Z" fill="#fff"/></mask><g mask="url(#ra)"><path d="M12.486-.003c6.63 0 11.996 5.366 11.996 11.996 0 6.629-5.366 11.995-11.995 11.995C5.856 23.988.49 18.622.49 11.993c0-6.62 5.375-11.996 11.995-11.996Z" fill="#fff"/></g></symbol><symbol viewBox="0 0 22 24" id="ttok" xmlns="http://www.w3.org/2000/svg"><path d="M21.489 6.034a6.022 6.022 0 0 1-3.64-1.217A6.036 6.036 0 0 1 15.445.05h-3.903l-.004 16.505a3.532 3.532 0 0 1-3.738 3.526 3.516 3.516 0 0 1-1.616-.496 3.532 3.532 0 0 1-1.727-2.976 3.535 3.535 0 0 1 4.654-3.406V9.24a7.68 7.68 0 0 0-1.125-.084c-2.16 0-4.18.898-5.624 2.515a7.321 7.321 0 0 0-1.847 4.417 7.312 7.312 0 0 0 2.178 5.696 7.485 7.485 0 0 0 5.292 2.167c.38 0 .757-.028 1.126-.083a7.458 7.458 0 0 0 4.167-2.084 7.307 7.307 0 0 0 2.192-5.2l-.02-8.722A9.865 9.865 0 0 0 21.5 9.918V6.033h-.011Z"/></symbol><symbol viewBox="0 0 22 16" id="youtube" xmlns="http://www.w3.org/2000/svg"><path d="M21.45 2.429c-.275-1-.962-1.715-1.925-2C17.875 0 10.863 0 10.863 0S3.988 0 2.2.429c-.962.285-1.65 1-1.925 2C0 4.286 0 8 0 8s0 3.714.413 5.571c.275 1 .962 1.715 1.924 2C3.987 16 11 16 11 16s6.875 0 8.663-.429c.962-.285 1.65-1 1.924-2C22 11.714 22 8 22 8s0-3.714-.55-5.571Zm-12.65 9V4.57L14.575 8 8.8 11.429Z"/></symbol></svg>