<svg width="44" height="26" viewBox="0 0 44 26" fill="none" xmlns="http://www.w3.org/2000/svg">
<path fill-rule="evenodd" clip-rule="evenodd" d="M12.8044 0.29929C12.4174 -0.094737 11.7842 -0.100441 11.3902 0.286549L0.299292 12.2865C0.107846 12.4746 -1.11304e-06 12.7317 -1.1365e-06 13C-1.15996e-06 13.2683 0.107846 13.5254 0.299292 13.7134L11.3902 25.7134C11.7842 26.1004 12.4174 26.0947 12.8044 25.7007C13.1913 25.3067 13.1856 24.6735 12.7916 24.2865L3.44531 14L43 14C43.5523 14 44 13.5523 44 13C44 12.4477 43.5523 12 43 12L3.44531 12L12.7916 1.71345C13.1856 1.32646 13.1913 0.693316 12.8044 0.29929Z" fill="#262421"/>
</svg>
