<svg width="21" height="26" viewBox="0 0 21 26" fill="none" xmlns="http://www.w3.org/2000/svg">
<path fill-rule="evenodd" clip-rule="evenodd" d="M6.80436 6.29929C6.41737 5.90526 5.78423 5.89956 5.3902 6.28655L0.299293 12.2865C0.107847 12.4746 -5.885e-07 12.7317 -6.11959e-07 13C-6.35418e-07 13.2683 0.107847 13.5254 0.299293 13.7134L5.3902 19.7134C5.78423 20.1004 6.41737 20.0947 6.80436 19.7007C7.19135 19.3067 7.18564 18.6735 6.79162 18.2866L3.44531 14L20 14C20.5523 14 21 13.5523 21 13C21 12.4477 20.5523 12 20 12L3.44531 12L6.79162 7.71345C7.18564 7.32646 7.19135 6.69332 6.80436 6.29929Z" fill="#262421"/>
</svg>
