<svg width="16" height="16" viewBox="0 0 16 16" fill="none" xmlns="http://www.w3.org/2000/svg">
<path d="M5.5364 4.2636C5.18492 3.91213 4.61508 3.91213 4.2636 4.2636C3.91213 4.61508 3.91213 5.18492 4.2636 5.5364L6.72721 8L4.2636 10.4636C3.91213 10.8151 3.91213 11.3849 4.2636 11.7364C4.61508 12.0879 5.18492 12.0879 5.5364 11.7364L8 9.27279L10.4636 11.7364C10.8151 12.0879 11.3849 12.0879 11.7364 11.7364C12.0879 11.3849 12.0879 10.8151 11.7364 10.4636L9.27279 8L11.7364 5.5364C12.0879 5.18492 12.0879 4.61508 11.7364 4.2636C11.3849 3.91213 10.8151 3.91213 10.4636 4.2636L8 6.72721L5.5364 4.2636Z" fill="#404B5F"/>
</svg>
