<svg width="24" height="24" viewBox="0 0 24 24" fill="none" xmlns="http://www.w3.org/2000/svg">
<path d="M20 10C19.7348 10 19.4804 10.1054 19.2929 10.2929C19.1054 10.4804 19 10.7348 19 11V18C19 18.2652 18.8946 18.5196 18.7071 18.7071C18.5196 18.8946 18.2652 19 18 19H4C3.73478 19 3.48043 18.8946 3.29289 18.7071C3.10536 18.5196 3 18.2652 3 18V10C3 9.73478 3.10536 9.48043 3.29289 9.29289C3.48043 9.10536 3.73478 9 4 9H6C6.21807 9.01138 6.43386 8.95107 6.61443 8.82829C6.795 8.7055 6.93042 8.52698 7 8.32L7.54 6.68C7.60709 6.48138 7.7349 6.30886 7.90537 6.18684C8.07584 6.06482 8.28036 5.99946 8.49 6H14C14.2652 6 14.5196 5.89464 14.7071 5.70711C14.8946 5.51957 15 5.26522 15 5C15 4.73478 14.8946 4.48043 14.7071 4.29289C14.5196 4.10536 14.2652 4 14 4H8.44C7.81155 4.00118 7.19933 4.19968 6.68977 4.56751C6.1802 4.93533 5.79901 5.45389 5.6 6.05L5.28 7.05H4C3.20435 7.05 2.44129 7.36607 1.87868 7.92868C1.31607 8.49129 1 9.25435 1 10.05V18.05C1 18.8456 1.31607 19.6087 1.87868 20.1713C2.44129 20.7339 3.20435 21.05 4 21.05H18C18.7956 21.05 19.5587 20.7339 20.1213 20.1713C20.6839 19.6087 21 18.8456 21 18.05V11.05C21.0068 10.9145 20.9859 10.7791 20.9387 10.6519C20.8915 10.5248 20.8189 10.4086 20.7254 10.3103C20.6318 10.2121 20.5193 10.134 20.3946 10.0806C20.2699 10.0273 20.1356 9.99983 20 10V10ZM11 9C10.2089 9 9.43552 9.2346 8.77772 9.67412C8.11992 10.1136 7.60723 10.7384 7.30448 11.4693C7.00173 12.2002 6.92252 13.0044 7.07686 13.7804C7.2312 14.5563 7.61216 15.269 8.17157 15.8284C8.73098 16.3878 9.44371 16.7688 10.2196 16.9231C10.9956 17.0775 11.7998 16.9983 12.5307 16.6955C13.2616 16.3928 13.8864 15.8801 14.3259 15.2223C14.7654 14.5645 15 13.7911 15 13C15 11.9391 14.5786 10.9217 13.8284 10.1716C13.0783 9.42143 12.0609 9 11 9V9ZM11 15C10.6044 15 10.2178 14.8827 9.88886 14.6629C9.55996 14.4432 9.30362 14.1308 9.15224 13.7654C9.00087 13.3999 8.96126 12.9978 9.03843 12.6098C9.1156 12.2219 9.30608 11.8655 9.58579 11.5858C9.86549 11.3061 10.2219 11.1156 10.6098 11.0384C10.9978 10.9613 11.3999 11.0009 11.7654 11.1522C12.1308 11.3036 12.4432 11.56 12.6629 11.8889C12.8827 12.2178 13 12.6044 13 13C13 13.5304 12.7893 14.0391 12.4142 14.4142C12.0391 14.7893 11.5304 15 11 15ZM22 4H21V3C21 2.73478 20.8946 2.48043 20.7071 2.29289C20.5196 2.10536 20.2652 2 20 2C19.7348 2 19.4804 2.10536 19.2929 2.29289C19.1054 2.48043 19 2.73478 19 3V4H18C17.7348 4 17.4804 4.10536 17.2929 4.29289C17.1054 4.48043 17 4.73478 17 5C17 5.26522 17.1054 5.51957 17.2929 5.70711C17.4804 5.89464 17.7348 6 18 6H19V7C19 7.26522 19.1054 7.51957 19.2929 7.70711C19.4804 7.89464 19.7348 8 20 8C20.2652 8 20.5196 7.89464 20.7071 7.70711C20.8946 7.51957 21 7.26522 21 7V6H22C22.2652 6 22.5196 5.89464 22.7071 5.70711C22.8946 5.51957 23 5.26522 23 5C23 4.73478 22.8946 4.48043 22.7071 4.29289C22.5196 4.10536 22.2652 4 22 4Z" fill="#262421"/>
</svg>
